<?xml version="1.0" standalone="no"?>
<!DOCTYPE svg PUBLIC "-//W3C//DTD SVG 20010904//EN"
 "http://www.w3.org/TR/2001/REC-SVG-20010904/DTD/svg10.dtd">
<svg version="1.0" xmlns="http://www.w3.org/2000/svg"
 width="310.000000pt" height="310.000000pt" viewBox="0 0 310.000000 310.000000"
 preserveAspectRatio="xMidYMid meet">
<metadata>
Created by potrace 1.11, written by Peter Selinger 2001-2013
</metadata>
<g transform="translate(0.000000,310.000000) scale(0.100000,-0.100000)"
fill="#000000" stroke="none">
<path d="M1460 3088 c0 -5 -4 -6 -10 -3 -5 3 -10 1 -10 -5 0 -6 -4 -9 -9 -5
-5 3 -16 -1 -24 -9 -8 -8 -17 -12 -21 -9 -3 4 -6 1 -6 -5 0 -7 -5 -12 -11 -12
-6 0 -28 -18 -49 -39 -21 -21 -42 -36 -45 -32 -4 3 -5 1 -3 -4 1 -5 -13 -31
-33 -57 -34 -44 -36 -46 -52 -28 -8 10 -13 21 -10 24 4 3 1 6 -6 6 -7 0 -26
14 -41 30 -15 17 -35 30 -43 30 -9 0 -19 5 -22 11 -6 9 -42 27 -67 34 -5 2 -9
3 -10 5 -18 14 -222 16 -251 2 -12 -5 -39 -17 -60 -27 -21 -9 -53 -31 -71 -50
-19 -18 -37 -31 -40 -28 -3 4 -6 1 -6 -5 0 -6 -6 -17 -14 -24 -7 -8 -21 -28
-30 -46 -9 -18 -21 -32 -26 -32 -6 0 -9 -3 -9 -7 1 -5 0 -11 -1 -15 -1 -5 -3
-11 -5 -15 -1 -5 -7 -21 -13 -36 -7 -16 -12 -35 -12 -43 0 -8 -4 -14 -10 -14
-5 0 -7 -6 -4 -14 3 -8 0 -17 -5 -21 -6 -3 -9 -11 -5 -16 3 -5 0 -16 -6 -24
-7 -8 -9 -15 -5 -15 4 0 1 -8 -6 -17 -10 -11 -10 -14 -1 -9 6 4 12 2 12 -3 0
-6 -4 -11 -9 -11 -5 0 -8 -8 -6 -17 1 -10 -3 -24 -9 -32 -9 -12 -8 -13 4 -6
12 7 13 6 4 -6 -6 -8 -10 -29 -9 -46 0 -18 -2 -33 -5 -33 -3 0 -5 -31 -5 -70
1 -47 -2 -67 -9 -63 -8 5 -8 3 -1 -8 6 -8 10 -51 10 -96 0 -46 4 -83 9 -83 5
0 3 -7 -4 -15 -8 -9 -8 -15 -2 -15 7 0 8 -10 2 -30 -5 -17 -5 -28 -1 -25 5 2
11 -6 13 -20 3 -15 1 -22 -5 -18 -6 3 -7 1 -3 -5 12 -21 16 -96 5 -103 -6 -4
-29 -5 -50 -3 -24 3 -39 0 -39 -7 0 -8 -4 -8 -14 0 -9 8 -15 8 -18 2 -1 -6
-15 -12 -30 -13 -16 -1 -28 -7 -28 -12 0 -5 -3 -6 -6 -3 -4 4 -19 -2 -34 -13
-16 -11 -32 -20 -37 -20 -4 0 -17 -11 -27 -25 -10 -13 -23 -22 -29 -18 -6 3
-7 1 -3 -6 4 -6 0 -14 -8 -17 -9 -3 -13 -10 -10 -15 3 -5 -2 -12 -10 -15 -9
-3 -14 -10 -11 -14 3 -5 1 -11 -5 -15 -5 -3 -10 -15 -10 -26 0 -10 -6 -19 -12
-19 -10 0 -9 -3 1 -9 11 -7 11 -9 0 -13 -10 -3 -14 -33 -15 -121 0 -70 3 -114
9 -110 5 3 6 -4 2 -17 -4 -12 -3 -20 2 -17 4 3 8 -10 7 -29 -1 -19 2 -34 8
-34 5 0 6 -5 3 -10 -4 -6 -1 -18 7 -27 11 -14 11 -16 -2 -8 -12 6 -13 5 -2 -6
6 -7 12 -26 12 -41 0 -15 5 -28 12 -28 6 0 8 -3 5 -7 -4 -3 -2 -12 4 -20 9
-10 8 -13 -1 -13 -10 0 -10 -3 0 -15 7 -8 9 -15 4 -15 -5 0 -3 -4 3 -8 7 -5
14 -20 15 -35 1 -15 6 -27 10 -27 4 0 8 -11 8 -24 0 -14 5 -28 10 -31 6 -3 10
-15 10 -26 0 -10 5 -19 11 -19 5 0 8 -4 5 -8 -3 -5 2 -21 10 -36 7 -16 14 -35
14 -42 0 -8 5 -14 10 -14 6 0 10 -9 10 -19 0 -11 3 -21 8 -23 4 -1 17 -24 30
-51 13 -26 28 -47 33 -47 6 0 8 -4 5 -9 -5 -7 3 -20 44 -68 6 -7 8 -13 5 -13
-6 0 6 -16 47 -61 15 -16 24 -29 20 -29 -4 0 5 -11 20 -24 15 -12 25 -26 21
-30 -3 -3 1 -6 10 -6 9 0 17 -6 17 -12 0 -7 13 -22 29 -33 16 -10 27 -23 25
-27 -3 -4 0 -8 7 -8 6 0 20 -10 30 -22 11 -11 19 -18 19 -13 0 4 9 -4 21 -19
11 -14 26 -26 34 -26 7 0 16 -7 19 -16 3 -8 10 -12 16 -9 5 3 10 1 10 -4 0 -6
4 -11 10 -11 9 0 72 -39 98 -60 7 -6 17 -8 22 -5 6 3 10 2 10 -2 0 -6 63 -40
90 -48 3 -1 19 -7 35 -14 17 -7 35 -14 40 -15 6 -1 16 -5 23 -9 6 -5 12 -6 12
-3 0 3 16 -2 35 -10 20 -8 40 -12 45 -9 6 4 10 2 10 -3 0 -5 6 -9 13 -9 6 0
21 -4 31 -9 14 -5 17 -4 12 5 -6 9 -3 10 10 3 37 -18 84 -31 78 -20 -4 7 0 7
12 1 11 -5 26 -9 34 -8 8 1 20 -2 25 -6 17 -11 325 -7 325 5 0 6 5 4 10 -4 5
-8 10 -10 10 -4 0 6 10 10 23 9 12 -1 28 3 36 9 12 9 13 8 6 -3 -6 -11 -5 -12
6 -5 15 9 29 12 72 16 15 1 27 7 27 13 0 5 5 3 10 -5 7 -11 12 -12 18 -4 4 7
23 14 42 17 19 3 46 9 60 15 14 5 27 9 30 9 3 0 22 5 42 12 21 7 43 9 49 5 8
-4 9 -3 5 4 -5 8 0 12 13 12 11 0 26 7 34 15 12 11 17 12 20 2 4 -9 6 -9 6 1
1 7 6 10 11 7 6 -3 10 -1 10 5 0 7 7 9 15 6 9 -3 18 1 21 9 3 8 12 11 21 8 12
-5 14 -3 8 7 -6 10 -4 12 8 7 9 -3 19 -2 22 4 4 5 11 7 16 4 5 -4 9 -2 9 3 0
10 56 37 64 31 3 -2 11 4 18 14 8 10 21 19 31 21 10 1 16 5 15 9 -2 4 15 16
38 27 22 11 50 30 62 41 12 11 22 16 22 12 0 -4 5 0 11 10 6 9 14 15 20 12 5
-4 9 -2 9 4 0 6 21 26 46 46 26 19 43 35 38 35 -4 0 6 10 22 23 36 26 68 57
60 57 -3 0 12 18 34 40 22 22 40 43 41 47 0 5 11 20 25 36 13 15 21 27 17 27
-5 0 0 5 10 11 9 6 15 14 12 20 -4 5 1 12 9 15 9 3 13 10 10 15 -3 5 0 9 5 9
6 0 10 3 9 8 -3 12 25 62 34 62 5 0 7 4 3 9 -3 5 -1 12 5 16 6 4 8 11 5 16 -4
5 -1 9 5 9 7 0 9 7 6 16 -3 8 -2 12 4 9 6 -3 10 1 10 9 0 8 5 27 12 43 6 15
12 31 13 36 2 4 3 8 5 10 2 3 10 39 12 60 1 9 6 17 10 17 3 0 7 8 7 18 0 22 5
44 13 57 4 6 5 23 4 38 -2 15 1 30 6 33 4 3 6 10 2 15 -3 5 0 16 6 24 10 12
10 15 0 15 -9 0 -9 4 -2 13 5 6 9 29 8 50 -1 20 2 37 7 37 5 0 4 6 -2 14 -8 9
-8 16 -2 20 6 4 10 107 9 276 -1 191 -4 267 -12 263 -6 -4 -6 0 1 8 10 12 10
18 1 27 -9 9 -9 12 1 12 11 0 11 3 0 17 -10 11 -10 14 -1 9 6 -4 12 -3 12 3 0
5 -3 12 -8 15 -4 2 -7 25 -6 50 1 25 -3 46 -9 46 -5 0 -5 6 2 13 6 8 8 17 4
21 -8 7 -9 17 -15 103 -1 29 -5 53 -8 53 -5 0 -11 39 -13 88 -1 12 -4 22 -8
22 -5 0 -6 9 -4 20 2 11 0 20 -5 20 -5 0 -7 9 -5 20 2 11 0 20 -6 20 -5 0 -9
10 -9 23 0 13 -5 28 -10 33 -6 6 -13 21 -15 35 -3 13 -9 25 -15 27 -6 2 -8 8
-4 13 3 5 0 9 -5 9 -6 0 -10 3 -9 8 8 22 -84 118 -127 132 -5 2 -19 9 -31 15
-12 6 -42 10 -68 10 -26 -1 -46 3 -46 9 0 7 -4 6 -8 -1 -4 -7 -17 -14 -27 -16
-36 -6 -95 -31 -95 -40 0 -4 -4 -6 -9 -2 -6 3 -14 -3 -20 -12 -10 -17 -10 -17
-11 0 0 10 -4 16 -8 13 -5 -3 -9 1 -10 9 -1 8 -3 22 -4 30 -1 8 -5 15 -10 15
-4 0 -8 9 -8 19 0 11 -5 23 -10 26 -6 4 -8 11 -4 16 3 5 0 8 -8 7 -7 -2 -12 3
-10 10 1 7 -5 15 -13 18 -8 3 -12 10 -10 15 3 4 -3 14 -15 21 -11 7 -20 18
-20 25 0 7 -7 13 -15 13 -8 0 -15 5 -15 12 0 6 -3 8 -6 5 -4 -4 -15 3 -25 15
-11 11 -19 18 -19 14 0 -3 -13 0 -29 8 -16 9 -31 12 -35 9 -3 -4 -6 -1 -6 7 0
10 -3 10 -15 0 -8 -7 -15 -9 -15 -4 0 5 -13 9 -30 9 -16 1 -30 -2 -30 -6 0 -4
-8 -6 -17 -5 -10 2 -24 -3 -31 -11 -8 -7 -17 -11 -21 -8 -5 2 -19 -6 -32 -18
-13 -12 -27 -21 -31 -19 -5 1 -8 -5 -8 -13 0 -8 -4 -14 -8 -13 -4 2 -27 -16
-51 -39 -23 -24 -40 -43 -36 -43 4 0 0 -6 -7 -14 -29 -30 -48 -57 -48 -66 0
-6 -4 -10 -10 -10 -5 0 -10 -7 -10 -15 0 -8 -5 -15 -11 -15 -5 0 -7 -4 -4 -10
3 -6 -1 -7 -9 -4 -10 4 -16 19 -16 40 0 19 -4 34 -9 34 -4 0 -8 10 -7 23 1 12
-6 37 -16 56 -9 19 -15 38 -12 43 3 4 0 8 -5 8 -6 0 -11 6 -11 14 0 7 -7 19
-15 26 -8 7 -12 17 -8 24 3 6 3 8 -1 4 -5 -4 -19 3 -32 15 -40 38 -48 43 -68
39 -10 -2 -16 0 -13 5 3 5 -26 9 -64 9 -38 0 -69 -3 -69 -8z m88 -226 c2 -12
7 -20 12 -17 5 3 9 -3 9 -12 0 -32 14 -78 25 -85 7 -5 7 -8 -2 -8 -8 0 -10 -5
-5 -12 4 -7 8 -20 8 -28 0 -8 4 -21 8 -27 5 -7 5 -17 2 -23 -3 -5 0 -10 7 -10
10 0 10 -2 -1 -9 -9 -6 -10 -10 -2 -16 7 -3 9 -15 6 -26 -4 -10 -3 -19 2 -19
4 0 9 -19 10 -41 2 -23 8 -49 15 -57 10 -13 10 -14 1 -8 -14 8 -18 -6 -6 -18
7 -7 10 -24 14 -93 1 -18 5 -33 8 -33 3 0 7 -21 7 -48 2 -72 12 -171 19 -182
3 -5 0 -10 -7 -10 -8 0 -9 -3 -3 -8 6 -4 10 -14 10 -22 -1 -8 3 -21 8 -27 6
-8 6 -13 -1 -13 -6 0 -9 -7 -8 -17 3 -18 46 -30 46 -12 0 6 5 7 13 2 19 -12
37 -12 37 -1 0 6 6 5 15 -2 8 -7 15 -8 15 -3 0 5 15 9 33 8 47 -1 59 4 51 27
-5 16 -3 19 7 12 11 -6 11 -4 0 10 -11 12 -11 20 -3 28 9 9 9 15 0 26 -9 10
-9 18 0 32 6 10 8 21 4 25 -12 12 -11 65 2 58 8 -4 8 -2 -1 7 -6 7 -8 23 -4
39 4 14 7 43 6 64 0 20 2 37 5 37 3 0 5 12 4 28 -1 15 3 35 8 46 7 14 7 16 -2
11 -9 -6 -9 -2 0 15 6 12 9 28 6 36 -3 8 -2 14 3 14 4 0 8 6 9 13 3 34 37 114
60 140 8 9 12 17 8 17 -4 0 -1 7 6 15 28 31 38 44 38 51 0 17 107 114 126 114
24 0 78 -39 82 -60 2 -8 8 -19 15 -25 7 -5 14 -19 15 -30 2 -11 7 -22 11 -25
3 -3 8 -18 10 -35 1 -16 8 -36 13 -42 6 -7 8 -13 4 -13 -3 0 -1 -11 4 -25 7
-17 6 -25 -1 -25 -8 0 -8 -4 -2 -12 6 -7 8 -35 6 -63 -2 -27 -5 -60 -6 -72 0
-13 -4 -23 -7 -23 -3 0 -6 -9 -7 -20 -1 -13 2 -18 10 -13 7 4 7 1 -1 -10 -8
-9 -11 -21 -8 -26 4 -5 2 -12 -3 -15 -5 -4 -8 -14 -6 -24 1 -9 -2 -23 -8 -29
-6 -9 -6 -13 2 -13 7 0 9 -4 6 -10 -6 -10 -15 -66 -19 -117 -1 -18 -5 -35 -8
-39 -4 -3 -4 -17 -2 -31 3 -14 1 -22 -5 -19 -13 9 0 -36 16 -52 7 -8 11 -17 8
-22 -5 -7 24 -21 72 -35 12 -3 24 -1 27 4 4 6 12 8 19 5 17 -6 64 47 61 69 -1
9 2 19 7 23 5 3 9 16 9 29 0 13 4 26 9 30 6 3 10 14 10 25 1 11 1 29 2 40 0
11 4 22 9 25 4 3 6 15 2 27 -3 14 -1 19 6 14 9 -5 9 0 2 19 -7 18 -7 24 1 20
7 -5 9 7 6 34 -2 22 -1 43 2 46 3 3 7 43 8 88 2 55 7 85 16 92 8 5 15 15 16
20 2 6 7 9 12 8 5 -2 9 5 9 14 0 9 3 13 6 10 4 -4 19 2 34 13 16 11 35 20 44
20 9 0 16 6 17 13 0 9 2 9 6 -1 2 -6 9 -10 14 -6 5 3 16 -2 25 -10 8 -9 12
-16 7 -16 -4 0 0 -5 10 -11 9 -5 17 -17 17 -24 0 -8 4 -15 10 -15 5 0 9 -3 9
-7 -3 -16 14 -74 22 -79 5 -3 7 -9 4 -14 -3 -5 0 -22 8 -37 8 -15 12 -34 10
-41 -3 -7 1 -19 7 -27 9 -11 10 -15 1 -15 -7 0 -9 -5 -4 -12 4 -7 8 -26 9 -41
2 -16 8 -36 16 -45 11 -13 11 -14 0 -8 -11 6 -12 0 -6 -31 4 -21 7 -57 8 -80
0 -24 5 -43 11 -43 6 0 7 -3 0 -8 -13 -9 -15 -42 -3 -42 7 0 6 -5 -1 -13 -6
-8 -8 -17 -4 -21 12 -12 12 -36 0 -36 -9 0 -9 -2 0 -8 14 -9 13 -54 -2 -64 -7
-5 -6 -8 1 -8 16 0 16 -310 0 -310 -7 0 -8 -3 -1 -8 14 -9 16 -102 2 -102 -5
0 -5 -5 2 -13 6 -8 8 -17 4 -21 -11 -10 -11 -46 0 -46 6 0 6 -5 0 -12 -6 -7
-10 -25 -9 -40 1 -16 -2 -28 -7 -28 -5 0 -7 -7 -3 -15 3 -8 0 -15 -7 -16 -9 0
-9 -2 1 -6 6 -2 10 -9 6 -14 -3 -5 -8 -21 -10 -36 -3 -15 -8 -31 -11 -37 -6
-10 -12 -43 -14 -78 0 -9 -7 -22 -15 -28 -7 -7 -11 -16 -8 -21 3 -5 1 -9 -5
-9 -5 0 -8 -9 -6 -20 2 -11 0 -18 -6 -15 -5 4 -9 -5 -9 -19 0 -13 -4 -26 -9
-28 -5 -2 -11 -10 -13 -18 -2 -8 -11 -23 -20 -34 -10 -10 -15 -22 -13 -26 2
-3 -9 -21 -25 -40 -16 -19 -27 -37 -24 -42 3 -4 0 -8 -6 -8 -5 0 -19 -15 -30
-32 -11 -18 -23 -33 -27 -33 -5 0 -7 -3 -5 -7 1 -5 -3 -8 -9 -8 -5 0 -7 -4 -4
-10 3 -5 1 -10 -5 -10 -6 0 -30 -20 -54 -45 -25 -25 -47 -45 -51 -45 -3 0 -16
-10 -28 -23 -12 -13 -36 -32 -54 -42 -18 -10 -29 -23 -26 -28 3 -6 1 -7 -5 -3
-6 3 -17 0 -25 -8 -8 -8 -17 -12 -21 -9 -3 4 -6 0 -6 -7 0 -7 -3 -11 -6 -7 -3
3 -15 -3 -27 -13 -11 -11 -24 -17 -29 -14 -4 3 -8 0 -8 -5 0 -6 -7 -11 -15
-11 -8 0 -15 -5 -15 -12 0 -6 -3 -8 -7 -5 -3 4 -12 2 -20 -4 -7 -6 -13 -8 -13
-5 0 4 -7 0 -16 -8 -8 -9 -20 -14 -25 -11 -5 4 -9 1 -9 -5 0 -6 -6 -10 -12 -9
-7 1 -26 -4 -43 -11 -16 -7 -33 -13 -37 -12 -5 1 -8 -2 -8 -7 0 -5 -11 -8 -25
-7 -15 2 -22 -1 -18 -7 4 -6 0 -8 -10 -4 -10 3 -17 3 -17 -1 0 -5 -37 -17 -82
-27 -46 -11 -90 -21 -98 -23 -8 -2 -25 -4 -37 -5 -13 0 -23 -6 -23 -11 0 -6
-5 -4 -10 4 -5 8 -10 10 -10 4 0 -6 -10 -10 -22 -9 -13 1 -29 -2 -35 -8 -9 -6
-13 -5 -13 4 0 9 -3 10 -8 4 -9 -13 -260 -17 -268 -4 -3 5 -12 5 -23 -1 -10
-5 -22 -6 -26 -2 -3 4 -19 8 -33 8 -15 1 -27 3 -27 4 0 1 -13 4 -30 6 -60 8
-71 10 -83 18 -7 4 -28 10 -45 13 -18 3 -33 9 -35 14 -2 5 -17 9 -33 9 -16 0
-29 5 -29 11 0 5 -4 7 -10 4 -5 -3 -10 -1 -10 5 0 6 -4 9 -9 5 -5 -3 -12 -1
-16 5 -3 5 -15 10 -26 10 -10 0 -19 4 -19 8 0 5 -16 14 -35 22 -19 8 -35 18
-35 24 0 5 -3 7 -6 3 -6 -5 -15 0 -49 31 -8 7 -15 11 -15 8 0 -3 -12 6 -26 19
-15 14 -31 25 -36 25 -5 0 -6 5 -2 12 4 7 3 8 -4 4 -10 -6 -164 139 -156 147
2 2 -10 18 -26 35 -16 18 -27 32 -24 32 5 0 -3 10 -36 49 -8 10 -16 24 -18 32
-2 7 -8 17 -14 20 -6 4 -7 12 -4 18 4 6 3 11 -3 11 -6 0 -13 11 -17 25 -3 14
-11 25 -16 25 -6 0 -8 6 -5 14 3 8 -1 17 -9 20 -8 3 -14 12 -14 21 0 8 -4 23
-9 33 -9 16 -21 47 -26 65 -2 4 -4 10 -5 15 -2 4 -4 12 -5 17 -1 6 -7 24 -14
40 -13 30 -23 69 -24 92 0 7 -7 15 -15 18 -11 4 -12 8 -2 20 9 11 9 15 1 15
-7 0 -9 5 -6 10 3 5 3 16 -2 23 -9 15 -15 43 -17 80 0 15 -3 27 -6 27 -3 0 -6
38 -6 84 0 50 4 82 9 79 5 -3 8 0 5 8 -6 17 44 69 66 69 9 0 16 3 16 8 0 4 31
8 70 9 l69 1 11 -34 c6 -18 12 -42 13 -53 1 -12 4 -21 7 -21 4 0 7 -6 7 -12 2
-34 14 -73 24 -77 8 -2 7 -6 -2 -12 -11 -7 -11 -9 -1 -9 7 0 11 -4 7 -9 -3 -5
1 -15 8 -23 8 -7 13 -23 12 -36 -1 -12 3 -22 8 -22 5 0 6 -7 3 -16 -3 -8 -2
-12 4 -9 6 3 11 1 11 -4 1 -6 3 -15 4 -21 1 -5 3 -12 4 -15 0 -3 1 -8 0 -11 0
-4 4 -10 9 -13 6 -3 12 -15 14 -26 1 -11 7 -23 13 -27 5 -4 11 -11 11 -15 4
-23 17 -53 23 -53 4 0 7 -10 8 -22 1 -11 6 -24 11 -27 5 -3 15 -21 23 -38 8
-18 18 -33 23 -33 4 0 5 -7 2 -15 -3 -9 1 -18 10 -22 8 -3 13 -12 10 -20 -3
-8 -2 -11 3 -8 9 5 27 -32 23 -47 -1 -5 5 -8 13 -8 8 0 14 -3 13 -7 -4 -16 14
-53 23 -47 5 3 8 2 7 -3 -3 -12 22 -55 43 -74 10 -9 16 -19 12 -23 -3 -3 -2
-6 3 -6 6 0 27 -16 48 -35 21 -19 46 -37 57 -40 10 -4 19 -11 19 -16 0 -5 7
-9 15 -9 9 0 33 -9 54 -20 21 -10 41 -16 45 -13 3 3 12 0 21 -7 12 -10 15 -10
15 1 0 11 2 11 10 -1 5 -8 10 -11 10 -6 0 5 6 3 13 -3 8 -6 16 -8 20 -5 3 3
36 7 74 10 60 3 97 8 113 14 3 1 8 2 13 1 4 0 7 4 7 10 0 5 4 7 10 4 14 -8
115 43 150 77 17 15 30 26 30 23 0 -2 10 6 23 18 13 12 22 25 20 30 -3 4 3 10
11 13 9 3 14 10 11 14 -3 5 1 13 10 17 8 5 16 17 18 28 6 32 18 55 26 50 4 -2
7 10 6 26 -1 18 4 33 12 36 10 4 11 9 2 19 -9 11 -9 14 0 14 8 0 10 11 7 30
-2 16 0 32 5 36 5 3 5 13 -1 24 -7 13 -7 21 1 26 8 5 8 9 -1 14 -6 4 -12 21
-12 39 -1 17 -5 34 -10 37 -4 3 -8 14 -8 25 0 10 -3 19 -7 19 -5 0 -17 18 -27
40 -11 22 -23 40 -28 40 -5 0 -6 5 -3 10 3 6 0 10 -7 10 -7 1 -26 19 -43 40
-16 21 -34 39 -39 40 -9 0 -14 4 -69 54 -30 28 -43 33 -31 14 5 -7 -9 2 -30
20 -20 18 -41 30 -46 27 -4 -3 -11 2 -14 11 -4 9 -13 14 -21 10 -8 -3 -15 -2
-15 3 0 9 -60 37 -72 33 -5 -1 -8 5 -8 14 0 14 -3 14 -15 4 -12 -10 -15 -9
-15 4 0 10 -4 15 -9 11 -5 -3 -12 -1 -16 5 -4 6 -11 8 -16 5 -5 -4 -9 -2 -9 3
0 5 -6 9 -12 9 -7 0 -30 8 -50 17 -20 10 -42 19 -50 20 -7 1 -23 8 -36 14 -12
7 -27 10 -32 7 -6 -3 -10 -3 -10 2 0 11 -51 34 -61 27 -5 -3 -9 0 -9 6 0 6 -4
8 -10 5 -5 -3 -10 -1 -10 4 0 6 -3 10 -7 10 -5 -1 -11 0 -15 1 -19 6 -25 8
-55 15 -18 4 -33 11 -33 15 0 3 -6 7 -12 7 -7 0 -36 7 -65 16 -28 8 -54 13
-57 10 -9 -9 -26 45 -20 62 4 8 2 15 -3 15 -5 0 -10 19 -11 43 -4 72 -9 104
-17 117 -6 9 -4 11 4 5 10 -5 11 -3 4 11 -5 11 -9 36 -7 57 1 22 -3 37 -10 37
-7 0 -6 4 2 9 8 4 14 12 14 16 0 4 -6 12 -14 16 -11 7 -11 9 1 9 11 0 11 3 0
17 -8 9 -9 14 -4 11 6 -4 10 21 10 65 0 40 4 85 8 100 6 22 5 27 -5 21 -10 -6
-10 -5 -2 7 6 8 10 24 9 37 -1 12 2 22 7 22 5 0 6 5 3 10 -3 6 -1 10 6 10 9 0
9 3 0 14 -9 10 -9 16 -1 21 6 4 9 13 6 21 -3 8 -1 14 4 14 5 0 7 7 4 15 -4 8
-1 15 6 15 6 0 9 4 6 8 -3 5 1 20 9 35 8 15 12 27 9 27 -3 0 4 13 15 29 12 16
21 34 21 41 0 6 5 8 12 4 8 -5 9 -2 5 10 -4 9 -3 15 2 11 6 -3 13 1 18 9 4 8
15 16 23 18 8 2 18 7 22 12 7 11 128 18 128 8 0 -4 12 -9 26 -10 14 -1 32 -9
40 -17 9 -8 20 -15 25 -15 5 0 9 -7 9 -15 0 -8 7 -15 15 -15 9 0 12 -6 8 -15
-3 -10 0 -15 8 -13 7 2 13 -6 13 -17 0 -11 6 -24 13 -28 8 -5 11 -12 8 -17 -3
-5 -1 -11 5 -15 5 -3 10 -17 10 -31 0 -13 4 -24 8 -24 4 0 9 -12 11 -27 6 -57
9 -78 11 -78 7 0 10 -93 8 -262 0 -20 -4 -30 -11 -26 -6 4 -7 1 -3 -6 11 -17
15 -61 6 -61 -4 0 -6 -15 -6 -32 1 -18 -1 -49 -5 -69 -3 -21 -2 -45 4 -54 7
-13 6 -16 -3 -10 -17 10 -4 -64 15 -85 8 -9 12 -20 8 -25 -5 -4 -3 -5 4 -2 6
4 13 1 15 -5 3 -8 24 -13 55 -13 42 0 56 5 77 27 15 14 28 36 29 47 1 12 4 21
7 21 3 0 6 10 7 23 2 32 11 141 13 147 5 15 4 48 -2 67 -4 12 -4 24 1 27 4 3
7 66 6 141 0 75 3 139 8 142 5 3 3 9 -4 14 -11 7 -11 9 -1 9 10 0 10 5 2 20
-8 15 -8 20 2 20 9 0 9 3 -2 10 -13 9 -13 10 0 10 13 0 13 1 0 10 -8 5 -10 10
-5 10 6 0 10 17 9 37 -1 21 2 46 7 55 7 13 6 18 -3 18 -9 0 -9 3 -2 8 16 11
53 89 46 97 -4 4 0 5 8 3 8 -1 14 3 13 10 -2 6 0 11 5 10 4 -2 9 2 12 7 10 21
60 56 71 49 8 -5 9 -3 4 5 -5 9 -2 12 11 9 11 -2 20 -13 22 -26z m-818 -1290
c8 -2 21 -4 28 -4 6 -1 12 -5 12 -10 0 -5 4 -7 9 -3 5 3 12 1 16 -5 4 -6 11
-8 16 -5 5 4 9 2 9 -4 0 -6 7 -8 15 -5 8 4 15 1 15 -5 0 -6 3 -10 8 -9 4 0 14
-1 22 -4 25 -10 55 -19 60 -19 3 -1 10 -5 17 -11 7 -5 17 -7 23 -3 5 3 10 1
10 -4 0 -6 7 -11 16 -11 8 0 13 -4 10 -8 -3 -4 7 -8 22 -8 15 1 26 -4 25 -10
-1 -7 3 -11 10 -11 20 2 97 -26 97 -35 0 -4 9 -8 20 -8 11 0 20 -4 20 -10 0
-5 9 -10 20 -10 11 0 20 -5 20 -11 0 -5 5 -7 10 -4 6 3 10 3 10 -2 0 -4 14
-14 30 -21 17 -8 37 -20 44 -28 8 -7 20 -15 27 -16 20 -5 149 -139 143 -150
-3 -5 0 -15 6 -23 13 -16 11 -113 -3 -132 -5 -7 -6 -13 -2 -13 4 0 2 -7 -5
-15 -7 -8 -10 -15 -6 -15 3 0 -2 -8 -11 -18 -10 -10 -29 -31 -43 -48 -29 -34
-67 -57 -80 -49 -6 4 -13 -1 -16 -10 -4 -9 -13 -14 -20 -11 -7 3 -16 1 -19 -4
-9 -15 -27 -12 -19 3 5 9 4 9 -6 0 -7 -6 -19 -9 -26 -6 -8 3 -14 1 -14 -5 0
-6 -13 -7 -37 -2 -20 5 -41 7 -45 4 -4 -3 -8 -2 -8 3 0 4 -12 9 -27 10 -15 0
-32 8 -37 16 -6 7 -15 15 -21 16 -5 1 -20 10 -32 21 -12 10 -25 15 -29 12 -4
-4 -4 -2 -1 4 4 6 -5 24 -18 40 -14 16 -25 34 -25 40 0 6 -7 17 -15 24 -8 7
-13 16 -10 20 3 4 -2 11 -11 14 -8 3 -12 10 -9 16 3 5 1 10 -4 10 -6 0 -11 9
-11 20 0 11 -4 20 -8 20 -5 0 -14 16 -22 35 -8 19 -17 35 -20 35 -4 0 -13 18
-20 40 -7 22 -18 40 -23 40 -6 0 -8 3 -4 6 3 3 -7 29 -21 57 -14 29 -25 55
-24 60 1 4 -3 7 -9 7 -5 0 -8 4 -5 9 3 4 -3 26 -13 47 -11 21 -17 42 -14 46 2
5 0 8 -4 8 -5 0 -10 10 -10 22 -1 13 -7 24 -13 26 -5 2 -7 8 -4 13 3 6 0 16
-6 24 -10 11 -10 15 -1 15 7 0 9 5 5 12 -5 7 -3 8 7 2 8 -4 21 -10 29 -12z"/>
</g>
</svg>
