<svg width="171" height="171" viewBox="0 0 171 171" fill="none" xmlns="http://www.w3.org/2000/svg">
<g clip-path="url(#clip0)">
<path d="M37.05 171H133.95C136.218 171 138.392 170.099 139.996 168.496C141.599 166.892 142.5 164.718 142.5 162.45V139.889C142.47 132.724 139.999 125.782 135.494 120.209C130.989 114.636 124.72 110.765 117.719 109.235L102.6 105.997V94.62C108.646 90.4713 113.474 84.7834 116.585 78.1441C116.631 78.0472 116.659 77.9503 116.702 77.8591C117.764 75.3639 118.479 72.7343 118.825 70.0444C120.868 68.8821 122.558 67.188 123.716 65.1421C124.874 63.0963 125.456 60.775 125.4 58.425C125.39 57.5004 125.295 56.5788 125.115 55.6719C126.778 48.193 127.814 40.5885 128.213 32.9374C128.428 28.696 127.772 24.4554 126.286 20.4772C124.799 16.499 122.513 12.8675 119.569 9.80684C116.611 6.68959 113.045 4.21126 109.093 2.52463C105.14 0.83799 100.884 -0.0212123 96.5865 -1.38211e-05H74.4135C70.1508 -0.0170726 65.9289 0.82915 62.0021 2.48765C58.0753 4.14615 54.5249 6.58258 51.565 9.65009C48.6439 12.6296 46.3568 16.1701 44.8418 20.0579C43.3267 23.9457 42.6151 28.1001 42.75 32.2705C43.0008 39.8857 43.4853 50.1058 44.0325 53.8479C44.3132 55.6519 44.8537 57.4057 45.637 59.0548C45.682 61.2937 46.3077 63.4825 47.4528 65.4069C48.5978 67.3314 50.223 68.9254 52.1692 70.033C52.5109 72.8061 53.255 75.5145 54.378 78.0729C57.4954 84.7386 62.3361 90.4511 68.4 94.62V105.994L53.2779 109.232C46.2775 110.763 40.0081 114.635 35.5037 120.208C30.9992 125.781 28.5289 132.723 28.5 139.889V162.45C28.5 164.718 29.4008 166.892 31.0042 168.496C32.6077 170.099 34.7824 171 37.05 171ZM116.525 114.807C122.253 116.06 127.382 119.227 131.068 123.787C134.754 128.347 136.775 134.026 136.8 139.889V162.45C136.8 163.206 136.5 163.931 135.965 164.465C135.431 165 134.706 165.3 133.95 165.3H119.7V136.8C119.7 136.044 119.4 135.319 118.865 134.785C118.331 134.25 117.606 133.95 116.85 133.95C116.094 133.95 115.369 134.25 114.835 134.785C114.3 135.319 114 136.044 114 136.8V165.3H100.545L107.67 136.683C107.988 135.529 107.934 134.304 107.514 133.183C107.094 132.062 106.331 131.103 105.333 130.442L102.577 128.603L106.835 126.477C107.537 126.126 108.16 125.633 108.663 125.03C109.166 124.427 109.539 123.726 109.758 122.972C109.977 122.218 110.039 121.427 109.938 120.648C109.837 119.869 109.576 119.119 109.172 118.446L105.581 112.461L116.525 114.807ZM100.035 123.505C99.1418 123.951 98.3815 124.624 97.8301 125.456C97.2788 126.289 96.9558 127.251 96.8934 128.248C96.8311 129.245 97.0316 130.24 97.4749 131.135C97.9182 132.029 98.5887 132.792 99.4194 133.346L102.158 135.244L94.6713 165.3H88.35V123.73L99.18 112.9L104.27 121.381L100.035 123.505ZM55.6548 13.6173C58.0857 11.1004 61.0009 9.10143 64.2247 7.74078C67.4485 6.38014 70.9143 5.68594 74.4135 5.69999H96.5865C100.113 5.68111 103.606 6.38472 106.851 7.76746C110.095 9.15019 113.022 11.1827 115.451 13.7398C117.86 16.2443 119.73 19.2157 120.947 22.4709C122.164 25.7261 122.7 29.196 122.524 32.6667C122.23 37.8831 121.659 43.0803 120.814 48.2362C119.931 47.5282 118.95 46.9522 117.902 46.5262L116.85 46.17V37.05C116.85 28.3917 110.138 22.8 99.75 22.8C99.2179 22.7971 98.6957 22.9432 98.2424 23.2217C97.7891 23.5002 97.4228 23.9001 97.185 24.376C95.2384 28.3005 91.485 28.5 85.5 28.5H71.8485C66.7063 28.5067 61.7529 30.4382 57.9636 33.9142C54.1742 37.3902 51.8234 42.159 51.3741 47.2815C50.6119 47.7748 49.9107 48.3564 49.285 49.0143C48.9801 44.9559 48.6723 38.854 48.45 32.091C48.3415 28.6848 48.924 25.292 50.1622 22.117C51.4005 18.942 53.2689 16.0507 55.6548 13.6173V13.6173ZM51.3 58.425C51.2222 57.0431 51.5514 55.6688 52.2469 54.4723C52.9425 53.2757 53.9738 52.3095 55.213 51.6933C55.7408 51.4811 56.193 51.1158 56.5115 50.6445C56.83 50.1732 57.0001 49.6173 57 49.0485C57.0045 45.1118 58.5704 41.3377 61.354 38.554C64.1377 35.7704 67.9118 34.2045 71.8485 34.2H85.5C90.8865 34.2 97.47 34.2 101.343 28.5598C105.165 28.8477 111.15 30.3667 111.15 37.05V46.1187C111.14 47.3189 111.504 48.4924 112.192 49.4758C112.88 50.4592 113.858 51.2035 114.989 51.6049L116.001 51.8899C117.203 52.4808 118.199 53.4206 118.859 54.5864C119.519 55.7522 119.812 57.09 119.7 58.425C119.779 59.8856 119.402 61.3347 118.621 62.5717C117.84 63.8088 116.695 64.7728 115.342 65.3305C114.783 65.499 114.289 65.8355 113.927 66.2943C113.565 66.7531 113.352 67.3121 113.319 67.8955C113.229 68.9998 113.07 70.0973 112.843 71.1816C108.69 67.4395 100.491 62.7 85.5 62.7C84.93 62.7 84.4027 62.7399 83.8441 62.7541L85.443 54.72C85.5328 54.3468 85.5463 53.9594 85.4826 53.5809C85.419 53.2025 85.2796 52.8407 85.0728 52.5174C84.866 52.1941 84.596 51.9159 84.279 51.6995C83.9621 51.4831 83.6047 51.333 83.2282 51.2581C82.8518 51.1832 82.4642 51.1851 82.0885 51.2637C81.7129 51.3423 81.3569 51.4959 81.0421 51.7154C80.7273 51.9349 80.46 52.2157 80.2564 52.541C80.0527 52.8663 79.9169 53.2294 79.857 53.6085L77.9532 63.1759C70.679 63.7316 63.7587 66.5397 58.1542 71.2101C57.9279 70.1248 57.7699 69.0263 57.6811 67.9212C57.6475 67.3378 57.4354 66.7788 57.0734 66.32C56.7115 65.8611 56.2172 65.5247 55.6576 65.3562C54.301 64.797 53.1524 63.829 52.3714 62.5868C51.5904 61.3446 51.2159 59.8899 51.3 58.425V58.425ZM60.2803 77.1666C62.3095 74.593 68.9187 68.4 85.5 68.4C102.081 68.4 108.693 74.5959 110.722 77.1694C108.522 81.3817 100.653 94.05 85.5 94.05C70.395 94.05 62.5261 81.4615 60.2803 77.1666ZM85.5 99.75C89.4032 99.7624 93.2727 99.0281 96.9 97.5868V107.12L85.5 118.52L74.1 107.12V97.5868C77.7273 99.0281 81.5968 99.7624 85.5 99.75ZM71.82 112.897L82.65 123.727V165.3H76.3287L68.8389 135.184L71.5948 133.346C72.4256 132.792 73.0963 132.03 73.5398 131.135C73.9834 130.241 74.1842 129.245 74.1221 128.249C74.0601 127.252 73.7374 126.29 73.1863 125.457C72.6352 124.624 71.8751 123.951 70.9821 123.505L66.727 121.379L71.82 112.897ZM34.2 139.889C34.2251 134.027 36.2468 128.349 39.9319 123.79C43.617 119.23 48.7455 116.063 54.472 114.809L65.4303 112.464L61.8393 118.449C61.4352 119.122 61.1747 119.872 61.074 120.651C60.9734 121.43 61.0349 122.222 61.2546 122.976C61.4743 123.73 61.8475 124.43 62.3508 125.033C62.854 125.636 63.4765 126.129 64.1791 126.48L68.4342 128.606L65.6811 130.442C64.6895 131.095 63.9284 132.043 63.5054 133.152C63.0825 134.262 63.019 135.476 63.3241 136.623L70.4548 165.3H57V136.8C57 136.044 56.6997 135.319 56.1653 134.785C55.6308 134.25 54.9059 133.95 54.15 133.95C53.3941 133.95 52.6692 134.25 52.1347 134.785C51.6003 135.319 51.3 136.044 51.3 136.8V165.3H37.05C36.2941 165.3 35.5692 165 35.0347 164.465C34.5003 163.931 34.2 163.206 34.2 162.45V139.889Z" fill="url(#paint0_linear)"/>
<path d="M71.2499 59.85C72.0058 59.85 72.7307 59.5497 73.2652 59.0153C73.7996 58.4808 74.0999 57.7559 74.0999 57V54.15C74.0999 53.3941 73.7996 52.6692 73.2652 52.1347C72.7307 51.6003 72.0058 51.3 71.2499 51.3C70.494 51.3 69.7691 51.6003 69.2346 52.1347C68.7002 52.6692 68.3999 53.3941 68.3999 54.15V57C68.3999 57.7559 68.7002 58.4808 69.2346 59.0153C69.7691 59.5497 70.494 59.85 71.2499 59.85Z" fill="url(#paint1_linear)"/>
<path d="M99.7499 59.85C100.506 59.85 101.231 59.5497 101.765 59.0153C102.3 58.4808 102.6 57.7559 102.6 57V54.15C102.6 53.3941 102.3 52.6692 101.765 52.1347C101.231 51.6003 100.506 51.3 99.7499 51.3C98.994 51.3 98.2691 51.6003 97.7346 52.1347C97.2002 52.6692 96.8999 53.3941 96.8999 54.15V57C96.8999 57.7559 97.2002 58.4808 97.7346 59.0153C98.2691 59.5497 98.994 59.85 99.7499 59.85Z" fill="url(#paint2_linear)"/>
<path d="M74.1 74.1C73.3441 74.1 72.6192 74.4002 72.0847 74.9347C71.5503 75.4692 71.25 76.1941 71.25 76.95V79.8C71.25 80.5558 71.5503 81.2808 72.0847 81.8152C72.6192 82.3497 73.3441 82.65 74.1 82.65C74.8559 82.65 75.5808 82.3497 76.1153 81.8152C76.6497 81.2808 76.95 80.5558 76.95 79.8V76.95C76.95 76.1941 76.6497 75.4692 76.1153 74.9347C75.5808 74.4002 74.8559 74.1 74.1 74.1Z" fill="url(#paint3_linear)"/>
<path d="M88.3499 79.8V76.95C88.3499 76.1941 88.0496 75.4692 87.5152 74.9347C86.9807 74.4002 86.2558 74.1 85.4999 74.1C84.744 74.1 84.0191 74.4002 83.4846 74.9347C82.9502 75.4692 82.6499 76.1941 82.6499 76.95V79.8C82.6499 80.5558 82.9502 81.2808 83.4846 81.8152C84.0191 82.3497 84.744 82.65 85.4999 82.65C86.2558 82.65 86.9807 82.3497 87.5152 81.8152C88.0496 81.2808 88.3499 80.5558 88.3499 79.8Z" fill="url(#paint4_linear)"/>
<path d="M96.9003 82.65C97.6561 82.65 98.3811 82.3497 98.9155 81.8152C99.45 81.2808 99.7503 80.5558 99.7503 79.8V76.95C99.7503 76.1941 99.45 75.4692 98.9155 74.9347C98.3811 74.4002 97.6561 74.1 96.9003 74.1C96.1444 74.1 95.4195 74.4002 94.885 74.9347C94.3506 75.4692 94.0503 76.1941 94.0503 76.95V79.8C94.0503 80.5558 94.3506 81.2808 94.885 81.8152C95.4195 82.3497 96.1444 82.65 96.9003 82.65Z" fill="url(#paint5_linear)"/>
</g>
<defs>
<linearGradient id="paint0_linear" x1="85.5" y1="-0.000396729" x2="85.5" y2="171" gradientUnits="userSpaceOnUse">
<stop stop-color="#EE87EA"/>
<stop offset="1" stop-color="#27A0D5"/>
</linearGradient>
<linearGradient id="paint1_linear" x1="71.2499" y1="51.3" x2="71.2499" y2="59.85" gradientUnits="userSpaceOnUse">
<stop stop-color="#EE87EA"/>
<stop offset="1" stop-color="#27A0D5"/>
</linearGradient>
<linearGradient id="paint2_linear" x1="99.7499" y1="51.3" x2="99.7499" y2="59.85" gradientUnits="userSpaceOnUse">
<stop stop-color="#EE87EA"/>
<stop offset="1" stop-color="#27A0D5"/>
</linearGradient>
<linearGradient id="paint3_linear" x1="74.1" y1="74.1" x2="74.1" y2="82.65" gradientUnits="userSpaceOnUse">
<stop stop-color="#EE87EA"/>
<stop offset="1" stop-color="#27A0D5"/>
</linearGradient>
<linearGradient id="paint4_linear" x1="85.4999" y1="74.1" x2="85.4999" y2="82.65" gradientUnits="userSpaceOnUse">
<stop stop-color="#EE87EA"/>
<stop offset="1" stop-color="#27A0D5"/>
</linearGradient>
<linearGradient id="paint5_linear" x1="96.9003" y1="74.1" x2="96.9003" y2="82.65" gradientUnits="userSpaceOnUse">
<stop stop-color="#EE87EA"/>
<stop offset="1" stop-color="#27A0D5"/>
</linearGradient>
<clipPath id="clip0">
<rect width="171" height="171" fill="white"/>
</clipPath>
</defs>
</svg>
