<svg width="362" height="362" viewBox="0 0 362 362" fill="none" xmlns="http://www.w3.org/2000/svg">
<path d="M338.23 152.327C339.487 144.251 340.122 136.075 340.122 127.956C340.122 119.639 339.06 111.373 336.965 103.388C336.221 100.556 333.322 98.8614 330.49 99.6052C327.657 100.348 325.964 103.247 326.706 106.08C328.572 113.187 329.517 120.546 329.517 127.956C329.517 135.534 328.922 143.167 327.749 150.708C310.741 150.745 296.612 163.269 294.06 179.58H254.347C252.669 179.58 251.089 180.376 250.089 181.724L234.057 203.335L218.249 181.75C217.076 180.149 215.11 179.336 213.146 179.645C211.185 179.954 209.561 181.332 208.937 183.216L192.602 232.511L174.582 106.361C174.229 103.898 172.212 102.01 169.731 101.823C167.242 101.632 164.972 103.199 164.255 105.581L143.896 173.167L130.123 154.362C129.128 153.003 127.546 152.198 125.861 152.193H125.846C124.167 152.193 122.588 152.987 121.587 154.336L102.86 179.581H41.7014C35.575 162.643 32.4846 145.371 32.4846 127.957C32.4846 80.4093 71.1676 41.7269 118.715 41.7269C140.549 41.7269 161.388 49.9122 177.393 64.7747C179.428 66.6646 182.576 66.6646 184.61 64.7747C200.615 49.9122 221.454 41.7269 243.289 41.7269C274.296 41.7269 303.077 58.5528 318.402 85.6385C319.843 88.1873 323.078 89.0845 325.628 87.6429C328.176 86.2005 329.074 82.9652 327.632 80.4163C310.43 50.0097 278.111 31.1214 243.289 31.1214C220.377 31.1214 198.444 39.1455 181.001 53.8136C163.559 39.1448 141.626 31.1214 118.714 31.1214C65.3184 31.1214 21.8784 74.5614 21.8784 127.957C21.8784 145.383 24.756 162.645 30.4639 179.581H5.30273C2.3735 179.581 0 181.955 0 184.884C0 187.812 2.3735 190.186 5.30273 190.186H34.4239C37.7753 198.351 41.7926 206.43 46.4717 214.403C59.245 236.168 76.9497 257.167 99.094 276.818C100.104 277.715 101.36 278.155 102.612 278.155C104.076 278.155 105.533 277.553 106.58 276.372C108.524 274.182 108.324 270.83 106.134 268.886C84.8232 249.975 67.8276 229.838 55.6193 209.035C51.9675 202.812 48.7441 196.526 45.9514 190.186H105.527C107.206 190.186 108.785 189.391 109.785 188.043L125.817 166.432L141.626 188.017C142.815 189.64 144.818 190.451 146.8 190.11C148.782 189.771 150.402 188.339 150.982 186.413L167.479 131.644L185.292 256.337C185.64 258.773 187.619 260.65 190.071 260.869C190.23 260.883 190.388 260.89 190.545 260.89C192.811 260.89 194.852 259.44 195.575 257.255L215.768 196.315L229.751 215.406C230.746 216.765 232.328 217.57 234.012 217.575C235.692 217.561 237.284 216.785 238.287 215.432L257.015 190.186H294.059C295.329 198.31 299.472 205.494 305.412 210.665C293.279 230.89 276.618 250.469 255.865 268.886C219.692 300.987 184.099 318.212 182.602 318.93L181 319.697L179.397 318.93C178.352 318.429 153.476 306.408 124.303 283.908C121.984 282.119 118.655 282.55 116.866 284.868C115.077 287.187 115.507 290.517 117.826 292.306C147.873 315.48 173.727 327.973 174.814 328.494L178.709 330.36C179.433 330.707 180.216 330.88 180.999 330.88C181.783 330.88 182.566 330.706 183.29 330.36L187.185 328.494C188.737 327.75 225.631 309.896 262.905 276.819C284.401 257.743 301.714 237.396 314.394 216.31C318.519 218.079 323.059 219.059 327.824 219.059C346.668 219.059 361.999 203.728 361.999 184.884C362 169.666 352.002 156.74 338.23 152.327V152.327ZM327.824 208.453C314.828 208.453 304.254 197.88 304.254 184.883C304.254 171.886 314.828 161.313 327.824 161.313C340.821 161.313 351.395 171.886 351.395 184.883C351.395 197.88 340.821 208.453 327.824 208.453Z" fill="url(#paint0_linear)"/>
<defs>
<linearGradient id="paint0_linear" x1="181" y1="31.1214" x2="181" y2="330.88" gradientUnits="userSpaceOnUse">
<stop stop-color="#EE87EA"/>
<stop offset="1" stop-color="#27A0D4"/>
</linearGradient>
</defs>
</svg>
