<svg width="170" height="170" viewBox="0 0 170 170" fill="none" xmlns="http://www.w3.org/2000/svg">
<g clip-path="url(#clip0)">
<path d="M117.47 54.3349C122.579 47.8981 125.14 39.8062 124.665 31.6021C124.19 23.398 120.712 15.6557 114.894 9.85154C111.825 6.72578 108.163 4.24429 104.122 2.5526C100.082 0.860917 95.7438 -0.00690093 91.3633 4.49029e-05H91.1225C86.7366 -0.0159388 82.3919 0.846517 78.3447 2.53655C74.2975 4.22657 70.6297 6.70995 67.5576 9.84021L62.333 15.0564L57.148 9.84871C54.0707 6.72087 50.4001 4.23865 46.3513 2.5475C42.3024 0.856345 37.9568 -0.00972018 33.569 4.49029e-05H33.45C29.051 -0.0365258 24.69 0.816276 20.6289 2.50724C16.5677 4.1982 12.8902 6.69245 9.81714 9.84021C3.53691 16.1359 0.0100098 24.6655 0.0100098 33.558C0.0100098 42.4506 3.53691 50.9801 9.81714 57.2759L55.1023 102.788L53.561 104.326C51.9209 105.967 50.9997 108.193 50.9997 110.513C50.9997 112.833 51.9209 115.058 53.561 116.699L104.329 167.45C105.971 169.085 108.195 170.003 110.512 170.003C112.83 170.003 115.053 169.085 116.696 167.45L167.45 116.697C169.086 115.054 170.005 112.831 170.005 110.513C170.005 108.195 169.086 105.971 167.45 104.329L117.47 54.3349ZM13.8235 53.2667C8.6044 48.0296 5.67552 40.9363 5.67924 33.5426C5.68295 26.1489 8.61897 19.0586 13.8433 13.8267C16.3942 11.2448 19.4317 9.19419 22.7801 7.79356C26.1284 6.39293 29.7213 5.67004 33.3508 5.66671H33.5491C37.1932 5.6565 40.8025 6.37458 44.1651 7.77879C47.5277 9.183 50.5758 11.245 53.1303 13.8437L60.327 21.0715C60.5904 21.335 60.9031 21.5439 61.2473 21.6864C61.5915 21.8288 61.9605 21.902 62.333 21.9017C63.084 21.9023 63.8045 21.6047 64.3361 21.0744L71.5753 13.8324C74.1254 11.2325 77.171 9.17039 80.5318 7.76785C83.8927 6.36531 87.5006 5.65085 91.1423 5.66671H91.3435C94.9787 5.66013 98.5786 6.3798 101.932 7.78349C105.285 9.18719 108.324 11.2466 110.871 13.8409C115.79 18.7488 118.693 25.3211 119.008 32.263C119.323 39.2048 117.026 46.0128 112.571 51.3457C111.121 50.9931 109.605 51.0112 108.163 51.3984C106.722 51.7856 105.401 52.5295 104.323 53.5614L59.103 98.7814L13.8235 53.2667ZM163.423 112.679L112.678 163.424C112.1 163.998 111.318 164.321 110.502 164.321C109.687 164.321 108.905 163.998 108.326 163.424L57.5673 112.69C56.9906 112.112 56.6668 111.329 56.6668 110.513C56.6668 109.696 56.9906 108.913 57.5673 108.335L61.0976 104.808L108.338 57.5677C108.624 57.2819 108.963 57.0552 109.336 56.9005C109.709 56.7459 110.11 56.6662 110.514 56.6662C110.918 56.6662 111.318 56.7459 111.691 56.9005C112.065 57.0552 112.404 57.2819 112.69 57.5677L163.432 108.335C164.008 108.913 164.331 109.696 164.331 110.511C164.331 111.327 164.008 112.11 163.432 112.687L163.423 112.679Z" fill="url(#paint0_linear)"/>
<path d="M110.5 124.667C108.259 124.667 106.067 125.331 104.204 126.577C102.34 127.822 100.887 129.592 100.029 131.663C99.1717 133.734 98.9472 136.013 99.3845 138.211C99.8218 140.409 100.901 142.429 102.486 144.014C104.071 145.599 106.091 146.678 108.289 147.116C110.488 147.553 112.766 147.328 114.837 146.471C116.908 145.613 118.678 144.16 119.923 142.296C121.169 140.433 121.833 138.242 121.833 136C121.833 132.994 120.639 130.112 118.514 127.986C116.389 125.861 113.506 124.667 110.5 124.667ZM110.5 141.667C109.379 141.667 108.284 141.334 107.352 140.712C106.42 140.089 105.694 139.204 105.265 138.169C104.836 137.133 104.724 135.994 104.942 134.895C105.161 133.795 105.701 132.786 106.493 131.993C107.286 131.201 108.295 130.661 109.395 130.442C110.494 130.224 111.633 130.336 112.669 130.765C113.704 131.194 114.589 131.92 115.212 132.852C115.834 133.784 116.167 134.879 116.167 136C116.167 137.503 115.57 138.944 114.507 140.007C113.444 141.07 112.003 141.667 110.5 141.667Z" fill="url(#paint1_linear)"/>
<path d="M110.5 73.6667C107.494 73.6667 104.612 74.8607 102.486 76.9861C100.361 79.1115 99.1667 81.9942 99.1667 85V107.667C99.1667 110.672 100.361 113.555 102.486 115.681C104.612 117.806 107.494 119 110.5 119C113.506 119 116.389 117.806 118.514 115.681C120.639 113.555 121.833 110.672 121.833 107.667V85C121.833 81.9942 120.639 79.1115 118.514 76.9861C116.389 74.8607 113.506 73.6667 110.5 73.6667ZM116.167 107.667C116.167 109.17 115.57 110.611 114.507 111.674C113.444 112.736 112.003 113.333 110.5 113.333C108.997 113.333 107.556 112.736 106.493 111.674C105.43 110.611 104.833 109.17 104.833 107.667V85C104.833 83.4971 105.43 82.0558 106.493 80.9931C107.556 79.9304 108.997 79.3333 110.5 79.3333C112.003 79.3333 113.444 79.9304 114.507 80.9931C115.57 82.0558 116.167 83.4971 116.167 85V107.667Z" fill="url(#paint2_linear)"/>
<path d="M93.4999 48.1667H79.9198C79.3611 48.1654 78.8078 48.2749 78.2918 48.4889C77.7758 48.7029 77.3074 49.0171 76.9136 49.4133L74.4401 51.884L71.8901 46.784C71.5461 46.0444 70.9878 45.4252 70.2875 45.0069C69.5872 44.5885 68.7774 44.3903 67.9631 44.438C67.1513 44.4565 66.3623 44.7096 65.6911 45.1666C65.0199 45.6236 64.4953 46.265 64.1806 47.0135L59.9589 56.8622L54.9836 40.2333C54.7158 39.3476 54.197 38.5585 53.4899 37.9616C52.7829 37.3647 51.918 36.9856 50.9999 36.8702C50.0807 36.7631 49.1501 36.9216 48.3181 37.3268C47.4861 37.732 46.7876 38.367 46.3051 39.1567L40.8963 48.1667H31.1666C30.4151 48.1667 29.6945 48.4652 29.1631 48.9965C28.6318 49.5279 28.3333 50.2486 28.3333 51C28.3333 51.7515 28.6318 52.4721 29.1631 53.0035C29.6945 53.5348 30.4151 53.8333 31.1666 53.8333H41.6981C42.4306 53.8299 43.1499 53.6377 43.7867 53.2755C44.4234 52.9132 44.956 52.393 45.3333 51.765L50.1187 43.7835L55.6154 62.0982C55.8613 62.9513 56.3681 63.706 57.0648 64.2564C57.7615 64.8067 58.6131 65.125 59.4999 65.1667C59.5849 65.1667 59.6727 65.1667 59.7577 65.1667C60.5997 65.1713 61.4241 64.9257 62.1262 64.4612C62.8284 63.9966 63.3768 63.3339 63.7018 62.5572L68.2039 52.0568L70.2609 56.1708C70.562 56.7723 71.0015 57.2936 71.5433 57.6921C72.0851 58.0906 72.7138 58.3548 73.3776 58.463C74.042 58.574 74.7233 58.5238 75.3642 58.3167C76.0052 58.1096 76.587 57.7517 77.0609 57.273L80.5062 53.8333H93.4999C94.2514 53.8333 94.972 53.5348 95.5034 53.0035C96.0347 52.4721 96.3333 51.7515 96.3333 51C96.3333 50.2486 96.0347 49.5279 95.5034 48.9965C94.972 48.4652 94.2514 48.1667 93.4999 48.1667Z" fill="url(#paint3_linear)"/>
</g>
<defs>
<linearGradient id="paint0_linear" x1="85.0073" y1="-0.00108337" x2="85.0073" y2="170.003" gradientUnits="userSpaceOnUse">
<stop stop-color="#EE87EA"/>
<stop offset="1" stop-color="#27A0D5"/>
</linearGradient>
<linearGradient id="paint1_linear" x1="110.5" y1="124.667" x2="110.5" y2="147.333" gradientUnits="userSpaceOnUse">
<stop stop-color="#EE87EA"/>
<stop offset="1" stop-color="#27A0D5"/>
</linearGradient>
<linearGradient id="paint2_linear" x1="110.5" y1="73.6667" x2="110.5" y2="119" gradientUnits="userSpaceOnUse">
<stop stop-color="#EE87EA"/>
<stop offset="1" stop-color="#27A0D5"/>
</linearGradient>
<linearGradient id="paint3_linear" x1="62.3333" y1="36.8376" x2="62.3333" y2="65.1667" gradientUnits="userSpaceOnUse">
<stop stop-color="#EE87EA"/>
<stop offset="1" stop-color="#27A0D5"/>
</linearGradient>
<clipPath id="clip0">
<rect width="170" height="170" fill="white"/>
</clipPath>
</defs>
</svg>
