<svg xmlns="http://www.w3.org/2000/svg" xmlns:xlink="http://www.w3.org/1999/xlink" viewBox="0 0 46.85 51.83"><defs><style>.cls-1{fill:none;stroke-width:2px;stroke:url(#Degradado_sin_nombre_19);}</style><linearGradient id="Degradado_sin_nombre_19" y1="25.92" x2="46.85" y2="25.92" gradientUnits="userSpaceOnUse"><stop offset="0" stop-color="#4fc4d3"/><stop offset="1" stop-color="#f99dff"/></linearGradient></defs><title>Recurso 2</title><g id="Capa_2" data-name="Capa 2"><g id="Capa_1-2" data-name="Capa 1"><path class="cls-1" d="M14.06,49.16a20.34,20.34,0,0,0,9.32,1.65c1,0,11.61-.6,18.08-9.32,4.36-5.87,4.38-12.12,4.39-17.81,0-6-.28-17-3.84-17.81-1.42-.33-3.25,1-4.11,2.19-.48.68-.65,1.33-1.1,5.21-.11,1-.49,4.38-.54,4.38s2.49-8-.2-13.69c0,0-1.2-2.62-3.09-2.36s-4.74,4.84-5.21,7.56a43.79,43.79,0,0,0-.55,9.31,105.91,105.91,0,0,0-1.64-13.7C24.84.86,23.78,1.09,23.18,1c-1.62-.21-4.43,3-4.46,6.5-.07,7.18-.75,11.79-.55,11.78s2-14-3.29-16.71a4.85,4.85,0,0,0-3.83-.27C5.82,4.46,6,18.36,9.13,28.34a55.27,55.27,0,0,0,3.7,8.4c1.83,4.12,5.16,4.7,8.08,3.65,2.51-.89,4-3.85,3.84-6.3-.28-4.6-6.3-7.24-10.42-9-3.61-1.58-9.4-4.12-12-1.64C.11,25.43,1.19,29.74,2,33,2.64,35.54,5.05,45.13,14.06,49.16Z"/></g></g></svg>
