<svg width="170" height="170" viewBox="0 0 170 170" fill="none" xmlns="http://www.w3.org/2000/svg">
<g clip-path="url(#clip0)">
<path d="M161.5 39.6667H124.023C121.519 28.05 111.718 17 99.1667 17H82.1667C75.8976 17.0085 69.8508 19.3235 65.1789 23.5037C60.507 27.6839 57.5366 33.4371 56.8338 39.6667H8.5C6.24566 39.6667 4.08365 40.5622 2.48959 42.1563C0.895533 43.7503 0 45.9123 0 48.1667L0 144.5C0 146.754 0.895533 148.916 2.48959 150.51C4.08365 152.104 6.24566 153 8.5 153H161.5C163.754 153 165.916 152.104 167.51 150.51C169.104 148.916 170 146.754 170 144.5V48.1667C170 45.9123 169.104 43.7503 167.51 42.1563C165.916 40.5622 163.754 39.6667 161.5 39.6667ZM133.294 95.0725L132.104 94.1205C131.517 93.6508 130.768 93.4336 130.021 93.5164C129.274 93.5993 128.59 93.9756 128.121 94.5625C127.651 95.1494 127.434 95.8988 127.516 96.6459C127.599 97.393 127.976 98.0765 128.562 98.5462L129.336 99.1667H126.083C125.204 99.1682 124.337 99.3737 123.55 99.767C122.764 100.16 122.079 100.731 121.55 101.433L117.473 106.873L116.623 103.473C116.319 102.244 115.612 101.152 114.614 100.371C113.617 99.5904 112.387 99.1664 111.121 99.1667H101.598C101.033 97.0016 99.8388 95.0529 98.1657 93.5674C96.4926 92.0819 94.4161 91.1266 92.1995 90.8225L85.7083 82.1667C85.3137 81.6405 85.0734 81.0148 85.0143 80.3597C84.9552 79.7047 85.0798 79.0461 85.3739 78.4578C85.668 77.8695 86.1202 77.3747 86.6797 77.0289C87.2392 76.6832 87.8839 76.5 88.5417 76.5C90.8883 76.5044 93.1769 75.771 95.0838 74.4033L116.215 59.3045C117.083 58.6987 118.017 58.1939 119 57.8V65.1667C119 65.9181 119.299 66.6388 119.83 67.1701C120.361 67.7015 121.082 68 121.833 68C122.585 68 123.305 67.7015 123.837 67.1701C124.368 66.6388 124.667 65.9181 124.667 65.1667V56.6667C126.865 56.6721 129.032 57.1866 130.998 58.1697C132.965 59.1528 134.677 60.5779 136 62.3333C137.323 64.0887 139.035 65.5138 141.002 66.497C142.968 67.4801 145.135 67.9945 147.333 68H164.333V73.6667H153C150.746 73.6667 148.584 74.5622 146.99 76.1563C145.396 77.7503 144.5 79.9123 144.5 82.1667V85C144.5 85.7514 144.201 86.4721 143.67 87.0035C143.139 87.5348 142.418 87.8333 141.667 87.8333C139.637 87.8413 137.676 88.5757 136.141 89.9035C134.605 91.2313 133.595 93.0648 133.294 95.0725V95.0725ZM85 107.667H82.6455C81.5996 107.667 80.5699 107.409 79.6482 106.915C78.7266 106.42 77.9419 105.705 77.3642 104.833H79.3333C80.0848 104.833 80.8054 104.535 81.3368 104.003C81.8682 103.472 82.1667 102.751 82.1667 102C82.1667 101.249 81.8682 100.528 81.3368 99.9965C80.8054 99.4652 80.0848 99.1667 79.3333 99.1667H77.2877C77.7722 98.3004 78.4808 97.5803 79.3392 97.0819C80.1975 96.5834 81.1741 96.3249 82.1667 96.3333H90.6667C92.1696 96.3333 93.6109 96.9303 94.6736 97.9931C95.7363 99.0558 96.3333 100.497 96.3333 102V119C96.3266 120.501 95.7274 121.938 94.6662 123C93.6049 124.061 92.1675 124.66 90.6667 124.667V113.333C90.6667 111.83 90.0696 110.389 89.0069 109.326C87.9442 108.264 86.5029 107.667 85 107.667ZM161.5 45.3333C162.251 45.3333 162.972 45.6318 163.503 46.1632C164.035 46.6945 164.333 47.4152 164.333 48.1667V62.3333H147.333C146.014 62.3296 144.714 62.0208 143.535 61.4309C142.355 60.8411 141.328 59.9862 140.533 58.9333C138.676 56.4808 136.278 54.4892 133.527 53.1134C130.775 51.7375 127.743 51.0144 124.667 51V45.3333H161.5ZM82.1667 22.6667H99.1667C108.352 22.6667 115.832 30.9088 118.204 39.6667H62.56C63.2407 34.9503 65.5968 30.6367 69.1972 27.515C72.7975 24.3933 77.4014 22.6723 82.1667 22.6667ZM59.5 48.1667C60.2514 48.1667 60.9721 47.8682 61.5035 47.3368C62.0348 46.8055 62.3333 46.0848 62.3333 45.3333H68V65.093C67.9985 66.615 67.3932 68.0742 66.317 69.1504C65.2408 70.2266 63.7816 70.8318 62.2597 70.8333C61.8241 70.8339 61.394 70.7361 61.0016 70.5472C60.6091 70.3583 60.2643 70.0832 59.993 69.7425L56.593 65.4925C55.1389 63.6678 53.9433 61.6513 53.04 59.5H53.8333C54.5848 59.5 55.3055 59.2015 55.8368 58.6701C56.3682 58.1388 56.6667 57.4181 56.6667 56.6667C56.6667 55.9152 56.3682 55.1945 55.8368 54.6632C55.3055 54.1318 54.5848 53.8333 53.8333 53.8333H51.3627C51.1225 52.4218 51.0012 50.9925 51 49.5607V45.3333H56.6667C56.6667 46.0848 56.9652 46.8055 57.4965 47.3368C58.0279 47.8682 58.7486 48.1667 59.5 48.1667ZM8.5 45.3333H45.3333V49.5607C45.3414 50.9907 45.4493 52.4184 45.6563 53.8333H32.1385C30.1541 53.8353 28.2052 54.3602 26.4882 55.355C24.7712 56.3498 23.3466 57.7794 22.3578 59.5H5.66667V48.1667C5.66667 47.4152 5.96518 46.6945 6.49653 46.1632C7.02788 45.6318 7.74855 45.3333 8.5 45.3333V45.3333ZM32.9318 83.9148C34.9272 85.2424 37.3678 85.724 39.7178 85.2539C42.0679 84.7838 44.1354 83.4004 45.4665 81.4073C45.5033 81.3508 45.5525 81.3036 45.6105 81.2692C45.6685 81.2348 45.7336 81.2142 45.8008 81.209C45.8676 81.2021 45.9351 81.2102 45.9983 81.2328C46.0616 81.2553 46.119 81.2917 46.1663 81.3393L47.8238 82.9968C48.355 83.5282 48.6534 84.2487 48.6534 85C48.6534 85.7513 48.355 86.4718 47.8238 87.0032L42.2563 92.5707C41.6589 93.1641 40.8516 93.498 40.0095 93.5C37.6649 93.5022 35.417 94.4346 33.7592 96.0925C32.1013 97.7504 31.1689 99.9983 31.1667 102.343L31.1298 106.361C28.3604 104.834 26.0894 102.542 24.5885 99.7591C23.0876 96.9759 22.4204 93.8192 22.6667 90.6667V85C22.6667 81.9942 21.4726 79.1115 19.3472 76.9861C17.2218 74.8607 14.3391 73.6667 11.3333 73.6667H5.66667V65.1667H20.4567L19.9183 67.3143C19.7367 68.0432 19.8519 68.8144 20.2387 69.4584C20.6255 70.1023 21.2522 70.5663 21.981 70.7483C22.2051 70.8055 22.4354 70.834 22.6667 70.8333C23.2982 70.8325 23.9113 70.6208 24.4088 70.2317C24.9062 69.8426 25.2593 69.2984 25.4122 68.6857L26.2933 65.1667H27.3105C27.722 65.1664 28.1287 65.2559 28.5021 65.4287C28.8756 65.6016 29.2069 65.8537 29.4731 66.1676C29.7392 66.4815 29.9338 66.8495 30.0433 67.2462C30.1527 67.6429 30.1745 68.0587 30.107 68.4647L29.0303 74.9105C28.7459 76.6276 28.9626 78.3904 29.6546 79.9874C30.3466 81.5845 31.4845 82.9481 32.9318 83.9148V83.9148ZM161.5 147.333H8.5C7.74855 147.333 7.02788 147.035 6.49653 146.503C5.96518 145.972 5.66667 145.251 5.66667 144.5V79.3333H11.3333C12.8362 79.3333 14.2776 79.9304 15.3403 80.9931C16.403 82.0558 17 83.4971 17 85V90.6667C16.7499 94.8442 17.6927 99.0068 19.7184 102.669C21.7441 106.331 24.7693 109.342 28.441 111.35C29.3086 111.824 30.2852 112.064 31.2738 112.044C32.2625 112.024 33.2287 111.746 34.0765 111.237C34.9215 110.739 35.6208 110.027 36.1046 109.174C36.5885 108.321 36.8397 107.356 36.8333 106.375V102.343C36.8341 101.501 37.169 100.693 37.7644 100.098C38.3599 99.5023 39.1674 99.1674 40.0095 99.1667C42.3535 99.1604 44.6005 98.2298 46.2627 96.577L51.8302 91.0095C53.4237 89.4155 54.3189 87.2539 54.3189 85C54.3189 82.7461 53.4237 80.5845 51.8302 78.9905L50.1727 77.333C49.5322 76.6926 48.7577 76.2024 47.9048 75.8976C47.052 75.5929 46.1422 75.4812 45.2409 75.5706C44.3397 75.6601 43.4696 75.9484 42.6933 76.4149C41.917 76.8813 41.2539 77.5142 40.7518 78.268C40.324 78.91 39.6889 79.3859 38.9526 79.6162C38.2163 79.8465 37.4233 79.8174 36.7059 79.5336C35.9885 79.2498 35.3901 78.7286 35.0106 78.0569C34.631 77.3852 34.4934 76.6036 34.6205 75.8427L35.6972 69.3968C36.0449 67.3926 35.6516 65.3304 34.5907 63.5948C33.5297 61.8593 31.8736 60.569 29.9313 59.9647C30.6285 59.6634 31.3791 59.5054 32.1385 59.5H46.9823C48.1395 62.9549 49.8924 66.1807 52.1617 69.0313L55.5617 73.2813C56.3633 74.288 57.3822 75.1003 58.5421 75.6577C59.7019 76.2151 60.9728 76.503 62.2597 76.5C65.2838 76.4962 68.1831 75.2932 70.3215 73.1548C72.4599 71.0164 73.6629 68.1172 73.6667 65.093V45.3333H119V51.7962C116.823 52.4036 114.766 53.3801 112.92 54.6833L91.8 69.7935C90.8503 70.4743 89.7101 70.8381 88.5417 70.8333C86.8316 70.8333 85.1553 71.3095 83.7006 72.2086C82.2459 73.1076 81.0703 74.394 80.3055 75.9236C79.5407 77.4531 79.217 79.1654 79.3705 80.8686C79.5241 82.5718 80.1489 84.1986 81.175 85.5667L85 90.6667H82.1667C79.6586 90.6523 77.2188 91.4832 75.2408 93.0253C73.2628 94.5674 71.8619 96.7308 71.264 99.1667H62.7923C60.8078 99.1681 58.8587 99.6927 57.1416 100.688C55.4245 101.682 53.9999 103.112 53.0117 104.833H49.5833C47.3808 104.834 45.2412 105.568 43.5019 106.919C41.7626 108.27 40.5227 110.162 39.9778 112.296C39.4328 114.43 39.6138 116.685 40.4922 118.705C41.3706 120.725 42.8964 122.395 44.829 123.451C45.2646 123.723 45.61 124.117 45.8218 124.584C46.0336 125.052 46.1022 125.571 46.019 126.078C45.7357 128.494 45.5288 131.155 45.4212 134.011C45.3834 135.008 45.5485 136.002 45.9064 136.933C46.2644 137.865 46.8078 138.713 47.5037 139.428C48.1868 140.139 49.007 140.704 49.9148 141.089C50.8226 141.474 51.799 141.67 52.785 141.667C54.5091 141.664 56.1775 141.056 57.4997 139.95C58.822 138.843 59.7143 137.308 60.0213 135.612C60.5191 132.644 61.3331 129.739 62.4495 126.945C64.2785 122.642 65.2034 118.009 65.1667 113.333C65.1639 111.691 64.6853 110.084 63.7887 108.708C62.8922 107.332 61.6161 106.245 60.1148 105.578C60.9301 105.108 61.8512 104.852 62.7923 104.833H71.213C71.9263 107.306 73.4308 109.476 75.4959 111.011C77.5609 112.547 80.0724 113.362 82.6455 113.333H85V124.667C84.9981 125.411 85.1446 126.149 85.4312 126.836C85.7177 127.524 86.1385 128.147 86.6688 128.67C87.2009 129.2 87.8325 129.62 88.5273 129.906C89.2222 130.191 89.9665 130.336 90.7177 130.333H90.7573C93.7446 130.301 96.5989 129.093 98.7028 126.972C100.807 124.851 101.991 121.987 102 119V104.833H111.123L112.291 109.511C112.517 110.439 113.005 111.282 113.695 111.942C114.385 112.601 115.25 113.05 116.186 113.234C116.522 113.302 116.864 113.336 117.206 113.336C117.987 113.337 118.757 113.154 119.454 112.803C120.151 112.452 120.756 111.943 121.221 111.316L126.083 104.833H130.333C131.913 104.827 133.459 104.378 134.796 103.536L139.539 107.329C140.204 107.858 140.742 108.53 141.11 109.295C141.479 110.061 141.669 110.9 141.667 111.75V116.167H140.25C137.62 116.167 135.098 117.211 133.238 119.071C131.378 120.931 130.333 123.453 130.333 126.083C130.333 128.713 131.378 131.236 133.238 133.095C135.098 134.955 137.62 136 140.25 136H148.75C151.38 136 153.902 134.955 155.762 133.095C157.622 131.236 158.667 128.713 158.667 126.083C158.667 123.453 157.622 120.931 155.762 119.071C153.902 117.211 151.38 116.167 148.75 116.167H147.333V111.75C147.337 110.05 146.957 108.371 146.221 106.839C145.485 105.307 144.413 103.96 143.083 102.901L138.335 99.1015C138.655 98.2134 138.824 97.2775 138.833 96.3333C138.833 95.5819 139.132 94.8612 139.663 94.3299C140.195 93.7985 140.915 93.5 141.667 93.5C143.921 93.5 146.083 92.6045 147.677 91.0104C149.271 89.4163 150.167 87.2543 150.167 85V82.1667C150.167 81.4152 150.465 80.6945 150.997 80.1632C151.528 79.6318 152.249 79.3333 153 79.3333H164.333V144.5C164.333 145.251 164.035 145.972 163.503 146.503C162.972 147.035 162.251 147.333 161.5 147.333ZM47.549 118.479C46.7212 118.026 46.0676 117.311 45.6913 116.445C45.3149 115.58 45.2371 114.614 45.4702 113.7C45.7034 112.786 46.2341 111.975 46.9788 111.396C47.7235 110.816 48.6398 110.501 49.5833 110.5H51.0368C51.032 110.87 51.1007 111.238 51.239 111.581C51.3774 111.925 51.5826 112.238 51.8428 112.501C52.1029 112.765 52.4129 112.974 52.7546 113.117C53.0963 113.26 53.463 113.333 53.8333 113.333C54.4277 113.333 55.007 113.145 55.489 112.798C55.971 112.45 56.3315 111.959 56.5193 111.395L56.8027 110.528C57.5254 110.563 58.2075 110.873 58.7091 111.395C59.2106 111.916 59.4936 112.61 59.5 113.333C59.5296 117.236 58.7582 121.103 57.2333 124.695C55.9455 127.878 55.0069 131.192 54.434 134.578C54.3499 134.994 54.1134 135.363 53.7709 135.613C53.4283 135.864 53.0045 135.977 52.5828 135.931C52.161 135.885 51.7718 135.682 51.4915 135.364C51.2112 135.045 51.0601 134.634 51.068 134.209C51.17 131.526 51.3513 129.016 51.6347 126.752C51.8601 125.122 51.5912 123.463 50.8628 121.988C50.1344 120.513 48.98 119.29 47.549 118.479V118.479ZM144.5 124.667C145.251 124.667 145.972 124.368 146.503 123.837C147.035 123.305 147.333 122.585 147.333 121.833H148.75C149.877 121.833 150.958 122.281 151.755 123.078C152.552 123.875 153 124.956 153 126.083C153 127.211 152.552 128.292 151.755 129.089C150.958 129.886 149.877 130.333 148.75 130.333H140.25C139.123 130.333 138.042 129.886 137.245 129.089C136.448 128.292 136 127.211 136 126.083C136 124.956 136.448 123.875 137.245 123.078C138.042 122.281 139.123 121.833 140.25 121.833H141.667C141.667 122.585 141.965 123.305 142.497 123.837C143.028 124.368 143.749 124.667 144.5 124.667Z" fill="url(#paint0_linear)"/>
<path d="M67.9998 90.6667H70.8332C71.5846 90.6667 72.3053 90.3682 72.8366 89.8368C73.368 89.3055 73.6665 88.5848 73.6665 87.8333V82.1667C73.6665 81.4152 73.368 80.6946 72.8366 80.1632C72.3053 79.6318 71.5846 79.3333 70.8332 79.3333C70.0817 79.3333 69.3611 79.6318 68.8297 80.1632C68.2983 80.6946 67.9998 81.4152 67.9998 82.1667V85C67.2484 85 66.5277 85.2985 65.9964 85.8299C65.465 86.3612 65.1665 87.0819 65.1665 87.8333C65.1665 88.5848 65.465 89.3055 65.9964 89.8368C66.5277 90.3682 67.2484 90.6667 67.9998 90.6667Z" fill="url(#paint1_linear)"/>
</g>
<defs>
<linearGradient id="paint0_linear" x1="85" y1="17" x2="85" y2="153" gradientUnits="userSpaceOnUse">
<stop stop-color="#EE87EA"/>
<stop offset="1" stop-color="#27A0D5"/>
</linearGradient>
<linearGradient id="paint1_linear" x1="69.4165" y1="79.3333" x2="69.4165" y2="90.6667" gradientUnits="userSpaceOnUse">
<stop stop-color="#EE87EA"/>
<stop offset="1" stop-color="#27A0D5"/>
</linearGradient>
<clipPath id="clip0">
<rect width="170" height="170" fill="white"/>
</clipPath>
</defs>
</svg>
