<svg width="114" height="170" viewBox="0 0 114 170" fill="none" xmlns="http://www.w3.org/2000/svg">
<path d="M20.1667 161.5V164.333C20.1667 165.836 20.7637 167.278 21.8264 168.34C22.8891 169.403 24.3305 170 25.8334 170H108C108.784 170 109.56 169.837 110.278 169.521C110.996 169.205 111.64 168.744 112.171 168.167C112.708 167.578 113.118 166.884 113.373 166.128C113.628 165.373 113.723 164.572 113.653 163.778C112.647 153.368 106.192 148.421 99.9505 143.639C97.0508 141.263 94.7281 138.26 93.1575 134.857C91.587 131.453 90.8096 127.737 90.8838 123.99C90.8574 119.492 91.4737 115.013 92.7142 110.69L92.734 110.647C94.0236 106.104 96.1238 101.83 98.9333 98.0333C106.938 86.8015 111.111 73.2895 110.833 59.5C110.818 45.9786 105.44 33.0152 95.8792 23.4541C86.3181 13.893 73.3548 8.515 59.8333 8.50001C32.2339 8.50001 24.87 3.00334 23.2635 1.30901C22.8065 0.833061 22.245 0.470062 21.6234 0.24876C21.0017 0.0274584 20.3371 -0.0460679 19.6822 0.0340051C19.0207 0.115728 18.3873 0.35028 17.8321 0.719102C17.2769 1.08792 16.8151 1.58089 16.4834 2.15901C13.0846 8.52338 11.4233 15.6711 11.6667 22.882C11.6882 25.6897 12.3196 28.4592 13.5172 30.9987C14.7148 33.5382 16.45 35.7872 18.6027 37.5898C15.9193 41.5464 14.4897 46.2194 14.5 51C14.5453 53.8021 15.0232 56.5803 15.9167 59.2365C16.3608 60.4664 16.5151 61.7823 16.3677 63.0816C16.2203 64.3809 15.7751 65.6287 15.0667 66.7278C12.2819 70.4162 8.69775 73.4259 4.58336 75.531C2.95538 76.4029 1.67587 77.807 0.958555 79.5087C0.241243 81.2105 0.129571 83.1068 0.642191 84.881C1.1655 86.5709 2.22024 88.0468 3.64959 89.0892C5.07893 90.1316 6.80654 90.6848 8.57552 90.6667C8.65486 90.6667 8.83052 90.8083 8.83619 90.6667V92.9333C7.42009 96.7161 6.56111 100.685 6.28619 104.714C6.28619 104.76 6.26069 104.799 6.26069 104.848C6.26069 104.896 6.26069 104.879 6.26069 104.896C6.11336 106.601 6.00002 108.432 6.00002 110.5C6.00002 122.748 13.1457 130.333 19.77 130.333C25.1528 130.266 30.5107 129.59 35.7415 128.319C37.9767 131.728 39.3988 135.606 39.898 139.652C34.3504 141.715 20.1667 148.248 20.1667 161.5ZM45.6667 141.647C45.5804 136.433 44.1371 131.332 41.479 126.845C42.227 126.619 43.0203 126.361 43.8505 126.078L43.9809 126.032C56.6747 121.775 67.7627 113.738 75.7567 102.997C78.3094 107.03 82.1221 110.106 86.6027 111.75C85.6726 115.767 85.2068 119.877 85.2143 124.001C85.2273 129.135 86.4575 134.193 88.8042 138.76C76.737 146.951 60.5587 149.274 51.6875 149.92C50.9236 149.98 50.1557 149.879 49.433 149.624C48.7104 149.37 48.049 148.967 47.4913 148.441C46.9168 147.909 46.4582 147.265 46.1443 146.548C45.8303 145.83 45.6677 145.056 45.6667 144.273V141.647ZM45.0037 95.8658L66.8458 76.0183C67.2845 76.3197 67.8013 76.487 68.3333 76.5C69.0848 76.5 69.8055 76.2015 70.3368 75.6701C70.8682 75.1388 71.1667 74.4181 71.1667 73.6667V70.8333C71.1652 69.9979 71.3484 69.1725 71.7032 68.4162C72.058 67.6599 72.5756 66.9914 73.219 66.4586C73.8625 65.9257 74.6157 65.5418 75.4249 65.3341C76.2341 65.1265 77.0792 65.1003 77.8997 65.2575C78.7202 65.4147 79.4957 65.7514 80.1709 66.2434C80.846 66.7355 81.404 67.3707 81.8049 68.1036C82.2058 68.8365 82.4397 69.649 82.4898 70.4829C82.5399 71.3168 82.4051 72.1515 82.0948 72.9272C80.64 76.3314 79.8172 79.9721 79.6667 83.6712C79.6566 84.0224 79.6062 84.3713 79.5165 84.711C79.3267 85.4283 78.9508 86.0827 78.427 86.608C77.9031 87.1334 77.2497 87.5111 76.533 87.703C75.9429 87.8461 75.3299 87.8683 74.731 87.7682H74.6913C73.8518 87.6239 73.075 87.2308 72.4617 86.6397C71.8483 86.0486 71.4268 85.2868 71.2517 84.4532C71.0953 83.7253 70.6588 83.0883 70.0365 82.6797C69.4142 82.2711 68.6561 82.1239 67.9261 82.2698C67.1961 82.4157 66.5529 82.8431 66.1355 83.4595C65.7181 84.0759 65.56 84.8318 65.6955 85.5638C66.0303 87.1669 66.757 88.6622 67.8106 89.916C68.8642 91.1698 70.2119 92.1432 71.7333 92.7492C72.0243 94.2293 72.4181 95.6872 72.912 97.1125C66.3105 107.13 56.8036 114.889 45.6667 119.348V99.1667C45.6671 98.033 45.4407 96.9107 45.0008 95.8658H45.0037ZM20.5974 6.51667C25.3545 10.2708 36.0334 14.1667 59.8333 14.1667C71.8524 14.1802 83.3752 18.9607 91.8739 27.4594C100.373 35.9581 105.153 47.481 105.167 59.5C105.442 72.0632 101.667 84.3814 94.4 94.6333C91.7508 98.1854 89.6549 102.118 88.1837 106.298C86.0664 105.429 84.1466 104.141 82.5398 102.512C80.933 100.882 79.6724 98.9444 78.8337 96.815C78.3455 95.665 77.9467 94.479 77.6408 93.2677L77.8193 93.228C79.5615 92.8054 81.1547 91.914 82.4264 90.6503C83.698 89.3867 84.5994 87.7991 85.033 86.0597C85.226 85.2857 85.3268 84.4915 85.3333 83.6938C85.4905 80.697 86.1814 77.7524 87.3733 74.9983C88.3031 72.6536 88.4241 70.0658 87.7172 67.6446C87.0103 65.2234 85.5159 63.1072 83.4706 61.6311C81.4254 60.1549 78.9462 59.4032 76.4256 59.495C73.9049 59.5868 71.487 60.5169 69.5545 62.1378C67.7223 63.6672 66.4227 65.7387 65.8428 68.0538L59.8333 68.1757V51C59.8334 47.2482 58.3451 43.6495 55.6951 40.9937C53.045 38.3378 49.4497 36.8416 45.6978 36.8333H31.6984C29.0057 36.8263 26.3697 36.0592 24.0937 34.6205C22.057 33.3998 20.3665 31.6782 19.1832 29.6196C17.9998 27.5609 17.363 25.2337 17.3334 22.8593C17.1766 17.2355 18.2924 11.6489 20.5974 6.51667V6.51667ZM8.57836 85C8.04297 85.0195 7.51506 84.8698 7.06953 84.5723C6.62401 84.2748 6.28351 83.8445 6.09636 83.3425C5.9301 82.8082 5.95576 82.2326 6.16892 81.7153C6.38207 81.1979 6.76932 80.7713 7.26369 80.5092C12.1712 77.98 16.4354 74.3622 19.7304 69.9323C20.9368 68.1167 21.7068 66.0465 21.9801 63.8838C22.2534 61.721 22.0226 59.5244 21.3057 57.4657C20.5993 55.3809 20.2152 53.2006 20.1667 51C20.1383 47.3006 21.2601 43.6839 23.3769 40.6498C25.984 41.8619 28.8233 42.4932 31.6984 42.5H45.6978C47.9468 42.5083 50.1008 43.4074 51.6881 45.0006C53.2754 46.5938 54.1667 48.7511 54.1667 51V68.1728C54.1689 69.6297 54.7489 71.0262 55.7793 72.0561C56.8097 73.086 58.2065 73.6652 59.6634 73.6667H60.9978L41.1504 91.7008C39.929 91.0305 38.5599 90.675 37.1667 90.6667H14.5C14.4274 89.1431 13.7725 87.7057 12.6705 86.6511C11.5685 85.5966 10.1036 85.0055 8.57836 85V85ZM13.395 119H20.1667C20.9181 119 21.6388 118.701 22.1702 118.17C22.7015 117.639 23 116.918 23 116.167C23 115.415 22.7015 114.695 22.1702 114.163C21.6388 113.632 20.9181 113.333 20.1667 113.333H11.8594C11.7403 112.393 11.676 111.447 11.6667 110.5C11.6667 109.505 11.695 108.568 11.7347 107.667H23C23.7515 107.667 24.4721 107.368 25.0035 106.837C25.5348 106.305 25.8334 105.585 25.8334 104.833C25.8334 104.082 25.5348 103.361 25.0035 102.83C24.4721 102.299 23.7515 102 23 102H12.2957C12.5822 100.079 13.0208 98.1845 13.6075 96.3333H37.1667C37.9181 96.3333 38.6388 96.6318 39.1702 97.1632C39.7015 97.6945 40 98.4152 40 99.1667V121.372C38.6117 121.794 37.3707 122.125 36.3535 122.363H36.3394C30.9269 123.784 25.3648 124.557 19.77 124.667C18.305 124.358 16.9456 123.673 15.8254 122.679C14.7052 121.685 13.8628 120.418 13.3809 119H13.395ZM40.1615 145.681C40.4754 148.413 41.7836 150.934 43.8367 152.763C45.8897 154.591 48.5441 155.601 51.2937 155.598C51.577 155.598 51.8462 155.598 52.1182 155.567C61.5248 154.881 78.7062 152.396 91.8585 143.542C93.2142 145.257 94.7747 146.8 96.5052 148.135C103.166 153.235 107.272 156.746 108.003 164.33H25.8334V161.5C25.8334 152.955 34.9765 147.874 40.1474 145.681H40.1615Z" fill="url(#paint0_linear)"/>
<defs>
<linearGradient id="paint0_linear" x1="57.0002" y1="0.00259399" x2="57.0002" y2="170" gradientUnits="userSpaceOnUse">
<stop stop-color="#EE87EA"/>
<stop offset="0.515625" stop-color="#8794DF" stop-opacity="0.515625"/>
<stop offset="1" stop-color="#27A0D4"/>
</linearGradient>
</defs>
</svg>
