<svg width="170" height="170" viewBox="0 0 170 170" fill="none" xmlns="http://www.w3.org/2000/svg">
<path d="M39.8438 77.0312V87.6562H29.2188C28.8699 87.6562 28.5245 87.7248 28.2021 87.8583C27.8798 87.9917 27.587 88.1874 27.3403 88.434C27.0936 88.6807 26.898 88.9736 26.7645 89.2959C26.6311 89.6182 26.5624 89.9637 26.5625 90.3125V106.25C26.5624 106.599 26.6311 106.944 26.7645 107.267C26.898 107.589 27.0936 107.882 27.3403 108.128C27.587 108.375 27.8798 108.571 28.2021 108.704C28.5245 108.838 28.8699 108.906 29.2188 108.906H39.8438V119.531C39.8437 119.88 39.9123 120.226 40.0458 120.548C40.1792 120.87 40.3749 121.163 40.6215 121.41C40.8682 121.656 41.1611 121.852 41.4834 121.985C41.8057 122.119 42.1512 122.188 42.5 122.188H58.4375C58.7863 122.188 59.1318 122.119 59.4541 121.985C59.7764 121.852 60.0693 121.656 60.316 121.41C60.5626 121.163 60.7583 120.87 60.8917 120.548C61.0252 120.226 61.0938 119.88 61.0938 119.531V108.906H71.7188C72.0676 108.906 72.4131 108.838 72.7354 108.704C73.0577 108.571 73.3505 108.375 73.5972 108.128C73.8439 107.882 74.0395 107.589 74.173 107.267C74.3064 106.944 74.3751 106.599 74.375 106.25V90.3125C74.3751 89.9637 74.3064 89.6182 74.173 89.2959C74.0395 88.9736 73.8439 88.6807 73.5972 88.434C73.3505 88.1874 73.0577 87.9917 72.7354 87.8583C72.4131 87.7248 72.0676 87.6562 71.7188 87.6562H61.0938V77.0312C61.0938 76.6824 61.0252 76.3369 60.8917 76.0146C60.7583 75.6923 60.5626 75.3995 60.316 75.1528C60.0693 74.9061 59.7764 74.7105 59.4541 74.577C59.1318 74.4436 58.7863 74.3749 58.4375 74.375H42.5C42.1512 74.3749 41.8057 74.4436 41.4834 74.577C41.1611 74.7105 40.8682 74.9061 40.6215 75.1528C40.3749 75.3995 40.1792 75.6923 40.0458 76.0146C39.9123 76.3369 39.8437 76.6824 39.8438 77.0312V77.0312ZM45.1562 90.3125V79.6875H55.7812V90.3125C55.7812 90.6613 55.8498 91.0068 55.9833 91.3291C56.1167 91.6514 56.3124 91.9443 56.559 92.191C56.8057 92.4376 57.0986 92.6333 57.4209 92.7667C57.7432 92.9002 58.0887 92.9688 58.4375 92.9688H69.0625V103.594H58.4375C58.0887 103.594 57.7432 103.662 57.4209 103.796C57.0986 103.929 56.8057 104.125 56.559 104.372C56.3124 104.618 56.1167 104.911 55.9833 105.233C55.8498 105.556 55.7812 105.901 55.7812 106.25V116.875H45.1562V106.25C45.1563 105.901 45.0877 105.556 44.9542 105.233C44.8208 104.911 44.6251 104.618 44.3785 104.372C44.1318 104.125 43.8389 103.929 43.5166 103.796C43.1943 103.662 42.8488 103.594 42.5 103.594H31.875V92.9688H42.5C42.8488 92.9688 43.1943 92.9002 43.5166 92.7667C43.8389 92.6333 44.1318 92.4376 44.3785 92.191C44.6251 91.9443 44.8208 91.6514 44.9542 91.3291C45.0877 91.0068 45.1563 90.6613 45.1562 90.3125Z" fill="url(#paint0_linear)"/>
<path d="M98.778 42.5934C98.1673 42.4852 97.538 42.589 96.9944 42.8877C96.4509 43.1864 96.0258 43.6619 95.7897 44.2354C95.7651 44.2976 93.0453 50.4688 77.0312 50.4688C59.9381 50.4688 52.4078 43.3379 52.3467 43.2783C51.8493 42.7853 51.1781 42.5077 50.4778 42.5053C49.7775 42.5028 49.1044 42.7758 48.6036 43.2653C48.5297 43.3379 40.9994 50.4688 23.9062 50.4688C7.91563 50.4688 5.18149 44.3158 5.17631 44.3158C4.97691 43.7173 4.57102 43.2093 4.03129 42.8827C3.49155 42.5562 2.85322 42.4324 2.23054 42.5335C1.60786 42.6346 1.04148 42.954 0.632799 43.4345C0.224114 43.9151 -0.000203325 44.5254 1.3829e-07 45.1563V111.562C1.3829e-07 112.722 0.562882 140.161 49.5064 159.193C50.1251 159.436 50.8124 159.436 51.4311 159.193C100.375 140.161 100.938 112.722 100.938 111.562V45.1563C100.932 44.5444 100.714 43.9535 100.32 43.4856C99.9254 43.0177 99.3801 42.7021 98.778 42.5934V42.5934ZM95.625 111.544C95.0284 116.824 93.0267 121.846 89.8287 126.089C84.6187 133.728 73.5696 144.701 50.4688 153.865C27.3679 144.701 16.3188 133.728 11.1088 126.089C7.91519 121.851 5.91388 116.835 5.3125 111.562V51.6801C8.79883 53.8409 14.538 55.7813 23.9062 55.7813C38.4793 55.7813 46.9695 51.0809 50.4688 48.5674C53.968 51.0809 62.4582 55.7813 77.0312 55.7813C86.3995 55.7813 92.1387 53.8409 95.625 51.6801V111.544Z" fill="url(#paint1_linear)"/>
<path d="M52.1691 56.396C51.6915 55.9988 51.09 55.7813 50.4688 55.7813C49.8475 55.7813 49.246 55.9988 48.7684 56.396C34.242 68.4996 14.4083 61.3324 14.2099 61.2623C13.8082 61.1129 13.3763 61.0629 12.9511 61.1165C12.5259 61.17 12.1199 61.3256 11.7678 61.57C11.4157 61.8143 11.1279 62.1402 10.9289 62.5198C10.7299 62.8993 10.6256 63.3214 10.625 63.75V108.906C10.625 109.032 10.6341 109.158 10.6522 109.282C10.769 110.099 13.9194 129.495 49.3559 145.85C49.7049 146.011 50.0846 146.094 50.4688 146.094C50.8529 146.094 51.2326 146.011 51.5816 145.85C87.0181 129.495 90.1685 110.099 90.2853 109.282C90.3034 109.158 90.3125 109.032 90.3125 108.906V63.75C90.3128 63.3207 90.209 62.8977 90.01 62.5173C89.811 62.1369 89.5227 61.8105 89.1699 61.5659C88.8171 61.3213 88.4102 61.1659 87.9842 61.1131C87.5581 61.0602 87.1256 61.1114 86.7237 61.2624C86.524 61.3376 66.7538 68.5489 52.1691 56.396ZM85 67.3116V108.657C84.6252 110.369 80.3619 126.369 50.4688 140.506C20.4938 126.33 16.2903 110.281 15.9375 108.662V67.3116C22.7013 69.0028 37.727 71.1817 50.4688 61.8097C63.2143 71.1818 78.2401 69.0028 85 67.3116Z" fill="url(#paint2_linear)"/>
<path d="M116.875 23.9062H122.456C122.799 25.5688 123.459 27.1497 124.4 28.5622L120.443 32.5209C119.945 33.019 119.665 33.6945 119.665 34.3989C119.665 35.1034 119.945 35.7789 120.443 36.277C120.941 36.7751 121.617 37.0549 122.321 37.0549C123.025 37.0549 123.701 36.7751 124.199 36.277L128.156 32.3182C129.569 33.2599 131.15 33.9202 132.812 34.2628V39.8438C132.812 40.5482 133.092 41.2239 133.59 41.722C134.089 42.2201 134.764 42.5 135.469 42.5C136.173 42.5 136.849 42.2201 137.347 41.722C137.845 41.2239 138.125 40.5482 138.125 39.8438V34.2628C139.788 33.9202 141.369 33.2599 142.782 32.3182L146.738 36.277C147.236 36.7751 147.912 37.0549 148.616 37.0549C149.321 37.0549 149.996 36.7751 150.494 36.277C150.993 35.7789 151.272 35.1034 151.272 34.3989C151.272 33.6945 150.993 33.019 150.494 32.5209L146.537 28.5622C147.479 27.1497 148.139 25.5688 148.482 23.9062H154.062C154.767 23.9062 155.443 23.6264 155.941 23.1283C156.439 22.6301 156.719 21.9545 156.719 21.25C156.719 20.5455 156.439 19.8699 155.941 19.3717C155.443 18.8736 154.767 18.5938 154.062 18.5938H148.482C148.139 16.9312 147.479 15.3503 146.537 13.9378L150.494 9.97911C150.993 9.48102 151.272 8.80546 151.272 8.10105C151.272 7.39665 150.993 6.72109 150.494 6.223C149.996 5.7249 149.321 5.44508 148.616 5.44507C147.912 5.44507 147.236 5.72489 146.738 6.22298L142.782 10.1818C141.369 9.24007 139.788 8.57982 138.125 8.23722V2.65625C138.125 1.95177 137.845 1.27614 137.347 0.777998C136.849 0.279854 136.173 0 135.469 0C134.764 0 134.089 0.279854 133.59 0.777998C133.092 1.27614 132.812 1.95177 132.812 2.65625V8.23722C131.15 8.57982 129.569 9.24007 128.156 10.1818L124.199 6.22298C123.701 5.72489 123.025 5.44507 122.321 5.44507C121.617 5.44508 120.941 5.7249 120.443 6.223C119.945 6.72109 119.665 7.39665 119.665 8.10105C119.665 8.80546 119.945 9.48102 120.443 9.97911L124.4 13.9378C123.459 15.3503 122.799 16.9312 122.456 18.5938H116.875C116.171 18.5938 115.495 18.8736 114.997 19.3717C114.499 19.8699 114.219 20.5455 114.219 21.25C114.219 21.9545 114.499 22.6301 114.997 23.1283C115.495 23.6264 116.171 23.9062 116.875 23.9062ZM135.469 13.2812C137.045 13.2812 138.585 13.7486 139.896 14.6242C141.206 15.4998 142.228 16.7444 142.831 18.2005C143.434 19.6566 143.592 21.2588 143.284 22.8046C142.977 24.3504 142.218 25.7703 141.104 26.8848C139.989 27.9992 138.569 28.7582 137.023 29.0656C135.478 29.3731 133.875 29.2153 132.419 28.6122C130.963 28.009 129.719 26.9877 128.843 25.6772C127.967 24.3667 127.5 22.8261 127.5 21.25C127.502 19.1373 128.343 17.1117 129.837 15.6178C131.33 14.1239 133.356 13.2836 135.469 13.2812V13.2812Z" fill="url(#paint3_linear)"/>
<path d="M135.469 18.5938H130.156V23.9062H135.469V18.5938Z" fill="url(#paint4_linear)"/>
<path d="M167.344 146.094H161.763C161.42 144.431 160.76 142.85 159.819 141.438L163.776 137.479C164.274 136.981 164.554 136.305 164.554 135.601C164.554 134.897 164.274 134.221 163.776 133.723C163.278 133.225 162.602 132.945 161.898 132.945C161.193 132.945 160.518 133.225 160.02 133.723L156.063 137.682C154.65 136.74 153.069 136.08 151.406 135.737V130.156C151.406 129.452 151.126 128.776 150.628 128.278C150.13 127.78 149.454 127.5 148.75 127.5C148.046 127.5 147.37 127.78 146.872 128.278C146.374 128.776 146.094 129.452 146.094 130.156V135.737C144.431 136.08 142.85 136.74 141.437 137.682L137.48 133.723C136.982 133.225 136.307 132.945 135.602 132.945C134.898 132.945 134.222 133.225 133.724 133.723C133.226 134.221 132.946 134.897 132.946 135.601C132.946 136.305 133.226 136.981 133.724 137.479L137.681 141.438C136.74 142.85 136.08 144.431 135.737 146.094H130.156C129.452 146.094 128.776 146.374 128.278 146.872C127.78 147.37 127.5 148.046 127.5 148.75C127.5 149.454 127.78 150.13 128.278 150.628C128.776 151.126 129.452 151.406 130.156 151.406H135.737C136.08 153.069 136.74 154.65 137.681 156.062L133.724 160.021C133.478 160.268 133.282 160.56 133.149 160.883C133.015 161.205 132.946 161.55 132.946 161.899C132.946 162.248 133.015 162.593 133.149 162.915C133.282 163.238 133.478 163.53 133.724 163.777C133.971 164.024 134.264 164.219 134.586 164.353C134.908 164.486 135.254 164.555 135.602 164.555C135.951 164.555 136.296 164.486 136.619 164.353C136.941 164.219 137.234 164.024 137.48 163.777L141.437 159.818C142.85 160.76 144.431 161.42 146.094 161.763V167.344C146.094 168.048 146.374 168.724 146.872 169.222C147.37 169.72 148.046 170 148.75 170C149.454 170 150.13 169.72 150.628 169.222C151.126 168.724 151.406 168.048 151.406 167.344V161.763C153.069 161.42 154.65 160.76 156.063 159.818L160.02 163.777C160.266 164.024 160.559 164.219 160.881 164.353C161.204 164.486 161.549 164.555 161.898 164.555C162.246 164.555 162.592 164.486 162.914 164.353C163.236 164.219 163.529 164.024 163.776 163.777C164.022 163.53 164.218 163.238 164.351 162.915C164.485 162.593 164.554 162.248 164.554 161.899C164.554 161.55 164.485 161.205 164.351 160.883C164.218 160.56 164.022 160.268 163.776 160.021L159.819 156.062C160.76 154.65 161.42 153.069 161.763 151.406H167.344C168.048 151.406 168.724 151.126 169.222 150.628C169.72 150.13 170 149.454 170 148.75C170 148.046 169.72 147.37 169.222 146.872C168.724 146.374 168.048 146.094 167.344 146.094ZM148.75 156.719C147.174 156.719 145.633 156.251 144.323 155.376C143.012 154.5 141.991 153.256 141.388 151.8C140.785 150.343 140.627 148.741 140.934 147.195C141.242 145.65 142.001 144.23 143.115 143.115C144.23 142.001 145.65 141.242 147.195 140.934C148.741 140.627 150.343 140.785 151.8 141.388C153.256 141.991 154.5 143.012 155.376 144.323C156.251 145.633 156.719 147.174 156.719 148.75C156.716 150.863 155.876 152.888 154.382 154.382C152.888 155.876 150.863 156.716 148.75 156.719Z" fill="url(#paint5_linear)"/>
<path d="M148.75 146.094H143.438V151.406H148.75V146.094Z" fill="url(#paint6_linear)"/>
<path d="M138.125 71.7188C138.125 71.3699 138.056 71.0245 137.923 70.7021C137.789 70.3798 137.594 70.087 137.347 69.8403C137.1 69.5936 136.808 69.398 136.485 69.2645C136.163 69.1311 135.817 69.0624 135.469 69.0625H114.219L126.968 52.0615C127.178 51.7826 127.332 51.4649 127.419 51.1267C127.506 50.7885 127.526 50.4363 127.477 50.0905C127.428 49.7446 127.311 49.4118 127.134 49.1111C126.956 48.8104 126.72 48.5478 126.441 48.3383C126.161 48.1287 125.843 47.9764 125.505 47.89C125.166 47.8036 124.814 47.7849 124.468 47.8348C124.123 47.8848 123.79 48.0025 123.49 48.1811C123.19 48.3598 122.928 48.596 122.719 48.876L106.782 70.126C106.486 70.5205 106.305 70.9897 106.261 71.481C106.216 71.9722 106.31 72.4661 106.53 72.9073C106.751 73.3485 107.09 73.7195 107.51 73.9788C107.929 74.238 108.413 74.3752 108.906 74.375H135.469C135.817 74.3751 136.163 74.3064 136.485 74.173C136.808 74.0395 137.1 73.8439 137.347 73.5972C137.594 73.3505 137.789 73.0577 137.923 72.7354C138.056 72.4131 138.125 72.0676 138.125 71.7188V71.7188Z" fill="url(#paint7_linear)"/>
<path d="M129.378 129.378C129.624 129.131 129.82 128.839 129.954 128.516C130.087 128.194 130.156 127.849 130.156 127.5C130.156 127.151 130.087 126.806 129.954 126.483C129.82 126.161 129.624 125.868 129.378 125.622L115.318 111.563H143.437C144.142 111.563 144.817 111.283 145.316 110.785C145.814 110.286 146.094 109.611 146.094 108.906C146.094 108.202 145.814 107.526 145.316 107.028C144.817 106.53 144.142 106.25 143.437 106.25H108.906C108.381 106.25 107.867 106.406 107.43 106.698C106.994 106.989 106.653 107.404 106.452 107.89C106.251 108.375 106.199 108.909 106.301 109.424C106.404 109.94 106.657 110.413 107.028 110.784L125.622 129.378C125.868 129.625 126.161 129.82 126.483 129.954C126.806 130.087 127.151 130.156 127.5 130.156C127.849 130.156 128.194 130.087 128.516 129.954C128.839 129.82 129.131 129.625 129.378 129.378H129.378Z" fill="url(#paint8_linear)"/>
<path d="M154.062 111.562H159.375C160.079 111.562 160.755 111.283 161.253 110.785C161.751 110.286 162.031 109.611 162.031 108.906C162.031 108.202 161.751 107.526 161.253 107.028C160.755 106.53 160.079 106.25 159.375 106.25H154.062C153.358 106.25 152.682 106.53 152.184 107.028C151.686 107.526 151.406 108.202 151.406 108.906C151.406 109.611 151.686 110.286 152.184 110.785C152.682 111.283 153.358 111.562 154.062 111.562Z" fill="url(#paint9_linear)"/>
<path d="M154.062 71.7188C154.063 71.3699 153.994 71.0244 153.86 70.7021C153.727 70.3798 153.531 70.087 153.285 69.8403C153.038 69.5936 152.745 69.398 152.423 69.2645C152.101 69.1311 151.755 69.0624 151.406 69.0625H146.094C145.389 69.0625 144.714 69.3424 144.215 69.8405C143.717 70.3386 143.438 71.0143 143.438 71.7188C143.438 72.4232 143.717 73.0989 144.215 73.597C144.714 74.0951 145.389 74.375 146.094 74.375H151.406C151.755 74.3751 152.101 74.3064 152.423 74.173C152.745 74.0395 153.038 73.8439 153.285 73.5972C153.531 73.3505 153.727 73.0577 153.86 72.7354C153.994 72.4131 154.063 72.0676 154.062 71.7188V71.7188Z" fill="url(#paint10_linear)"/>
<path d="M162.031 74.375H167.344C168.048 74.375 168.724 74.0951 169.222 73.597C169.72 73.0989 170 72.4232 170 71.7188C170 71.0143 169.72 70.3386 169.222 69.8405C168.724 69.3424 168.048 69.0625 167.344 69.0625H162.031C161.327 69.0625 160.651 69.3424 160.153 69.8405C159.655 70.3386 159.375 71.0143 159.375 71.7188C159.375 72.4232 159.655 73.0989 160.153 73.597C160.651 74.0951 161.327 74.375 162.031 74.375Z" fill="url(#paint11_linear)"/>
<path d="M111.562 124.844H106.25V130.156H111.562V124.844Z" fill="url(#paint12_linear)"/>
<path d="M116.875 95.625H111.562V100.938H116.875V95.625Z" fill="url(#paint13_linear)"/>
<path d="M159.375 39.8438H154.062V45.1562H159.375V39.8438Z" fill="url(#paint14_linear)"/>
<path d="M119.531 148.75H114.219V154.062H119.531V148.75Z" fill="url(#paint15_linear)"/>
<path d="M103.594 21.25H98.2812V26.5625H103.594V21.25Z" fill="url(#paint16_linear)"/>
<path d="M119.531 79.6875H114.219V85H119.531V79.6875Z" fill="url(#paint17_linear)"/>
<path d="M111.562 47.8125H106.25V53.125H111.562V47.8125Z" fill="url(#paint18_linear)"/>
<defs>
<linearGradient id="paint0_linear" x1="50.4688" y1="74.375" x2="50.4688" y2="122.188" gradientUnits="userSpaceOnUse">
<stop stop-color="#EE87EA"/>
<stop offset="1" stop-color="#27A0D4"/>
</linearGradient>
<linearGradient id="paint1_linear" x1="50.4688" y1="42.4991" x2="50.4688" y2="159.375" gradientUnits="userSpaceOnUse">
<stop stop-color="#EE87EA"/>
<stop offset="1" stop-color="#27A0D4"/>
</linearGradient>
<linearGradient id="paint2_linear" x1="50.4688" y1="55.7813" x2="50.4688" y2="146.094" gradientUnits="userSpaceOnUse">
<stop stop-color="#EE87EA"/>
<stop offset="1" stop-color="#27A0D4"/>
</linearGradient>
<linearGradient id="paint3_linear" x1="135.469" y1="0" x2="135.469" y2="42.5" gradientUnits="userSpaceOnUse">
<stop stop-color="#EE87EA"/>
<stop offset="1" stop-color="#27A0D4"/>
</linearGradient>
<linearGradient id="paint4_linear" x1="132.812" y1="18.5938" x2="132.812" y2="23.9062" gradientUnits="userSpaceOnUse">
<stop stop-color="#EE87EA"/>
<stop offset="1" stop-color="#27A0D4"/>
</linearGradient>
<linearGradient id="paint5_linear" x1="148.75" y1="127.5" x2="148.75" y2="170" gradientUnits="userSpaceOnUse">
<stop stop-color="#EE87EA"/>
<stop offset="1" stop-color="#27A0D4"/>
</linearGradient>
<linearGradient id="paint6_linear" x1="146.094" y1="146.094" x2="146.094" y2="151.406" gradientUnits="userSpaceOnUse">
<stop stop-color="#EE87EA"/>
<stop offset="1" stop-color="#27A0D4"/>
</linearGradient>
<linearGradient id="paint7_linear" x1="122.187" y1="47.8075" x2="122.187" y2="74.375" gradientUnits="userSpaceOnUse">
<stop stop-color="#EE87EA"/>
<stop offset="1" stop-color="#27A0D4"/>
</linearGradient>
<linearGradient id="paint8_linear" x1="126.172" y1="106.25" x2="126.172" y2="130.156" gradientUnits="userSpaceOnUse">
<stop stop-color="#EE87EA"/>
<stop offset="1" stop-color="#27A0D4"/>
</linearGradient>
<linearGradient id="paint9_linear" x1="156.719" y1="106.25" x2="156.719" y2="111.562" gradientUnits="userSpaceOnUse">
<stop stop-color="#EE87EA"/>
<stop offset="1" stop-color="#27A0D4"/>
</linearGradient>
<linearGradient id="paint10_linear" x1="148.75" y1="69.0625" x2="148.75" y2="74.375" gradientUnits="userSpaceOnUse">
<stop stop-color="#EE87EA"/>
<stop offset="1" stop-color="#27A0D4"/>
</linearGradient>
<linearGradient id="paint11_linear" x1="164.688" y1="69.0625" x2="164.688" y2="74.375" gradientUnits="userSpaceOnUse">
<stop stop-color="#EE87EA"/>
<stop offset="1" stop-color="#27A0D4"/>
</linearGradient>
<linearGradient id="paint12_linear" x1="108.906" y1="124.844" x2="108.906" y2="130.156" gradientUnits="userSpaceOnUse">
<stop stop-color="#EE87EA"/>
<stop offset="1" stop-color="#27A0D4"/>
</linearGradient>
<linearGradient id="paint13_linear" x1="114.219" y1="95.625" x2="114.219" y2="100.938" gradientUnits="userSpaceOnUse">
<stop stop-color="#EE87EA"/>
<stop offset="1" stop-color="#27A0D4"/>
</linearGradient>
<linearGradient id="paint14_linear" x1="156.719" y1="39.8438" x2="156.719" y2="45.1562" gradientUnits="userSpaceOnUse">
<stop stop-color="#EE87EA"/>
<stop offset="1" stop-color="#27A0D4"/>
</linearGradient>
<linearGradient id="paint15_linear" x1="116.875" y1="148.75" x2="116.875" y2="154.062" gradientUnits="userSpaceOnUse">
<stop stop-color="#EE87EA"/>
<stop offset="1" stop-color="#27A0D4"/>
</linearGradient>
<linearGradient id="paint16_linear" x1="100.938" y1="21.25" x2="100.938" y2="26.5625" gradientUnits="userSpaceOnUse">
<stop stop-color="#EE87EA"/>
<stop offset="1" stop-color="#27A0D4"/>
</linearGradient>
<linearGradient id="paint17_linear" x1="116.875" y1="79.6875" x2="116.875" y2="85" gradientUnits="userSpaceOnUse">
<stop stop-color="#EE87EA"/>
<stop offset="1" stop-color="#27A0D4"/>
</linearGradient>
<linearGradient id="paint18_linear" x1="108.906" y1="47.8125" x2="108.906" y2="53.125" gradientUnits="userSpaceOnUse">
<stop stop-color="#EE87EA"/>
<stop offset="1" stop-color="#27A0D4"/>
</linearGradient>
</defs>
</svg>
