<svg width="171" height="170" viewBox="0 0 171 170" fill="none" xmlns="http://www.w3.org/2000/svg">
<g clip-path="url(#clip0)">
<path d="M170.803 101.026C170.778 100.964 170.763 100.899 170.735 100.839C170.706 100.78 170.718 100.769 170.701 100.735L152.315 64.2157C151.611 62.7974 150.521 61.6038 149.169 60.7704C147.817 59.937 146.257 59.4972 144.666 59.501H127.395L133.605 19.4405C133.795 18.2153 133.575 16.9622 132.979 15.8732C132.383 14.7842 131.445 13.9193 130.308 13.4112C126.189 11.578 116.75 8.50105 99.75 8.50105C93.7883 8.49653 87.8329 8.88651 81.9232 9.66838L82.117 8.60305C82.3891 7.15561 82.0821 5.65976 81.2612 4.43408C80.4404 3.20841 79.1706 2.34977 77.7223 2.04105C70.6012 0.619523 63.351 -0.0641329 56.088 0.00104504C49.2261 -0.10069 42.3745 0.564596 35.662 1.98438C34.239 2.33507 33.0073 3.21897 32.2244 4.45135C31.4416 5.68373 31.1681 7.16923 31.4611 8.59738L41.6812 59.501H26.334C24.7434 59.497 23.1835 59.9363 21.8313 60.7692C20.4792 61.602 19.3891 62.7951 18.6846 64.2129L0.29925 100.735C0.28215 100.769 0.2793 100.805 0.2622 100.839C0.2451 100.873 0.2223 100.964 0.19665 101.026C0.0915416 101.306 0.0318952 101.601 0.01995 101.899C0.01995 101.933 0 101.964 0 102.001V161.501C0 163.755 0.900801 165.917 2.50424 167.511C4.10767 169.106 6.2824 170.001 8.55 170.001H162.45C164.718 170.001 166.892 169.106 168.496 167.511C170.099 165.917 171 163.755 171 161.501V102.001C171 101.964 170.98 101.936 170.98 101.899C170.968 101.601 170.908 101.306 170.803 101.026V101.026ZM124.776 76.501H131.1C132.612 76.501 134.062 77.0981 135.131 78.1608C136.199 79.2235 136.8 80.6648 136.8 82.1677C136.8 83.6706 136.199 85.1119 135.131 86.1747C134.062 87.2374 132.612 87.8344 131.1 87.8344H123.023L124.776 76.501ZM56.088 5.66771C62.9448 5.60956 69.7894 6.25233 76.5139 7.58588L75.6019 12.5527L71.3013 36.2082C71.2315 36.5756 71.2355 36.9532 71.3132 37.319C71.3908 37.6849 71.5405 38.0319 71.7537 38.34C71.9669 38.648 72.2393 38.9111 72.5552 39.114C72.8711 39.3169 73.2243 39.4557 73.5945 39.5222C73.9646 39.5888 74.3443 39.5819 74.7117 39.5018C75.0791 39.4218 75.4269 39.2703 75.7352 39.056C76.0434 38.8417 76.3059 38.5688 76.5075 38.2532C76.7092 37.9375 76.846 37.5853 76.9101 37.2169L80.8431 15.5844C87.1012 14.6459 93.421 14.1724 99.75 14.1677C116.28 14.1677 124.995 17.256 127.965 18.582L117.255 87.8344H53.181L37.0272 7.47255C43.2949 6.17695 49.687 5.57168 56.088 5.66771V5.66771ZM47.3698 87.8344H39.9C38.3883 87.8344 36.9384 87.2374 35.8695 86.1747C34.8005 85.1119 34.2 83.6706 34.2 82.1677C34.2 80.6648 34.8005 79.2235 35.8695 78.1608C36.9384 77.0981 38.3883 76.501 39.9 76.501H45.0955L47.3698 87.8344ZM23.7832 66.7459C24.0184 66.2728 24.3818 65.8744 24.8325 65.5955C25.2831 65.3167 25.8032 65.1685 26.334 65.1677H42.8184L43.9584 70.8344H39.9C36.8765 70.8344 33.9769 72.0284 31.839 74.1538C29.7011 76.2793 28.5 79.1619 28.5 82.1677C28.5 85.1735 29.7011 88.0562 31.839 90.1816C33.9769 92.307 36.8765 93.5011 39.9 93.5011H131.1C134.123 93.5011 137.023 92.307 139.161 90.1816C141.299 88.0562 142.5 85.1735 142.5 82.1677C142.5 79.1619 141.299 76.2793 139.161 74.1538C137.023 72.0284 134.123 70.8344 131.1 70.8344H125.654L126.529 65.1677H144.666C145.2 65.1661 145.723 65.3135 146.176 65.593C146.63 65.8725 146.995 66.2729 147.231 66.7487L163.539 99.1677H7.4613L23.7832 66.7459ZM162.45 164.334H8.55C7.79413 164.334 7.06922 164.036 6.53475 163.505C6.00027 162.973 5.7 162.253 5.7 161.501V155.834H25.65C26.4059 155.834 27.1308 155.536 27.6653 155.005C28.1997 154.473 28.5 153.753 28.5 153.001C28.5 152.25 28.1997 151.529 27.6653 150.998C27.1308 150.466 26.4059 150.168 25.65 150.168H5.7V119.001H116.85C117.606 119.001 118.331 118.703 118.865 118.171C119.4 117.64 119.7 116.919 119.7 116.168C119.7 115.416 119.4 114.696 118.865 114.164C118.331 113.633 117.606 113.334 116.85 113.334H5.7V104.834H165.3V113.334H145.35C144.594 113.334 143.869 113.633 143.335 114.164C142.8 114.696 142.5 115.416 142.5 116.168C142.5 116.919 142.8 117.64 143.335 118.171C143.869 118.703 144.594 119.001 145.35 119.001H165.3V150.168H54.15C53.3941 150.168 52.6692 150.466 52.1347 150.998C51.6003 151.529 51.3 152.25 51.3 153.001C51.3 153.753 51.6003 154.473 52.1347 155.005C52.6692 155.536 53.3941 155.834 54.15 155.834H165.3V161.501C165.3 162.253 165 162.973 164.465 163.505C163.931 164.036 163.206 164.334 162.45 164.334Z" fill="url(#paint0_linear)"/>
<path d="M42.75 150.167H37.05C36.2941 150.167 35.5692 150.465 35.0347 150.997C34.5003 151.528 34.2 152.249 34.2 153C34.2 153.751 34.5003 154.472 35.0347 155.003C35.5692 155.535 36.2941 155.833 37.05 155.833H42.75C43.5059 155.833 44.2308 155.535 44.7653 155.003C45.2997 154.472 45.6 153.751 45.6 153C45.6 152.249 45.2997 151.528 44.7653 150.997C44.2308 150.465 43.5059 150.167 42.75 150.167Z" fill="url(#paint1_linear)"/>
<path d="M128.25 119H133.95C134.706 119 135.431 118.701 135.965 118.17C136.5 117.639 136.8 116.918 136.8 116.167C136.8 115.415 136.5 114.695 135.965 114.163C135.431 113.632 134.706 113.333 133.95 113.333H128.25C127.494 113.333 126.769 113.632 126.235 114.163C125.7 114.695 125.4 115.415 125.4 116.167C125.4 116.918 125.7 117.639 126.235 118.17C126.769 118.701 127.494 119 128.25 119Z" fill="url(#paint2_linear)"/>
</g>
<defs>
<linearGradient id="paint0_linear" x1="85.5" y1="-0.00907898" x2="85.5" y2="170.001" gradientUnits="userSpaceOnUse">
<stop stop-color="#EE87EA"/>
<stop offset="1" stop-color="#27A0D4"/>
</linearGradient>
<linearGradient id="paint1_linear" x1="39.9" y1="150.167" x2="39.9" y2="155.833" gradientUnits="userSpaceOnUse">
<stop stop-color="#EE87EA"/>
<stop offset="1" stop-color="#27A0D4"/>
</linearGradient>
<linearGradient id="paint2_linear" x1="131.1" y1="113.333" x2="131.1" y2="119" gradientUnits="userSpaceOnUse">
<stop stop-color="#EE87EA"/>
<stop offset="1" stop-color="#27A0D4"/>
</linearGradient>
<clipPath id="clip0">
<rect width="171" height="170" fill="white"/>
</clipPath>
</defs>
</svg>
