<svg width="170" height="170" viewBox="0 0 170 170" fill="none" xmlns="http://www.w3.org/2000/svg">
<path d="M161.5 0H76.5C74.2457 0 72.0837 0.895533 70.4896 2.48959C68.8955 4.08365 68 6.24566 68 8.5V70.8333C68 73.0877 68.8955 75.2497 70.4896 76.8437C72.0837 78.4378 74.2457 79.3333 76.5 79.3333H91.0038C91.6395 85.2347 90.7457 91.2004 88.4085 96.6563C87.9396 97.6173 87.7508 98.6908 87.8635 99.7541C87.9763 100.817 88.386 101.827 89.046 102.669C89.568 103.343 90.2376 103.889 91.0033 104.264C91.769 104.639 92.6105 104.834 93.4632 104.833C93.8534 104.833 94.2426 104.793 94.6248 104.714C101.231 103.277 107.369 100.198 112.471 95.7624C117.573 91.3263 121.475 85.676 123.817 79.3333H161.5C163.754 79.3333 165.916 78.4378 167.51 76.8437C169.104 75.2497 170 73.0877 170 70.8333V8.5C170 6.24566 169.104 4.08365 167.51 2.48959C165.916 0.895533 163.754 0 161.5 0V0ZM164.333 70.8333C164.333 71.5848 164.035 72.3055 163.503 72.8368C162.972 73.3682 162.251 73.6667 161.5 73.6667H123.817C122.664 73.6687 121.539 74.0224 120.592 74.6805C119.645 75.3387 118.922 76.2699 118.518 77.35C116.566 82.8155 113.242 87.6873 108.864 91.4974C104.486 95.3076 99.2024 97.9281 93.5198 99.1072C96.2948 92.7459 97.3754 85.7744 96.6563 78.8715C96.5467 77.4496 95.9023 76.122 94.8529 75.1562C93.8035 74.1904 92.4271 73.6582 91.001 73.6667H76.5C75.7486 73.6667 75.0279 73.3682 74.4965 72.8368C73.9652 72.3055 73.6667 71.5848 73.6667 70.8333V8.5C73.6667 7.74855 73.9652 7.02788 74.4965 6.49653C75.0279 5.96518 75.7486 5.66667 76.5 5.66667H161.5C162.251 5.66667 162.972 5.96518 163.503 6.49653C164.035 7.02788 164.333 7.74855 164.333 8.5V70.8333Z" fill="url(#paint0_linear)"/>
<path d="M70.8333 85C68.579 85 66.417 85.8955 64.8229 87.4896C63.2289 89.0837 62.3333 91.2457 62.3333 93.5V95.2708C59.1102 98.9164 55.1979 101.888 50.8215 104.016C46.4451 106.143 41.6912 107.384 36.8333 107.667H17C12.7546 107.691 8.67205 109.303 5.55532 112.186C2.4386 115.069 0.513284 119.013 0.158072 123.244C-0.197141 127.475 1.04346 131.685 3.63585 135.047C6.22825 138.409 9.98481 140.679 14.1667 141.412V161.5C14.1667 163.754 15.0622 165.916 16.6563 167.51C18.2503 169.104 20.4123 170 22.6667 170H25.5C27.7543 170 29.9164 169.104 31.5104 167.51C33.1045 165.916 34 163.754 34 161.5V155.833H36.8333C39.0877 155.833 41.2497 154.938 42.8437 153.344C44.4378 151.75 45.3333 149.588 45.3333 147.333V143.171C51.9412 145.065 57.8506 148.851 62.3333 154.062V155.833C62.3333 158.088 63.2289 160.25 64.8229 161.844C66.417 163.438 68.579 164.333 70.8333 164.333C73.0877 164.333 75.2497 163.438 76.8437 161.844C78.4378 160.25 79.3333 158.088 79.3333 155.833V93.5C79.3333 91.2457 78.4378 89.0837 76.8437 87.4896C75.2497 85.8955 73.0877 85 70.8333 85V85ZM5.66667 124.667C5.66667 121.661 6.86071 118.778 8.98613 116.653C11.1115 114.527 13.9942 113.333 17 113.333H31.1667V119H17C16.2486 119 15.5279 119.299 14.9965 119.83C14.4652 120.361 14.1667 121.082 14.1667 121.833C14.1667 122.585 14.4652 123.305 14.9965 123.837C15.5279 124.368 16.2486 124.667 17 124.667H31.1667V136H17C13.9942 136 11.1115 134.806 8.98613 132.681C6.86071 130.555 5.66667 127.672 5.66667 124.667ZM28.3333 161.5C28.3333 162.251 28.0348 162.972 27.5035 163.503C26.9721 164.035 26.2515 164.333 25.5 164.333H22.6667C21.9152 164.333 21.1946 164.035 20.6632 163.503C20.1318 162.972 19.8333 162.251 19.8333 161.5V141.667H28.3333V161.5ZM39.6667 147.333C39.6667 148.085 39.3682 148.805 38.8368 149.337C38.3055 149.868 37.5848 150.167 36.8333 150.167H34V141.667H36.8333C37.7818 141.7 38.7277 141.786 39.6667 141.924V147.333ZM36.8333 136V124.667C43.026 124.456 49.1334 123.158 54.876 120.83C55.2307 120.7 55.5558 120.5 55.832 120.242C56.1082 119.984 56.3301 119.673 56.4844 119.328C56.6388 118.983 56.7226 118.611 56.7308 118.233C56.7391 117.855 56.6717 117.48 56.5326 117.128C56.3934 116.777 56.1854 116.457 55.9207 116.187C55.656 115.917 55.3401 115.703 54.9914 115.557C54.6427 115.411 54.2684 115.337 53.8904 115.338C53.5125 115.339 53.1385 115.415 52.7907 115.563C47.7096 117.62 42.3108 118.783 36.8333 119V113.333C46.2057 112.927 55.1766 109.414 62.3333 103.349V145.985C55.1766 139.919 46.2057 136.407 36.8333 136V136ZM73.6667 155.833C73.6667 156.585 73.3682 157.305 72.8368 157.837C72.3055 158.368 71.5848 158.667 70.8333 158.667C70.0819 158.667 69.3612 158.368 68.8299 157.837C68.2985 157.305 68 156.585 68 155.833V93.5C68 92.7486 68.2985 92.0279 68.8299 91.4965C69.3612 90.9652 70.0819 90.6667 70.8333 90.6667C71.5848 90.6667 72.3055 90.9652 72.8368 91.4965C73.3682 92.0279 73.6667 92.7486 73.6667 93.5V155.833Z" fill="url(#paint1_linear)"/>
<path d="M121.833 34C121.455 33.9989 121.081 34.0736 120.732 34.2196C120.383 34.3656 120.067 34.5799 119.802 34.85L116.997 37.655C116.726 37.9164 116.51 38.229 116.362 38.5747C116.213 38.9204 116.135 39.2922 116.132 39.6684C116.129 40.0446 116.2 40.4177 116.343 40.7659C116.485 41.1141 116.696 41.4304 116.962 41.6965C117.228 41.9625 117.544 42.1729 117.892 42.3153C118.241 42.4578 118.614 42.5295 118.99 42.5262C119.366 42.5229 119.738 42.4448 120.083 42.2963C120.429 42.1478 120.742 41.932 121.003 41.6613C124.667 38.0092 124.667 38.0092 124.667 36.8333C124.667 36.0819 124.368 35.3612 123.837 34.8299C123.305 34.2985 122.585 34 121.833 34Z" fill="url(#paint2_linear)"/>
<path d="M141.667 36.8333H135.745C135.32 34.3098 134.327 31.9159 132.841 29.8322L135.17 27.5032C135.686 26.9688 135.972 26.2531 135.965 25.5102C135.959 24.7673 135.661 24.0567 135.135 23.5313C134.61 23.006 133.899 22.708 133.156 22.7016C132.414 22.6951 131.698 22.9807 131.163 23.4968L128.835 25.8258C126.751 24.3401 124.357 23.3471 121.833 22.9217V17C121.833 16.2486 121.535 15.5279 121.003 14.9965C120.472 14.4652 119.751 14.1667 119 14.1667C118.249 14.1667 117.528 14.4652 116.997 14.9965C116.465 15.5279 116.167 16.2486 116.167 17V22.9217C113.643 23.3471 111.249 24.3401 109.165 25.8258L106.837 23.4968C106.302 22.9807 105.586 22.6951 104.844 22.7016C104.101 22.708 103.39 23.006 102.865 23.5313C102.339 24.0567 102.041 24.7673 102.035 25.5102C102.028 26.2531 102.314 26.9688 102.83 27.5032L105.159 29.8322C103.673 31.9159 102.68 34.3098 102.255 36.8333H96.3333C95.5819 36.8333 94.8612 37.1318 94.3299 37.6632C93.7985 38.1945 93.5 38.9152 93.5 39.6667C93.5 40.4181 93.7985 41.1388 94.3299 41.6701C94.8612 42.2015 95.5819 42.5 96.3333 42.5H102.255C102.68 45.0235 103.673 47.4175 105.159 49.5012L102.83 51.8302C102.56 52.0915 102.344 52.4042 102.195 52.7498C102.047 53.0955 101.969 53.4673 101.965 53.8435C101.962 54.2197 102.034 54.5928 102.176 54.941C102.319 55.2892 102.529 55.6056 102.795 55.8716C103.061 56.1376 103.377 56.348 103.726 56.4905C104.074 56.633 104.447 56.7046 104.823 56.7014C105.199 56.6981 105.571 56.6199 105.917 56.4714C106.262 56.323 106.575 56.1071 106.837 55.8365L109.165 53.5075C111.249 54.9932 113.643 55.9862 116.167 56.4117V62.3333C116.167 63.0848 116.465 63.8054 116.997 64.3368C117.528 64.8681 118.249 65.1667 119 65.1667C119.751 65.1667 120.472 64.8681 121.003 64.3368C121.535 63.8054 121.833 63.0848 121.833 62.3333V56.4117C124.357 55.9862 126.751 54.9932 128.835 53.5075L131.163 55.8365C131.698 56.3526 132.414 56.6382 133.156 56.6317C133.899 56.6253 134.61 56.3273 135.135 55.802C135.661 55.2767 135.959 54.566 135.965 53.8231C135.972 53.0802 135.686 52.3645 135.17 51.8302L132.841 49.5012C134.327 47.4175 135.32 45.0235 135.745 42.5H141.667C142.418 42.5 143.139 42.2015 143.67 41.6701C144.201 41.1388 144.5 40.4181 144.5 39.6667C144.5 38.9152 144.201 38.1945 143.67 37.6632C143.139 37.1318 142.418 36.8333 141.667 36.8333ZM119 51C116.758 51 114.567 50.3353 112.704 49.09C110.84 47.8447 109.387 46.0746 108.529 44.0037C107.672 41.9328 107.447 39.6541 107.884 37.4556C108.322 35.2572 109.401 33.2378 110.986 31.6528C112.571 30.0678 114.591 28.9884 116.789 28.5511C118.987 28.1138 121.266 28.3382 123.337 29.196C125.408 30.0538 127.178 31.5064 128.423 33.3702C129.669 35.234 130.333 37.4251 130.333 39.6667C130.333 42.6724 129.139 45.5551 127.014 47.6805C124.888 49.8059 122.006 51 119 51Z" fill="url(#paint3_linear)"/>
<defs>
<linearGradient id="paint0_linear" x1="119" y1="0" x2="119" y2="104.833" gradientUnits="userSpaceOnUse">
<stop stop-color="#EE87EA"/>
<stop offset="1" stop-color="#27A0D4"/>
</linearGradient>
<linearGradient id="paint1_linear" x1="39.7159" y1="85" x2="39.7159" y2="170" gradientUnits="userSpaceOnUse">
<stop stop-color="#EE87EA"/>
<stop offset="1" stop-color="#27A0D4"/>
</linearGradient>
<linearGradient id="paint2_linear" x1="120.399" y1="34" x2="120.399" y2="42.5263" gradientUnits="userSpaceOnUse">
<stop stop-color="#EE87EA"/>
<stop offset="1" stop-color="#27A0D4"/>
</linearGradient>
<linearGradient id="paint3_linear" x1="119" y1="14.1667" x2="119" y2="65.1667" gradientUnits="userSpaceOnUse">
<stop stop-color="#EE87EA"/>
<stop offset="1" stop-color="#27A0D4"/>
</linearGradient>
</defs>
</svg>
