<svg width="170" height="170" viewBox="0 0 170 170" fill="none" xmlns="http://www.w3.org/2000/svg">
<g clip-path="url(#clip0)">
<path d="M160.65 153.198L152.459 133.543C159.032 128.78 164.102 122.232 167.067 114.675C170.032 107.118 170.768 98.8698 169.188 90.9074C167.607 82.945 163.776 75.6028 158.15 69.7513C152.523 63.8999 145.337 59.7846 137.442 57.8935C135.981 54.1928 133.441 51.0166 130.153 48.777C126.864 46.5373 122.979 45.3375 119 45.3333H104.833V36.8333C104.833 34.579 103.938 32.417 102.344 30.8229C100.75 29.2289 98.5877 28.3333 96.3333 28.3333V16.4787C98.2223 15.8133 99.8148 14.501 100.829 12.774C101.843 11.047 102.213 9.01688 101.874 7.04316C101.534 5.06945 100.507 3.27952 98.9747 1.99041C97.4421 0.701305 95.5027 -0.00379477 93.5 -2.12634e-08H76.5C74.4973 -0.00379477 72.5579 0.701305 71.0253 1.99041C69.4927 3.27952 68.4658 5.06945 68.1264 7.04316C67.787 9.01688 68.1572 11.047 69.1712 12.774C70.1852 14.501 71.7777 15.8133 73.6667 16.4787V28.3333C71.4123 28.3333 69.2503 29.2289 67.6563 30.8229C66.0622 32.417 65.1667 34.579 65.1667 36.8333V85C65.1739 86.7517 65.7222 88.4584 66.7366 89.8866C67.7509 91.3148 69.1818 92.3948 70.8333 92.9787V96.3333C70.8406 98.0851 71.3889 99.7918 72.4033 101.22C73.4176 102.648 74.8484 103.728 76.5 104.312V113.333C76.5 115.588 77.3955 117.75 78.9896 119.344C80.5836 120.938 82.7457 121.833 85 121.833C87.2543 121.833 89.4163 120.938 91.0104 119.344C92.6045 117.75 93.5 115.588 93.5 113.333V104.312C95.1516 103.728 96.5824 102.648 97.5967 101.22C98.6111 99.7918 99.1594 98.0851 99.1667 96.3333V92.9787C100.818 92.3948 102.249 91.3148 103.263 89.8866C104.278 88.4584 104.826 86.7517 104.833 85H119C122.459 84.9948 125.856 84.0852 128.854 82.3615C131.853 80.6379 134.348 78.1601 136.094 75.174C140.406 76.7075 144.224 79.3765 147.145 82.8995C150.067 86.4225 151.983 90.6688 152.692 95.1903C153.401 99.7118 152.876 104.341 151.173 108.589C149.47 112.837 146.651 116.546 143.015 119.326C142.27 119.112 141.499 119.003 140.723 119H125.61C123.932 118.997 122.29 119.493 120.893 120.424C119.496 121.355 118.408 122.68 117.765 124.23L116.402 127.5H73.6667C71.4158 127.511 69.2602 128.41 67.6686 130.002C66.077 131.594 65.1778 133.749 65.1667 136C65.1667 138.254 66.0622 140.416 67.6563 142.01C69.2503 143.604 71.4123 144.5 73.6667 144.5H109.318L105.777 153H70.8333C67.8275 153 64.9449 154.194 62.8195 156.319C60.694 158.445 59.5 161.328 59.5 164.333C59.5 165.836 60.097 167.278 61.1597 168.34C62.2224 169.403 63.6638 170 65.1667 170H164.333C165.836 170 167.278 169.403 168.34 168.34C169.403 167.278 170 165.836 170 164.333C169.994 161.676 169.055 159.104 167.346 157.069C165.637 155.033 163.267 153.663 160.65 153.198ZM76.5 5.66667H93.5C94.2514 5.66667 94.9721 5.96518 95.5035 6.49653C96.0348 7.02788 96.3333 7.74855 96.3333 8.5C96.3333 9.25145 96.0348 9.97212 95.5035 10.5035C94.9721 11.0348 94.2514 11.3333 93.5 11.3333H76.5C75.7486 11.3333 75.0279 11.0348 74.4965 10.5035C73.9652 9.97212 73.6667 9.25145 73.6667 8.5C73.6667 7.74855 73.9652 7.02788 74.4965 6.49653C75.0279 5.96518 75.7486 5.66667 76.5 5.66667ZM79.3333 17H90.6667V28.3333H79.3333V17ZM87.8333 113.333C87.8333 114.085 87.5348 114.805 87.0035 115.337C86.4721 115.868 85.7514 116.167 85 116.167C84.2486 116.167 83.5279 115.868 82.9965 115.337C82.4652 114.805 82.1667 114.085 82.1667 113.333V104.833H87.8333V113.333ZM93.5 96.3333C93.5 97.0848 93.2015 97.8054 92.6701 98.3368C92.1388 98.8682 91.4181 99.1667 90.6667 99.1667H79.3333C78.5819 99.1667 77.8612 98.8682 77.3299 98.3368C76.7985 97.8054 76.5 97.0848 76.5 96.3333V93.5H93.5V96.3333ZM99.1667 85C99.1667 85.7514 98.8682 86.4721 98.3368 87.0035C97.8055 87.5348 97.0848 87.8333 96.3333 87.8333H73.6667C72.9152 87.8333 72.1945 87.5348 71.6632 87.0035C71.1318 86.4721 70.8333 85.7514 70.8333 85V36.8333C70.8333 36.0819 71.1318 35.3612 71.6632 34.8299C72.1945 34.2985 72.9152 34 73.6667 34H96.3333C97.0848 34 97.8055 34.2985 98.3368 34.8299C98.8682 35.3612 99.1667 36.0819 99.1667 36.8333V85ZM119 79.3333H104.833V51H119C122.757 51 126.361 52.4926 129.017 55.1493C131.674 57.8061 133.167 61.4094 133.167 65.1667C133.167 68.9239 131.674 72.5272 129.017 75.184C126.361 77.8408 122.757 79.3333 119 79.3333V79.3333ZM158.667 99.1667C158.662 92.7875 156.699 86.5636 153.045 81.3351C149.39 76.1067 144.219 72.1257 138.23 69.9295C138.624 68.3724 138.827 66.7729 138.833 65.1667C138.833 64.8182 138.799 64.4782 138.782 64.1325C145.15 66.1673 150.841 69.9011 155.244 74.9314C159.646 79.9617 162.592 86.098 163.765 92.6789C164.937 99.2599 164.292 106.036 161.899 112.278C159.505 118.519 155.453 123.989 150.181 128.098L148.569 124.23C148.351 123.725 148.086 123.242 147.775 122.788C151.185 119.868 153.923 116.245 155.803 112.168C157.683 108.091 158.66 103.656 158.667 99.1667V99.1667ZM73.6667 138.833C72.9152 138.833 72.1945 138.535 71.6632 138.003C71.1318 137.472 70.8333 136.751 70.8333 136C70.8326 135.622 70.9094 135.247 71.059 134.9C71.2086 134.552 71.4278 134.239 71.7032 133.98C71.959 133.719 72.2648 133.513 72.6021 133.373C72.9395 133.234 73.3015 133.163 73.6667 133.167H114.042L111.681 138.833H73.6667ZM120.898 131.444V131.43L122.989 126.409C123.205 125.892 123.569 125.451 124.036 125.141C124.502 124.83 125.05 124.665 125.61 124.667H140.723C141.282 124.667 141.829 124.832 142.294 125.142C142.76 125.452 143.123 125.893 143.338 126.409L154.417 153H111.917L120.898 131.444ZM65.1667 164.333C65.1667 162.83 65.7637 161.389 66.8264 160.326C67.8891 159.264 69.3304 158.667 70.8333 158.667H158.667C160.168 158.67 161.608 159.269 162.669 160.331C163.731 161.392 164.33 162.832 164.333 164.333H65.1667Z" fill="url(#paint0_linear)"/>
<path d="M119 56.6667C117.319 56.6667 115.675 57.1652 114.278 58.0992C112.88 59.0332 111.79 60.3607 111.147 61.9139C110.504 63.467 110.335 65.1761 110.663 66.8249C110.991 68.4738 111.801 69.9883 112.99 71.1771C114.178 72.3658 115.693 73.1754 117.342 73.5033C118.991 73.8313 120.7 73.663 122.253 73.0196C123.806 72.3763 125.134 71.2868 126.067 69.889C127.001 68.4912 127.5 66.8478 127.5 65.1667C127.5 62.9123 126.604 60.7503 125.01 59.1563C123.416 57.5622 121.254 56.6667 119 56.6667ZM119 68C118.44 68 117.892 67.8338 117.426 67.5225C116.96 67.2112 116.597 66.7687 116.382 66.2509C116.168 65.7332 116.112 65.1635 116.221 64.6139C116.33 64.0643 116.6 63.5594 116.997 63.1632C117.393 62.767 117.898 62.4971 118.447 62.3878C118.997 62.2785 119.567 62.3346 120.084 62.549C120.602 62.7635 121.045 63.1266 121.356 63.5926C121.667 64.0585 121.833 64.6063 121.833 65.1667C121.833 65.9181 121.535 66.6388 121.003 67.1701C120.472 67.7015 119.751 68 119 68Z" fill="url(#paint1_linear)"/>
<path d="M133.167 130.333C131.485 130.333 129.842 130.832 128.444 131.766C127.046 132.7 125.957 134.027 125.314 135.581C124.67 137.134 124.502 138.843 124.83 140.492C125.158 142.14 125.967 143.655 127.156 144.844C128.345 146.032 129.859 146.842 131.508 147.17C133.157 147.498 134.866 147.33 136.419 146.686C137.972 146.043 139.3 144.953 140.234 143.556C141.168 142.158 141.667 140.514 141.667 138.833C141.667 136.579 140.771 134.417 139.177 132.823C137.583 131.229 135.421 130.333 133.167 130.333V130.333ZM133.167 141.667C132.606 141.667 132.058 141.5 131.592 141.189C131.126 140.878 130.763 140.435 130.549 139.918C130.334 139.4 130.278 138.83 130.388 138.281C130.497 137.731 130.767 137.226 131.163 136.83C131.559 136.434 132.064 136.164 132.614 136.054C133.163 135.945 133.733 136.001 134.251 136.216C134.768 136.43 135.211 136.793 135.522 137.259C135.834 137.725 136 138.273 136 138.833C136 139.585 135.701 140.305 135.17 140.837C134.639 141.368 133.918 141.667 133.167 141.667Z" fill="url(#paint2_linear)"/>
<path d="M62.9767 125.154C63.507 124.447 63.8552 123.621 63.9906 122.748C64.126 121.875 64.0444 120.982 63.753 120.147L60.2963 110.231C61.9447 105.933 62.6098 101.321 62.2428 96.7328C61.6044 88.9262 58.0607 81.643 52.3119 76.3229C46.5632 71.0028 39.0278 68.0328 31.1952 68H31.1668C26.8455 68.0057 22.5724 68.9076 18.6173 70.6486C14.6622 72.3896 11.1112 74.9319 8.18851 78.115C5.24358 81.3023 3.00341 85.0744 1.61402 89.1854C0.224627 93.2965 -0.282791 97.6542 0.124842 101.974C0.779177 108.877 3.70307 115.367 8.43907 120.431C13.1751 125.495 19.456 128.845 26.2992 129.959C27.9164 130.208 29.5504 130.334 31.1867 130.333C36.3496 130.341 41.4312 129.048 45.9625 126.573L58.3838 127.276C59.2647 127.326 60.1442 127.158 60.9451 126.788C61.746 126.418 62.4436 125.857 62.9767 125.154ZM46.2883 120.921C45.2468 120.867 44.2104 121.101 43.2935 121.598C39.8792 123.444 36.0886 124.486 32.2106 124.645C28.3325 124.804 24.4693 124.076 20.9154 122.516C17.3615 120.955 14.2106 118.605 11.7029 115.642C9.1952 112.68 7.39684 109.184 6.44486 105.421C5.49288 101.658 5.41241 97.7279 6.20958 93.9293C7.00674 90.1307 8.66051 86.5643 11.0449 83.5017C13.4292 80.4391 16.4812 77.9612 19.9683 76.2568C23.4554 74.5524 27.2855 73.6665 31.1668 73.6667H31.1895C37.5782 73.7651 43.7053 76.2203 48.3942 80.5609C53.083 84.9014 56.0029 90.8212 56.5932 97.1833C56.8939 100.933 56.3518 104.703 55.0065 108.216C54.5212 109.464 54.4951 110.844 54.9328 112.109L58.2592 121.601L46.2883 120.921Z" fill="url(#paint3_linear)"/>
<path d="M79.3333 45.3333C78.5819 45.3333 77.8612 45.6319 77.3299 46.1632C76.7985 46.6946 76.5 47.4152 76.5 48.1667V79.3333C76.5 80.0848 76.7985 80.8055 77.3299 81.3368C77.8612 81.8682 78.5819 82.1667 79.3333 82.1667C80.0848 82.1667 80.8054 81.8682 81.3368 81.3368C81.8682 80.8055 82.1667 80.0848 82.1667 79.3333V48.1667C82.1667 47.4152 81.8682 46.6946 81.3368 46.1632C80.8054 45.6319 80.0848 45.3333 79.3333 45.3333Z" fill="url(#paint4_linear)"/>
<path d="M22.6665 90.6667C23.418 90.6667 24.1386 90.3682 24.67 89.8368C25.2013 89.3055 25.4998 88.5848 25.4998 87.8333C25.4998 87.0819 25.2013 86.3612 24.67 85.8299C24.1386 85.2985 23.418 85 22.6665 85C20.4122 85 18.2502 85.8955 16.6561 87.4896C15.062 89.0837 14.1665 91.2457 14.1665 93.5C14.1665 94.2514 14.465 94.9721 14.9964 95.5035C15.5277 96.0348 16.2484 96.3333 16.9998 96.3333C17.7513 96.3333 18.472 96.0348 19.0033 95.5035C19.5347 94.9721 19.8332 94.2514 19.8332 93.5C19.8332 92.7486 20.1317 92.0279 20.663 91.4965C21.1944 90.9652 21.9151 90.6667 22.6665 90.6667V90.6667Z" fill="url(#paint5_linear)"/>
<path d="M42.4998 85C42.4998 84.2485 42.2013 83.5279 41.67 82.9965C41.1386 82.4652 40.4179 82.1667 39.6665 82.1667C37.4122 82.1667 35.2502 83.0622 33.6561 84.6562C32.062 86.2503 31.1665 88.4123 31.1665 90.6667C31.1665 91.4181 31.465 92.1388 31.9964 92.6701C32.5277 93.2015 33.2484 93.5 33.9998 93.5C34.7513 93.5 35.472 93.2015 36.0033 92.6701C36.5347 92.1388 36.8332 91.4181 36.8332 90.6667C36.8332 89.9152 37.1317 89.1945 37.663 88.6632C38.1944 88.1318 38.9151 87.8333 39.6665 87.8333C40.4179 87.8333 41.1386 87.5348 41.67 87.0035C42.2013 86.4721 42.4998 85.7514 42.4998 85Z" fill="url(#paint6_linear)"/>
<path d="M22.6668 104.833C21.9154 104.833 21.1947 105.132 20.6634 105.663C20.132 106.195 19.8335 106.915 19.8335 107.667C19.8335 108.418 20.132 109.139 20.6634 109.67C21.1947 110.201 21.9154 110.5 22.6668 110.5C23.4183 110.5 24.1389 110.799 24.6703 111.33C25.2017 111.861 25.5002 112.582 25.5002 113.333C25.5002 114.085 25.7987 114.805 26.33 115.337C26.8614 115.868 27.582 116.167 28.3335 116.167C29.0849 116.167 29.8056 115.868 30.337 115.337C30.8683 114.805 31.1668 114.085 31.1668 113.333C31.1668 111.079 30.2713 108.917 28.6772 107.323C27.0832 105.729 24.9212 104.833 22.6668 104.833Z" fill="url(#paint7_linear)"/>
<path d="M49.0623 99.6058C48.0028 99.2529 46.8842 99.1122 45.7703 99.1918C44.6564 99.2713 43.5691 99.5696 42.5706 100.07C41.572 100.569 40.6818 101.261 39.9507 102.105C39.2196 102.95 38.662 103.929 38.3098 104.989C38.0729 105.702 38.1284 106.479 38.4642 107.15C38.7999 107.822 39.3884 108.333 40.1005 108.571C40.3896 108.669 40.6932 108.719 40.9986 108.718C41.5927 108.718 42.1717 108.531 42.6537 108.183C43.1357 107.836 43.4963 107.346 43.6846 106.783C43.8021 106.429 43.9881 106.102 44.2321 105.821C44.476 105.539 44.7731 105.309 45.1062 105.142C45.4394 104.976 45.8021 104.876 46.1737 104.85C46.5453 104.824 46.9184 104.871 47.2716 104.989C47.9855 105.227 48.7645 105.171 49.4372 104.834C50.1099 104.497 50.6212 103.907 50.8586 103.193C51.0961 102.479 51.0402 101.7 50.7034 101.027C50.3665 100.355 49.7762 99.8433 49.0623 99.6058V99.6058Z" fill="url(#paint8_linear)"/>
</g>
<defs>
<linearGradient id="paint0_linear" x1="114.75" y1="-1.52588e-05" x2="114.75" y2="170" gradientUnits="userSpaceOnUse">
<stop stop-color="#EE87EA"/>
<stop offset="1" stop-color="#27A0D5"/>
</linearGradient>
<linearGradient id="paint1_linear" x1="119" y1="56.6667" x2="119" y2="73.6667" gradientUnits="userSpaceOnUse">
<stop stop-color="#EE87EA"/>
<stop offset="1" stop-color="#27A0D5"/>
</linearGradient>
<linearGradient id="paint2_linear" x1="133.167" y1="130.333" x2="133.167" y2="147.333" gradientUnits="userSpaceOnUse">
<stop stop-color="#EE87EA"/>
<stop offset="1" stop-color="#27A0D5"/>
</linearGradient>
<linearGradient id="paint3_linear" x1="32.0212" y1="68" x2="32.0212" y2="130.333" gradientUnits="userSpaceOnUse">
<stop stop-color="#EE87EA"/>
<stop offset="1" stop-color="#27A0D5"/>
</linearGradient>
<linearGradient id="paint4_linear" x1="79.3333" y1="45.3333" x2="79.3333" y2="82.1667" gradientUnits="userSpaceOnUse">
<stop stop-color="#EE87EA"/>
<stop offset="1" stop-color="#27A0D5"/>
</linearGradient>
<linearGradient id="paint5_linear" x1="19.8332" y1="85" x2="19.8332" y2="96.3333" gradientUnits="userSpaceOnUse">
<stop stop-color="#EE87EA"/>
<stop offset="1" stop-color="#27A0D5"/>
</linearGradient>
<linearGradient id="paint6_linear" x1="36.8332" y1="82.1667" x2="36.8332" y2="93.5" gradientUnits="userSpaceOnUse">
<stop stop-color="#EE87EA"/>
<stop offset="1" stop-color="#27A0D5"/>
</linearGradient>
<linearGradient id="paint7_linear" x1="25.5002" y1="104.833" x2="25.5002" y2="116.167" gradientUnits="userSpaceOnUse">
<stop stop-color="#EE87EA"/>
<stop offset="1" stop-color="#27A0D5"/>
</linearGradient>
<linearGradient id="paint8_linear" x1="44.5843" y1="99.1702" x2="44.5843" y2="108.718" gradientUnits="userSpaceOnUse">
<stop stop-color="#EE87EA"/>
<stop offset="1" stop-color="#27A0D5"/>
</linearGradient>
<clipPath id="clip0">
<rect width="170" height="170" fill="white"/>
</clipPath>
</defs>
</svg>
