<svg width="170" height="170" viewBox="0 0 170 170" fill="none" xmlns="http://www.w3.org/2000/svg">
<g clip-path="url(#clip0)">
<path d="M110.693 43.19C110.204 42.7462 109.567 42.5003 108.906 42.5H61.0936C61.0697 42.5 61.05 42.513 61.0262 42.5136C60.7117 42.5203 60.4009 42.5829 60.1084 42.6986C59.9756 42.7649 59.8488 42.8426 59.7293 42.9308C59.5802 43.0031 59.4385 43.09 59.3063 43.19L0.868842 96.315C0.472349 96.6758 0.194271 97.1482 0.0711342 97.6699C-0.0520021 98.1917 -0.0144367 98.7385 0.178896 99.2385C0.372228 99.7386 0.712286 100.168 1.1544 100.472C1.59651 100.775 2.12 100.937 2.6561 100.938H18.5936V167.344C18.5934 167.693 18.662 168.038 18.7954 168.36C18.9288 168.683 19.1245 168.976 19.3712 169.222C19.6178 169.469 19.9108 169.665 20.2331 169.798C20.5555 169.932 20.901 170 21.2499 170H154.062C154.411 170 154.757 169.932 155.079 169.798C155.401 169.665 155.694 169.469 155.941 169.222C156.188 168.976 156.383 168.683 156.517 168.36C156.65 168.038 156.719 167.693 156.719 167.344V100.938H167.344C167.88 100.937 168.403 100.775 168.846 100.472C169.288 100.169 169.628 99.7388 169.821 99.2387C170.015 98.7386 170.052 98.1917 169.929 97.6699C169.806 97.1481 169.527 96.6758 169.131 96.315L110.693 43.19ZM98.2811 98.2812V164.688H23.9061V98.2812C23.9063 97.9324 23.8377 97.5869 23.7043 97.2645C23.5709 96.9421 23.3753 96.6492 23.1286 96.4025C22.8819 96.1559 22.589 95.9602 22.2666 95.8268C21.9442 95.6934 21.5987 95.6248 21.2499 95.625H9.52782L61.0936 48.7463L112.66 95.625H100.937C100.588 95.6248 100.243 95.6934 99.9206 95.8268C99.5983 95.9602 99.3053 96.1559 99.0586 96.4025C98.812 96.6492 98.6163 96.9422 98.4829 97.2645C98.3495 97.5869 98.2809 97.9324 98.2811 98.2812V98.2812ZM151.406 164.688H103.594V100.938H151.406V164.688ZM120.559 95.625L67.9655 47.8125H107.879L160.472 95.625H120.559Z" fill="url(#paint0_linear)"/>
<path d="M77.9392 99.7494L68.3279 94.9438C68.6021 94.5083 68.7555 94.2111 68.7824 94.1568C68.9666 93.7879 69.0625 93.3811 69.0625 92.9688V82.3438C69.0625 81.9314 68.9666 81.5246 68.7823 81.1557C67.7972 79.2229 66.3247 77.5808 64.5104 76.3915C62.6961 75.2023 60.6028 74.5072 58.4375 74.375C56.2722 74.5072 54.1789 75.2023 52.3646 76.3915C50.5503 77.5808 49.0778 79.2229 48.0927 81.1557C47.9084 81.5246 47.8125 81.9314 47.8125 82.3438V92.9688C47.8125 93.3811 47.9084 93.7879 48.0927 94.1568C48.1196 94.2111 48.2729 94.5083 48.5471 94.9438L38.9359 99.7494C37.6093 100.408 36.4935 101.424 35.7151 102.684C34.9366 103.944 34.5265 105.397 34.5312 106.878V127.5C34.5313 127.993 34.6687 128.477 34.928 128.897C35.1873 129.316 35.5583 129.655 35.9994 129.876L45.1562 134.454V156.719C45.156 157.068 45.2246 157.413 45.358 157.735C45.4915 158.058 45.6871 158.351 45.9338 158.597C46.1805 158.844 46.4734 159.04 46.7958 159.173C47.1181 159.307 47.4636 159.375 47.8125 159.375H69.0625C69.4114 159.375 69.7569 159.307 70.0792 159.173C70.4016 159.04 70.6945 158.844 70.9412 158.597C71.1879 158.351 71.3835 158.058 71.517 157.735C71.6504 157.413 71.7189 157.068 71.7187 156.719V134.454L80.8755 129.876C81.3167 129.655 81.6877 129.316 81.947 128.897C82.2063 128.477 82.3437 127.993 82.3437 127.5V106.878C82.3485 105.397 81.9384 103.944 81.1599 102.684C80.3815 101.424 79.2658 100.408 77.9392 99.7494V99.7494ZM53.125 83.0675C53.6743 82.1192 54.4438 81.317 55.3685 80.7287C56.2931 80.1404 57.3458 79.7833 58.4375 79.6875C59.5292 79.7833 60.5819 80.1405 61.5065 80.7288C62.4311 81.317 63.2006 82.1192 63.75 83.0675V92.245C63.2007 93.1933 62.4312 93.9955 61.5065 94.5838C60.5819 95.1721 59.5292 95.5292 58.4375 95.625C57.3458 95.5292 56.2931 95.172 55.3685 94.5838C54.4439 93.9955 53.6744 93.1933 53.125 92.245V83.0675ZM77.0312 125.858L71.7187 128.514V114.219C71.7187 113.514 71.4389 112.839 70.9408 112.34C70.4426 111.842 69.767 111.562 69.0625 111.562C68.358 111.562 67.6824 111.842 67.1842 112.34C66.6861 112.839 66.4062 113.514 66.4062 114.219V154.062H61.0937V130.156C61.0937 129.452 60.8139 128.776 60.3158 128.278C59.8176 127.78 59.142 127.5 58.4375 127.5C57.733 127.5 57.0574 127.78 56.5592 128.278C56.0611 128.776 55.7812 129.452 55.7812 130.156V154.062H50.4687V114.219C50.4687 113.514 50.1889 112.839 49.6908 112.34C49.1926 111.842 48.517 111.562 47.8125 111.562C47.108 111.562 46.4324 111.842 45.9342 112.34C45.4361 112.839 45.1562 113.514 45.1562 114.219V128.514L39.8437 125.858V106.878C39.8417 106.384 39.9782 105.9 40.2378 105.48C40.4973 105.06 40.8695 104.721 41.312 104.502L52.3543 98.9805C54.1274 100.253 56.255 100.937 58.4375 100.938C60.62 100.937 62.7476 100.253 64.5207 98.9805L75.563 104.502C76.0055 104.721 76.3777 105.06 76.6372 105.48C76.8968 105.9 77.0333 106.384 77.0312 106.878V125.858Z" fill="url(#paint1_linear)"/>
<path d="M23.9062 39.8438C27.0584 39.8438 30.1397 38.909 32.7607 37.1578C35.3816 35.4066 37.4243 32.9175 38.6306 30.0053C39.8369 27.0931 40.1525 23.8886 39.5375 20.797C38.9226 17.7054 37.4047 14.8656 35.1758 12.6367C32.9469 10.4078 30.1071 8.88994 27.0155 8.27499C23.9239 7.66004 20.7194 7.97566 17.8072 9.18193C14.895 10.3882 12.4059 12.4309 10.6547 15.0519C8.90347 17.6728 7.96875 20.7541 7.96875 23.9063C7.97336 28.1317 9.65397 32.1828 12.6418 35.1707C15.6297 38.1585 19.6808 39.8391 23.9062 39.8438V39.8438ZM23.9062 13.2813C26.0077 13.2813 28.0619 13.9044 29.8092 15.0719C31.5565 16.2394 32.9183 17.8988 33.7225 19.8402C34.5267 21.7817 34.7371 23.918 34.3271 25.9791C33.9171 28.0401 32.9052 29.9333 31.4193 31.4193C29.9333 32.9052 28.0401 33.9171 25.9791 34.3271C23.918 34.7371 21.7817 34.5267 19.8402 33.7225C17.8988 32.9183 16.2394 31.5565 15.0719 29.8092C13.9044 28.0619 13.2813 26.0077 13.2812 23.9063C13.2841 21.0892 14.4044 18.3883 16.3963 16.3964C18.3883 14.4044 21.0892 13.2841 23.9062 13.2813V13.2813Z" fill="url(#paint2_linear)"/>
<path d="M26.5626 0H21.2501V5.3125H26.5626V0Z" fill="url(#paint3_linear)"/>
<path d="M5.31254 21.25H4.00543e-05V26.5625H5.31254V21.25Z" fill="url(#paint4_linear)"/>
<path d="M10.6251 5.3125H5.31261V10.625H10.6251V5.3125Z" fill="url(#paint5_linear)"/>
<path d="M10.6251 37.1875H5.31261V42.5H10.6251V37.1875Z" fill="url(#paint6_linear)"/>
<path d="M42.5 5.3125H37.1875V10.625H42.5V5.3125Z" fill="url(#paint7_linear)"/>
<path d="M42.5 37.1875H37.1875V42.5H42.5V37.1875Z" fill="url(#paint8_linear)"/>
<path d="M47.8125 21.25H42.5V26.5625H47.8125V21.25Z" fill="url(#paint9_linear)"/>
<path d="M26.5626 42.5H21.2501V47.8125H26.5626V42.5Z" fill="url(#paint10_linear)"/>
<path d="M151.406 36.1539C155.76 36.1562 159.976 34.6299 163.32 31.8411C166.663 29.0523 168.921 25.1782 169.7 20.8946C170.479 16.6111 169.729 12.1901 167.581 8.40293C165.433 4.61579 162.024 1.70296 157.948 0.172639C157.47 -0.00745495 156.95 -0.0458731 156.451 0.0619886C155.952 0.16985 155.494 0.419415 155.133 0.780775C154.772 1.14213 154.523 1.59996 154.415 2.09937C154.308 2.59879 154.346 3.11861 154.527 3.59655C155.433 5.98322 155.63 8.58089 155.094 11.077C154.559 13.5731 153.313 15.8612 151.508 17.6661C149.703 19.471 147.414 20.7157 144.918 21.2505C142.422 21.7853 139.824 21.5874 137.438 20.6806C136.96 20.5014 136.44 20.4636 135.941 20.5719C135.443 20.6801 134.985 20.9298 134.625 21.291C134.264 21.6522 134.015 22.1097 133.908 22.6086C133.8 23.1076 133.839 23.627 134.019 24.1047C135.358 27.6358 137.737 30.6777 140.842 32.8288C143.946 34.98 147.63 36.1394 151.406 36.1539V36.1539ZM143.28 26.5618C145.747 26.5798 148.193 26.1071 150.476 25.1711C152.76 24.2352 154.834 22.8547 156.579 21.1099C158.323 19.3651 159.704 17.2908 160.64 15.0077C161.576 12.7246 162.048 10.2782 162.03 7.81079L162.031 7.81047C164.198 9.9335 165.572 12.734 165.927 15.7465C166.281 18.7591 165.594 21.8022 163.98 24.3701C162.875 26.1883 161.32 27.6917 159.466 28.7359C156.912 30.2282 153.932 30.8249 150.999 30.4312C148.067 30.0374 145.35 28.6759 143.279 26.5625L143.28 26.5618Z" fill="url(#paint11_linear)"/>
</g>
<defs>
<linearGradient id="paint0_linear" x1="85.0001" y1="42.5" x2="85.0001" y2="170" gradientUnits="userSpaceOnUse">
<stop stop-color="#EE87EA"/>
<stop offset="1" stop-color="#27A0D4"/>
</linearGradient>
<linearGradient id="paint1_linear" x1="58.4375" y1="74.375" x2="58.4375" y2="159.375" gradientUnits="userSpaceOnUse">
<stop stop-color="#EE87EA"/>
<stop offset="1" stop-color="#27A0D4"/>
</linearGradient>
<linearGradient id="paint2_linear" x1="23.9063" y1="7.96875" x2="23.9063" y2="39.8438" gradientUnits="userSpaceOnUse">
<stop stop-color="#EE87EA"/>
<stop offset="1" stop-color="#27A0D4"/>
</linearGradient>
<linearGradient id="paint3_linear" x1="23.9063" y1="0" x2="23.9063" y2="5.3125" gradientUnits="userSpaceOnUse">
<stop stop-color="#EE87EA"/>
<stop offset="1" stop-color="#27A0D4"/>
</linearGradient>
<linearGradient id="paint4_linear" x1="2.65629" y1="21.25" x2="2.65629" y2="26.5625" gradientUnits="userSpaceOnUse">
<stop stop-color="#EE87EA"/>
<stop offset="1" stop-color="#27A0D4"/>
</linearGradient>
<linearGradient id="paint5_linear" x1="7.96886" y1="5.3125" x2="7.96886" y2="10.625" gradientUnits="userSpaceOnUse">
<stop stop-color="#EE87EA"/>
<stop offset="1" stop-color="#27A0D4"/>
</linearGradient>
<linearGradient id="paint6_linear" x1="7.96886" y1="37.1875" x2="7.96886" y2="42.5" gradientUnits="userSpaceOnUse">
<stop stop-color="#EE87EA"/>
<stop offset="1" stop-color="#27A0D4"/>
</linearGradient>
<linearGradient id="paint7_linear" x1="39.8438" y1="5.3125" x2="39.8438" y2="10.625" gradientUnits="userSpaceOnUse">
<stop stop-color="#EE87EA"/>
<stop offset="1" stop-color="#27A0D4"/>
</linearGradient>
<linearGradient id="paint8_linear" x1="39.8438" y1="37.1875" x2="39.8438" y2="42.5" gradientUnits="userSpaceOnUse">
<stop stop-color="#EE87EA"/>
<stop offset="1" stop-color="#27A0D4"/>
</linearGradient>
<linearGradient id="paint9_linear" x1="45.1563" y1="21.25" x2="45.1563" y2="26.5625" gradientUnits="userSpaceOnUse">
<stop stop-color="#EE87EA"/>
<stop offset="1" stop-color="#27A0D4"/>
</linearGradient>
<linearGradient id="paint10_linear" x1="23.9063" y1="42.5" x2="23.9063" y2="47.8125" gradientUnits="userSpaceOnUse">
<stop stop-color="#EE87EA"/>
<stop offset="1" stop-color="#27A0D4"/>
</linearGradient>
<linearGradient id="paint11_linear" x1="151.924" y1="0.00210571" x2="151.924" y2="36.1539" gradientUnits="userSpaceOnUse">
<stop stop-color="#EE87EA"/>
<stop offset="1" stop-color="#27A0D4"/>
</linearGradient>
<clipPath id="clip0">
<rect width="170" height="170" fill="white"/>
</clipPath>
</defs>
</svg>
