<svg width="170" height="170" viewBox="0 0 170 170" fill="none" xmlns="http://www.w3.org/2000/svg">
<g clip-path="url(#clip0)">
<path d="M89.6977 128.424L76.5 125.264V115.569C77.163 115.002 77.8373 114.418 78.5428 113.806C80.8095 111.823 83.3595 109.602 86.7085 107.094C91.1707 103.323 94.1966 98.1284 95.2765 92.3865C97.2801 91.2956 98.9564 89.6899 100.132 87.735C101.308 85.7801 101.941 83.5468 101.966 81.2657C103.53 73.7742 104.471 66.1663 104.779 58.5197C105.035 54.3006 104.417 50.0743 102.963 46.1053C101.51 42.1362 99.2528 38.51 96.3333 35.4535C92.3419 31.2161 87.252 28.1704 81.6312 26.656C80.6075 22.3043 78.1436 18.426 74.6392 15.6503C71.1347 12.8747 66.7953 11.3643 62.3248 11.3643C57.8543 11.3643 53.5149 12.8747 50.0105 15.6503C46.5061 18.426 44.0422 22.3043 43.0185 26.656C37.4037 28.1733 32.3201 31.2187 28.3333 35.4535C25.4153 38.5107 23.1598 42.1373 21.708 46.1063C20.2561 50.0753 19.6391 54.3012 19.8957 58.5197C20.2046 66.1663 21.1456 73.7742 22.7092 81.2657C22.734 83.5468 23.367 85.7801 24.5429 87.735C25.7188 89.6899 27.3951 91.2956 29.3987 92.3865C30.4787 98.13 33.5044 103.326 37.9667 107.1C41.2987 109.602 43.86 111.834 46.1238 113.806C46.8293 114.418 47.5037 115.008 48.1667 115.569V125.264L34.9407 128.432C28.1935 130.11 22.2026 133.999 17.9238 139.479C13.645 144.959 11.3248 151.714 11.3333 158.667V161.5C11.3333 163.754 12.2289 165.916 13.8229 167.51C15.417 169.104 17.579 170 19.8333 170H104.833C107.088 170 109.25 169.104 110.844 167.51C112.438 165.916 113.333 163.754 113.333 161.5V158.667C113.34 151.709 111.016 144.95 106.732 139.468C102.448 133.987 96.4505 130.098 89.6977 128.424V128.424ZM62.3333 17C65.1003 17.0091 67.8038 17.8293 70.1093 19.3593C72.4147 20.8892 74.221 23.0616 75.3043 25.6077C74.5875 25.5595 73.8877 25.5 73.151 25.5H51.5157C50.7903 25.5 50.0792 25.5595 49.3623 25.6077C50.4457 23.0616 52.2519 20.8892 54.5574 19.3593C56.8629 17.8293 59.5664 17.0091 62.3333 17ZM32.4445 39.3437C36.0572 35.4982 40.7608 32.8513 45.9227 31.7588C46.0761 31.7417 46.2278 31.7114 46.376 31.6682C48.0691 31.3362 49.7903 31.1682 51.5157 31.1667H73.151C74.8322 31.1704 76.5093 31.3317 78.1603 31.6483C78.3719 31.7164 78.5905 31.7602 78.812 31.7787C83.9477 32.877 88.626 35.5162 92.2222 39.3437C94.6076 41.8418 96.4518 44.8053 97.6394 48.0488C98.827 51.2923 99.3325 54.746 99.1242 58.1938C98.8238 63.376 98.3903 67.6543 97.9568 71.026C97.4353 70.5206 96.866 70.0671 96.2568 69.6717C95.8133 64.5784 93.4776 59.8361 89.7104 56.3798C85.9431 52.9235 81.0176 51.0041 75.905 51C71.5625 50.9734 67.4057 49.2355 64.3365 46.1635C63.8052 45.6323 63.0846 45.3339 62.3333 45.3339C61.582 45.3339 60.8615 45.6323 60.3302 46.1635C57.2609 49.2355 53.1041 50.9734 48.7617 51C43.6486 51.0034 38.7224 52.9225 34.9545 56.3788C31.1866 59.8352 28.8506 64.5779 28.407 69.6717C27.7979 70.0671 27.2285 70.5206 26.707 71.026C26.2735 67.6543 25.84 63.376 25.5397 58.1938C25.3318 54.7458 25.8377 51.292 27.0258 48.0485C28.2139 44.805 30.0586 41.8416 32.4445 39.3437V39.3437ZM41.3667 102.567C37.7089 99.2112 35.3253 94.6932 34.6205 89.7798C34.5217 89.2736 34.2867 88.804 33.9407 88.4215C33.5947 88.0391 33.1508 87.7583 32.657 87.6095C31.3969 87.0034 30.327 86.0636 29.5636 84.8921C28.8002 83.7206 28.3724 82.3623 28.3269 80.9647C28.2813 79.5672 28.6196 78.1839 29.3051 76.9651C29.9906 75.7464 30.997 74.7389 32.215 74.052C32.7404 73.8428 33.1912 73.4811 33.5093 73.0135C33.8274 72.5459 33.9983 71.9939 34 71.4283C33.9848 68.626 34.7787 65.8788 36.2865 63.5167C37.7942 61.1545 39.9518 59.2777 42.5 58.1117V65.1667C42.5 65.9181 42.7985 66.6388 43.3299 67.1701C43.8612 67.7015 44.5819 68 45.3333 68C46.0848 68 46.8055 67.7015 47.3368 67.1701C47.8682 66.6388 48.1667 65.9181 48.1667 65.1667V56.7262C48.3678 56.7262 48.5605 56.6667 48.7617 56.6667C50.4733 56.641 52.1758 56.4118 53.8333 55.9838V56.6667C53.8333 57.4181 54.1318 58.1388 54.6632 58.6701C55.1946 59.2015 55.9152 59.5 56.6667 59.5C57.4181 59.5 58.1388 59.2015 58.6701 58.6701C59.2015 58.1388 59.5 57.4181 59.5 56.6667V53.805C60.4905 53.2577 61.4377 52.6353 62.3333 51.9435C66.2071 54.9815 70.9821 56.6433 75.905 56.6667C79.8191 56.6697 83.5721 58.2259 86.3398 60.9936C89.1075 63.7613 90.6637 67.5142 90.6667 71.4283C90.6666 71.9938 90.8357 72.5464 91.1523 73.015C91.4689 73.4836 91.9185 73.8467 92.4432 74.0577C93.6611 74.7445 94.6675 75.7521 95.353 76.9708C96.0385 78.1895 96.3769 79.5728 96.3313 80.9704C96.2857 82.3679 95.858 83.7262 95.0946 84.8977C94.3312 86.0692 93.2613 87.0091 92.0012 87.6152C91.5073 87.764 91.0635 88.0447 90.7175 88.4272C90.3715 88.8096 90.1364 89.2793 90.0377 89.7855C89.3337 94.6956 86.9533 99.2112 83.3 102.567C79.8008 105.19 77.1517 107.497 74.817 109.534C69.751 113.951 67.2095 116.167 62.3333 116.167C57.4572 116.167 54.9157 113.951 49.8497 109.534C47.515 107.497 44.8658 105.19 41.3667 102.567ZM62.3333 121.833C65.3073 121.877 68.2398 121.133 70.8333 119.677V127.072C70.2306 128.848 69.0867 130.391 67.5621 131.484C66.0375 132.576 64.209 133.164 62.3333 133.164C60.4577 133.164 58.6291 132.576 57.1046 131.484C55.58 130.391 54.436 128.848 53.8333 127.072V119.677C56.4269 121.133 59.3594 121.877 62.3333 121.833V121.833ZM107.667 161.5C107.667 162.251 107.368 162.972 106.837 163.503C106.305 164.035 105.585 164.333 104.833 164.333H93.5V155.833C93.5 155.082 93.2015 154.361 92.6701 153.83C92.1388 153.299 91.4181 153 90.6667 153C89.9152 153 89.1945 153.299 88.6632 153.83C88.1318 154.361 87.8333 155.082 87.8333 155.833V164.333H36.8333V155.833C36.8333 155.082 36.5348 154.361 36.0035 153.83C35.4721 153.299 34.7515 153 34 153C33.2486 153 32.5279 153.299 31.9965 153.83C31.4652 154.361 31.1667 155.082 31.1667 155.833V164.333H19.8333C19.0819 164.333 18.3612 164.035 17.8299 163.503C17.2985 162.972 17 162.251 17 161.5V158.667C16.9914 152.983 18.8858 147.459 22.3812 142.977C25.8765 138.495 30.7717 135.311 36.2865 133.934L49.2972 130.818C50.5177 133.226 52.3818 135.249 54.6825 136.663C56.9831 138.076 59.6304 138.824 62.3305 138.824C65.0306 138.824 67.6779 138.076 69.9785 136.663C72.2792 135.249 74.1433 133.226 75.3638 130.818L88.349 133.934C93.8691 135.306 98.7707 138.487 102.272 142.97C105.773 147.453 107.673 152.979 107.667 158.667V161.5Z" fill="url(#paint0_linear)"/>
<path d="M150.679 31.1667C148.087 31.1271 145.513 31.6034 143.107 32.568C140.701 33.5326 138.51 34.9661 136.663 36.7852C134.67 38.7293 133.085 41.0504 131.998 43.6135C130.911 46.1765 130.345 48.9301 130.333 51.714V111.463C130.333 116.896 131.751 122.234 134.447 126.95L138.306 133.705C140.506 137.558 141.665 141.919 141.667 146.356V161.5C141.671 163.755 142.57 165.917 144.166 167.51C145.762 169.104 147.925 169.999 150.181 170C150.656 169.999 151.129 169.959 151.597 169.881C153.609 169.481 155.418 168.389 156.709 166.795C158 165.201 158.693 163.206 158.667 161.154V146.356C158.669 141.919 159.827 137.558 162.027 133.705L165.886 126.953C168.581 122.236 169.999 116.897 170 111.463V51C169.995 45.8297 167.973 40.8653 164.365 37.1618C160.758 33.4583 155.848 31.3075 150.679 31.1667V31.1667ZM150.679 164.285C150.27 164.359 149.85 164.341 149.449 164.233C149.048 164.125 148.675 163.929 148.359 163.659C148.042 163.395 147.786 163.065 147.609 162.692C147.432 162.319 147.338 161.913 147.333 161.5V155.833H153V161.154C153.027 161.865 152.81 162.564 152.386 163.134C151.961 163.705 151.354 164.113 150.665 164.291L150.679 164.285ZM164.333 111.463C164.332 115.909 163.172 120.277 160.967 124.137L157.105 130.9C154.418 135.608 153.003 140.935 153 146.356V150.167H147.333V146.356C147.33 140.935 145.915 135.608 143.228 130.9L139.366 124.143C137.16 120.281 136 115.911 136 111.463V51.714C136.012 49.687 136.427 47.6827 137.22 45.8173C138.013 43.952 139.17 42.2629 140.621 40.8482C143.165 38.3027 146.608 36.8605 150.206 36.8333H150.535C154.226 36.9358 157.732 38.4727 160.308 41.1177C162.884 43.7627 164.328 47.3077 164.333 51V111.463Z" fill="url(#paint1_linear)"/>
<path d="M150.167 51C147.912 51 145.75 51.8955 144.156 53.4896C142.562 55.0837 141.667 57.2457 141.667 59.5V82.1667C141.667 84.421 142.562 86.583 144.156 88.1771C145.75 89.7711 147.912 90.6667 150.167 90.6667C152.421 90.6667 154.583 89.7711 156.177 88.1771C157.771 86.583 158.667 84.421 158.667 82.1667V59.5C158.667 57.2457 157.771 55.0837 156.177 53.4896C154.583 51.8955 152.421 51 150.167 51V51ZM150.167 56.6667C150.918 56.6667 151.639 56.9652 152.17 57.4965C152.701 58.0279 153 58.7486 153 59.5V63.9937L147.333 69.6603V59.5C147.333 58.7486 147.632 58.0279 148.163 57.4965C148.695 56.9652 149.415 56.6667 150.167 56.6667ZM150.167 85C149.415 85 148.695 84.7015 148.163 84.1701C147.632 83.6388 147.333 82.9181 147.333 82.1667V77.673L153 72.0063V82.1667C153 82.9181 152.701 83.6388 152.17 84.1701C151.639 84.7015 150.918 85 150.167 85Z" fill="url(#paint2_linear)"/>
<path d="M59.024 103.573C59.4247 103.076 59.932 102.676 60.5082 102.403C61.0845 102.129 61.7149 101.989 62.3529 101.992C62.9908 101.995 63.6198 102.142 64.1932 102.422C64.7666 102.701 65.2698 103.106 65.6653 103.607C66.0869 104.229 66.7384 104.658 67.4764 104.8C68.2145 104.942 68.9786 104.785 69.6008 104.363C70.223 103.941 70.6523 103.29 70.7942 102.552C70.936 101.814 70.7789 101.05 70.3573 100.428C69.4375 99.1609 68.231 98.1301 66.8364 97.4193C65.4417 96.7085 63.8987 96.338 62.3333 96.338C60.768 96.338 59.225 96.7085 57.8303 97.4193C56.4357 98.1301 55.2291 99.1609 54.3093 100.428C53.8923 101.053 53.7407 101.818 53.8879 102.555C54.035 103.292 54.469 103.94 55.0942 104.357C55.7194 104.774 56.4847 104.926 57.2216 104.779C57.9586 104.632 58.607 104.198 59.024 103.573V103.573Z" fill="url(#paint3_linear)"/>
<path d="M45.3333 73.6667C44.5819 73.6667 43.8612 73.9652 43.3299 74.4965C42.7985 75.0279 42.5 75.7486 42.5 76.5V79.3333C42.5 80.0848 42.7985 80.8054 43.3299 81.3368C43.8612 81.8682 44.5819 82.1667 45.3333 82.1667C46.0848 82.1667 46.8055 81.8682 47.3368 81.3368C47.8682 80.8054 48.1667 80.0848 48.1667 79.3333V76.5C48.1667 75.7486 47.8682 75.0279 47.3368 74.4965C46.8055 73.9652 46.0848 73.6667 45.3333 73.6667Z" fill="url(#paint4_linear)"/>
<path d="M76.5 82.1667C77.2514 82.1667 77.9721 81.8682 78.5035 81.3368C79.0348 80.8054 79.3333 80.0848 79.3333 79.3333V76.5C79.3333 75.7486 79.0348 75.0279 78.5035 74.4965C77.9721 73.9652 77.2514 73.6667 76.5 73.6667C75.7485 73.6667 75.0279 73.9652 74.4965 74.4965C73.9652 75.0279 73.6667 75.7486 73.6667 76.5V79.3333C73.6667 80.0848 73.9652 80.8054 74.4965 81.3368C75.0279 81.8682 75.7485 82.1667 76.5 82.1667Z" fill="url(#paint5_linear)"/>
<path d="M60.1233 90.6667H62.3333C63.0848 90.6667 63.8055 90.3682 64.3368 89.8368C64.8682 89.3055 65.1667 88.5848 65.1667 87.8333C65.1667 87.0819 64.8682 86.3612 64.3368 85.8299C63.8055 85.2985 63.0848 85 62.3333 85L60.0667 85.1842L62.2228 77.2508C62.3252 76.8903 62.355 76.513 62.3105 76.1408C62.266 75.7687 62.1481 75.409 61.9636 75.0828C61.7791 74.7565 61.5318 74.4701 61.2358 74.2401C60.9399 74.0101 60.6013 73.8411 60.2395 73.7429C59.8778 73.6447 59.5002 73.6192 59.1286 73.6679C58.757 73.7167 58.3987 73.8387 58.0746 74.0269C57.7504 74.2151 57.4669 74.4657 57.2403 74.7643C57.0137 75.0628 56.8486 75.4034 56.7545 75.7662L54.5558 83.895C54.3923 84.7176 54.4134 85.5662 54.6176 86.3796C54.8217 87.193 55.2039 87.951 55.7365 88.5988C56.2692 89.2466 56.9389 89.7682 57.6975 90.1258C58.4562 90.4833 59.2847 90.6681 60.1233 90.6667Z" fill="url(#paint6_linear)"/>
<path d="M153 99.1667H147.333C146.582 99.1667 145.861 99.4652 145.33 99.9965C144.799 100.528 144.5 101.249 144.5 102C144.5 102.751 144.799 103.472 145.33 104.003C145.861 104.535 146.582 104.833 147.333 104.833H153C153.751 104.833 154.472 104.535 155.003 104.003C155.535 103.472 155.833 102.751 155.833 102C155.833 101.249 155.535 100.528 155.003 99.9965C154.472 99.4652 153.751 99.1667 153 99.1667Z" fill="url(#paint7_linear)"/>
<path d="M8.49997 25.5C8.49997 24.7486 8.20146 24.0279 7.67011 23.4965C7.13876 22.9652 6.41809 22.6667 5.66664 22.6667C4.91519 22.6667 4.19452 22.9652 3.66317 23.4965C3.13182 24.0279 2.83331 24.7486 2.83331 25.5C2.89022 27.5768 2.4746 29.6395 1.61781 31.5322C0.492466 34.0935 -0.0596867 36.8697 -2.68128e-05 39.6667C-0.0596867 42.4636 0.492466 45.2399 1.61781 47.8012C2.4746 49.6939 2.89022 51.7565 2.83331 53.8333C2.83331 54.5848 3.13182 55.3055 3.66317 55.8368C4.19452 56.3682 4.91519 56.6667 5.66664 56.6667C6.41809 56.6667 7.13876 56.3682 7.67011 55.8368C8.20146 55.3055 8.49997 54.5848 8.49997 53.8333C8.55963 51.0364 8.00748 48.2601 6.88214 45.6988C6.02535 43.8061 5.60973 41.7435 5.66664 39.6667C5.60973 37.5898 6.02535 35.5272 6.88214 33.6345C8.00748 31.0732 8.55963 28.297 8.49997 25.5Z" fill="url(#paint8_linear)"/>
<path d="M22.6666 2.83333C22.6666 2.08189 22.3681 1.36122 21.8368 0.829864C21.3054 0.298511 20.5847 0 19.8333 0C19.0819 0 18.3612 0.298511 17.8298 0.829864C17.2985 1.36122 17 2.08189 17 2.83333C17.0569 4.91016 16.6413 6.97278 15.7845 8.8655C14.6591 11.4268 14.107 14.203 14.1666 17C14.107 19.797 14.6591 22.5732 15.7845 25.1345C16.6413 27.0272 17.0569 29.0898 17 31.1667C17 31.9181 17.2985 32.6388 17.8298 33.1701C18.3612 33.7015 19.0819 34 19.8333 34C20.5847 34 21.3054 33.7015 21.8368 33.1701C22.3681 32.6388 22.6666 31.9181 22.6666 31.1667C22.7263 28.3697 22.1741 25.5935 21.0488 23.0322C20.192 21.1394 19.7764 19.0768 19.8333 17C19.7764 14.9232 20.192 12.8605 21.0488 10.9678C22.1741 8.40654 22.7263 5.63031 22.6666 2.83333V2.83333Z" fill="url(#paint9_linear)"/>
<path d="M121.833 25.5C121.833 24.7486 121.535 24.0279 121.003 23.4965C120.472 22.9652 119.751 22.6667 119 22.6667C118.249 22.6667 117.528 22.9652 116.997 23.4965C116.465 24.0279 116.167 24.7486 116.167 25.5C116.107 28.297 116.659 31.0732 117.785 33.6345C118.641 35.5272 119.057 37.5898 119 39.6667C119.057 41.7435 118.641 43.8061 117.785 45.6988C116.659 48.2601 116.107 51.0364 116.167 53.8333C116.167 54.5848 116.465 55.3055 116.997 55.8368C117.528 56.3682 118.249 56.6667 119 56.6667C119.751 56.6667 120.472 56.3682 121.003 55.8368C121.535 55.3055 121.833 54.5848 121.833 53.8333C121.776 51.7565 122.192 49.6939 123.049 47.8012C124.174 45.2399 124.726 42.4636 124.667 39.6667C124.726 36.8697 124.174 34.0935 123.049 31.5322C122.192 29.6395 121.776 27.5768 121.833 25.5Z" fill="url(#paint10_linear)"/>
<path d="M102 31.1667C102 31.9181 102.299 32.6388 102.83 33.1701C103.361 33.7015 104.082 34 104.833 34C105.585 34 106.305 33.7015 106.837 33.1701C107.368 32.6388 107.667 31.9181 107.667 31.1667C107.61 29.0898 108.025 27.0272 108.882 25.1345C110.008 22.5732 110.56 19.797 110.5 17C110.56 14.203 110.008 11.4268 108.882 8.8655C108.025 6.97278 107.61 4.91016 107.667 2.83333C107.667 2.08189 107.368 1.36122 106.837 0.829864C106.305 0.298511 105.585 0 104.833 0C104.082 0 103.361 0.298511 102.83 0.829864C102.299 1.36122 102 2.08189 102 2.83333C101.94 5.63031 102.493 8.40654 103.618 10.9678C104.475 12.8605 104.89 14.9232 104.833 17C104.89 19.0768 104.475 21.1394 103.618 23.0322C102.493 25.5935 101.94 28.3697 102 31.1667V31.1667Z" fill="url(#paint11_linear)"/>
</g>
<defs>
<linearGradient id="paint0_linear" x1="62.3333" y1="11.3643" x2="62.3333" y2="170" gradientUnits="userSpaceOnUse">
<stop stop-color="#EE87EA"/>
<stop offset="1" stop-color="#27A0D4"/>
</linearGradient>
<linearGradient id="paint1_linear" x1="150.167" y1="31.1644" x2="150.167" y2="170" gradientUnits="userSpaceOnUse">
<stop stop-color="#EE87EA"/>
<stop offset="1" stop-color="#27A0D4"/>
</linearGradient>
<linearGradient id="paint2_linear" x1="150.167" y1="51" x2="150.167" y2="90.6667" gradientUnits="userSpaceOnUse">
<stop stop-color="#EE87EA"/>
<stop offset="1" stop-color="#27A0D4"/>
</linearGradient>
<linearGradient id="paint3_linear" x1="62.339" y1="96.338" x2="62.339" y2="104.851" gradientUnits="userSpaceOnUse">
<stop stop-color="#EE87EA"/>
<stop offset="1" stop-color="#27A0D4"/>
</linearGradient>
<linearGradient id="paint4_linear" x1="45.3333" y1="73.6667" x2="45.3333" y2="82.1667" gradientUnits="userSpaceOnUse">
<stop stop-color="#EE87EA"/>
<stop offset="1" stop-color="#27A0D4"/>
</linearGradient>
<linearGradient id="paint5_linear" x1="76.5" y1="73.6667" x2="76.5" y2="82.1667" gradientUnits="userSpaceOnUse">
<stop stop-color="#EE87EA"/>
<stop offset="1" stop-color="#27A0D4"/>
</linearGradient>
<linearGradient id="paint6_linear" x1="59.8069" y1="73.6439" x2="59.8069" y2="90.6667" gradientUnits="userSpaceOnUse">
<stop stop-color="#EE87EA"/>
<stop offset="1" stop-color="#27A0D4"/>
</linearGradient>
<linearGradient id="paint7_linear" x1="150.167" y1="99.1667" x2="150.167" y2="104.833" gradientUnits="userSpaceOnUse">
<stop stop-color="#EE87EA"/>
<stop offset="1" stop-color="#27A0D4"/>
</linearGradient>
<linearGradient id="paint8_linear" x1="4.24997" y1="22.6667" x2="4.24997" y2="56.6667" gradientUnits="userSpaceOnUse">
<stop stop-color="#EE87EA"/>
<stop offset="1" stop-color="#27A0D4"/>
</linearGradient>
<linearGradient id="paint9_linear" x1="18.4166" y1="0" x2="18.4166" y2="34" gradientUnits="userSpaceOnUse">
<stop stop-color="#EE87EA"/>
<stop offset="1" stop-color="#27A0D4"/>
</linearGradient>
<linearGradient id="paint10_linear" x1="120.417" y1="22.6667" x2="120.417" y2="56.6667" gradientUnits="userSpaceOnUse">
<stop stop-color="#EE87EA"/>
<stop offset="1" stop-color="#27A0D4"/>
</linearGradient>
<linearGradient id="paint11_linear" x1="106.25" y1="0" x2="106.25" y2="34" gradientUnits="userSpaceOnUse">
<stop stop-color="#EE87EA"/>
<stop offset="1" stop-color="#27A0D4"/>
</linearGradient>
<clipPath id="clip0">
<rect width="170" height="170" fill="white"/>
</clipPath>
</defs>
</svg>
