<svg width="170" height="170" viewBox="0 0 170 170" fill="none" xmlns="http://www.w3.org/2000/svg">
<g clip-path="url(#clip0)">
<path d="M120.993 103.876C120.364 104.193 119.885 104.746 119.664 105.414C119.442 106.083 119.495 106.812 119.811 107.442C120.127 108.072 120.68 108.55 121.348 108.772C122.017 108.994 122.746 108.942 123.376 108.626C124.303 108.162 146.094 96.9168 146.094 66.4062C146.094 35.8957 124.303 24.6507 123.376 24.1864C122.746 23.8709 122.016 23.8184 121.348 24.0404C120.68 24.2625 120.127 24.7409 119.811 25.3705C119.495 26.0001 119.442 26.7294 119.664 27.398C119.885 28.0666 120.363 28.6198 120.993 28.936C121.801 29.3458 140.781 39.2859 140.781 66.4062C140.781 93.5266 121.804 103.467 120.993 103.876Z" fill="url(#paint0_linear)"/>
<path d="M109.893 34.7206C109.239 34.4609 108.509 34.4711 107.863 34.7489C107.217 35.0268 106.707 35.5497 106.445 36.2029C106.184 36.8561 106.193 37.5863 106.469 38.2333C106.745 38.8804 107.267 39.3914 107.919 39.6544C108.036 39.7011 119.531 44.5518 119.531 66.4062C119.531 87.926 108.442 92.935 107.901 93.1659C107.25 93.4317 106.731 93.9447 106.458 94.5924C106.185 95.2401 106.179 95.9698 106.443 96.6216C106.706 97.2733 107.217 97.794 107.864 98.0696C108.511 98.3452 109.241 98.3532 109.893 98.0919C110.503 97.848 124.844 91.8196 124.844 66.4062C124.844 40.9929 110.503 34.9644 109.893 34.7206Z" fill="url(#paint1_linear)"/>
<path d="M120.107 0.062273C119.419 -0.0909727 118.699 0.0352166 118.105 0.413081C117.51 0.790945 117.09 1.38953 116.937 2.07716C116.783 2.76478 116.91 3.48512 117.287 4.07971C117.665 4.6743 118.264 5.09443 118.951 5.24767C120.819 5.66789 164.687 16.1139 164.687 66.4063C164.687 116.699 120.819 127.145 118.951 127.565C118.314 127.708 117.752 128.081 117.372 128.613C116.992 129.144 116.822 129.797 116.893 130.447C116.965 131.096 117.273 131.696 117.759 132.133C118.245 132.569 118.875 132.811 119.529 132.813C119.723 132.812 119.917 132.791 120.107 132.75C120.606 132.639 170 121.031 170 66.4063C170 11.7819 120.606 0.173809 120.107 0.062273Z" fill="url(#paint2_linear)"/>
<path d="M92.9687 87.6562C95.0815 87.6539 97.107 86.8136 98.6009 85.3197C100.095 83.8257 100.935 81.8002 100.937 79.6875V55.7812C100.935 53.6685 100.095 51.6429 98.6009 50.149C97.107 48.6551 95.0815 47.8148 92.9687 47.8125H18.5937C17.9972 47.8127 17.4181 48.0136 16.9496 48.383C16.4812 48.7524 16.1507 49.2687 16.0114 49.8487L0.0739068 116.255C-0.0198692 116.645 -0.0239017 117.052 0.0621126 117.444C0.148127 117.836 0.321949 118.204 0.570506 118.519C0.819064 118.835 1.13589 119.09 1.49715 119.265C1.85841 119.44 2.25471 119.531 2.65623 119.531H7.35137L0.772952 150.778C0.284272 153.099 0.319677 155.5 0.876585 157.805C1.43349 160.11 2.49786 162.262 3.99209 164.104C5.48631 165.946 7.37272 167.431 9.51376 168.451C11.6548 169.471 13.9965 170 16.3681 170H29.2187C29.8282 170 30.4192 169.791 30.8924 169.406C31.3657 169.022 31.6925 168.487 31.8179 167.891L42.4325 117.471L49.8864 87.6562H92.9687ZM95.625 55.7812V79.6875C95.6243 80.3917 95.3442 81.067 94.8462 81.5649C94.3482 82.0629 93.673 82.343 92.9687 82.3437H85V53.125H92.9687C93.673 53.1257 94.3482 53.4058 94.8462 53.9037C95.3442 54.4017 95.6243 55.077 95.625 55.7812ZM20.6884 53.125H36.5043L29.7622 82.3437H13.6759L20.6884 53.125ZM27.0631 164.687H16.3681C14.787 164.687 13.2258 164.335 11.7985 163.655C10.3711 162.975 9.11345 161.985 8.11729 160.757C7.12113 159.529 6.41156 158.094 6.04031 156.558C5.66907 155.021 5.64551 153.42 5.97137 151.873L12.7806 119.531H36.5701L27.0631 164.687ZM45.2354 84.3567L37.7698 114.219H6.02582L12.4008 87.6562H31.875C32.4758 87.6562 33.0589 87.4526 33.5291 87.0785C33.9993 86.7044 34.3288 86.182 34.4638 85.5966L41.9572 53.125H79.6875V82.3437H47.8125C47.22 82.3438 46.6445 82.542 46.1775 82.9067C45.7106 83.2714 45.3789 83.7818 45.2354 84.3567V84.3567Z" fill="url(#paint3_linear)"/>
<path d="M18.5938 132.812H29.2188C29.9232 132.812 30.5989 132.533 31.097 132.035C31.5951 131.536 31.875 130.861 31.875 130.156C31.875 129.452 31.5951 128.776 31.097 128.278C30.5989 127.78 29.9232 127.5 29.2188 127.5H18.5938C17.8893 127.5 17.2136 127.78 16.7155 128.278C16.2174 128.776 15.9375 129.452 15.9375 130.156C15.9375 130.861 16.2174 131.536 16.7155 132.035C17.2136 132.533 17.8893 132.812 18.5938 132.812Z" fill="url(#paint4_linear)"/>
<path d="M15.9375 143.437H26.5625C27.267 143.437 27.9426 143.158 28.4408 142.659C28.9389 142.161 29.2188 141.486 29.2188 140.781C29.2188 140.077 28.9389 139.401 28.4408 138.903C27.9426 138.405 27.267 138.125 26.5625 138.125H15.9375C15.233 138.125 14.5574 138.405 14.0592 138.903C13.5611 139.401 13.2812 140.077 13.2812 140.781C13.2812 141.486 13.5611 142.161 14.0592 142.659C14.5574 143.158 15.233 143.437 15.9375 143.437Z" fill="url(#paint5_linear)"/>
<path d="M10.625 151.406C10.6249 151.755 10.6936 152.101 10.827 152.423C10.9605 152.745 11.1561 153.038 11.4028 153.285C11.6495 153.531 11.9423 153.727 12.2646 153.86C12.587 153.994 12.9324 154.063 13.2812 154.062H23.9062C24.6107 154.062 25.2864 153.783 25.7845 153.284C26.2826 152.786 26.5625 152.111 26.5625 151.406C26.5625 150.702 26.2826 150.026 25.7845 149.528C25.2864 149.03 24.6107 148.75 23.9062 148.75H13.2812C12.9324 148.75 12.587 148.819 12.2646 148.952C11.9423 149.085 11.6495 149.281 11.4028 149.528C11.1561 149.774 10.9605 150.067 10.827 150.39C10.6936 150.712 10.6249 151.057 10.625 151.406V151.406Z" fill="url(#paint6_linear)"/>
<path d="M31.875 98.2812H15.9375V103.594H31.875V98.2812Z" fill="url(#paint7_linear)"/>
<path d="M71.7188 58.4375H50.4688C50.1199 58.4374 49.7744 58.506 49.4521 58.6395C49.1298 58.7729 48.837 58.9686 48.5903 59.2153C48.3436 59.4619 48.148 59.7548 48.0145 60.0771C47.8811 60.3994 47.8124 60.7449 47.8125 61.0937V71.7187C47.8124 72.0676 47.8811 72.413 48.0145 72.7353C48.148 73.0576 48.3436 73.3505 48.5903 73.5972C48.837 73.8439 49.1298 74.0395 49.4521 74.173C49.7744 74.3064 50.1199 74.3751 50.4688 74.375H71.7188C72.0676 74.3751 72.4131 74.3064 72.7354 74.173C73.0577 74.0395 73.3505 73.8439 73.5972 73.5972C73.8439 73.3505 74.0395 73.0576 74.173 72.7353C74.3064 72.413 74.3751 72.0676 74.375 71.7187V61.0937C74.3751 60.7449 74.3064 60.3994 74.173 60.0771C74.0395 59.7548 73.8439 59.4619 73.5972 59.2153C73.3505 58.9686 73.0577 58.7729 72.7354 58.6395C72.4131 58.506 72.0676 58.4374 71.7188 58.4375V58.4375ZM69.0625 69.0625H53.125V63.75H69.0625V69.0625Z" fill="url(#paint8_linear)"/>
<path d="M100.938 135.469H95.3565C95.014 133.806 94.3539 132.225 93.4125 130.813L97.3695 126.854C97.8676 126.356 98.1474 125.68 98.1474 124.976C98.1474 124.272 97.8676 123.596 97.3695 123.098C96.8714 122.6 96.1958 122.32 95.4914 122.32C94.787 122.32 94.1115 122.6 93.6134 123.098L89.6565 127.057C88.2439 126.115 86.6628 125.455 85 125.112V119.531C85 118.827 84.7201 118.151 84.222 117.653C83.7239 117.155 83.0482 116.875 82.3438 116.875C81.6393 116.875 80.9636 117.155 80.4655 117.653C79.9674 118.151 79.6875 118.827 79.6875 119.531V125.112C78.0247 125.455 76.4436 126.115 75.031 127.057L71.0741 123.098C70.576 122.6 69.9005 122.32 69.1961 122.32C68.4917 122.32 67.8161 122.6 67.318 123.098C66.8199 123.596 66.5401 124.272 66.5401 124.976C66.5401 125.68 66.8199 126.356 67.318 126.854L71.2752 130.813C70.3337 132.225 69.6736 133.806 69.331 135.469H63.75C63.0455 135.469 62.3699 135.749 61.8717 136.247C61.3736 136.745 61.0938 137.421 61.0938 138.125C61.0938 138.829 61.3736 139.505 61.8717 140.003C62.3699 140.501 63.0455 140.781 63.75 140.781H69.331C69.6735 142.444 70.3336 144.025 71.275 145.437L67.318 149.396C66.8199 149.894 66.5401 150.57 66.5401 151.274C66.5401 151.978 66.8199 152.654 67.318 153.152C67.8161 153.65 68.4917 153.93 69.1961 153.93C69.9005 153.93 70.576 153.65 71.0741 153.152L75.0311 149.193C76.4437 150.135 78.0247 150.795 79.6875 151.138V156.719C79.6875 157.423 79.9674 158.099 80.4655 158.597C80.9636 159.095 81.6393 159.375 82.3438 159.375C83.0482 159.375 83.7239 159.095 84.222 158.597C84.7201 158.099 85 157.423 85 156.719V151.138C86.6628 150.795 88.2439 150.135 89.6565 149.193L93.6134 153.152C93.86 153.399 94.1528 153.594 94.475 153.728C94.7973 153.861 95.1426 153.93 95.4914 153.93C95.8402 153.93 96.1856 153.861 96.5078 153.728C96.8301 153.594 97.1229 153.399 97.3695 153.152C97.6161 152.905 97.8117 152.613 97.9452 152.29C98.0787 151.968 98.1474 151.623 98.1474 151.274C98.1474 150.925 98.0787 150.58 97.9452 150.258C97.8117 149.935 97.6161 149.643 97.3695 149.396L93.4125 145.437C94.3539 144.025 95.014 142.444 95.3565 140.781H100.938C101.642 140.781 102.318 140.501 102.816 140.003C103.314 139.505 103.594 138.829 103.594 138.125C103.594 137.421 103.314 136.745 102.816 136.247C102.318 135.749 101.642 135.469 100.938 135.469ZM82.3438 146.094C80.7677 146.094 79.227 145.626 77.9166 144.751C76.6061 143.875 75.5847 142.631 74.9816 141.175C74.3784 139.718 74.2206 138.116 74.5281 136.57C74.8356 135.025 75.5945 133.605 76.709 132.49C77.8234 131.376 79.2433 130.617 80.7891 130.309C82.3349 130.002 83.9372 130.16 85.3933 130.763C86.8494 131.366 88.0939 132.387 88.9695 133.698C89.8451 135.008 90.3125 136.549 90.3125 138.125C90.3102 140.238 89.4699 142.263 87.976 143.757C86.482 145.251 84.4565 146.091 82.3438 146.094V146.094Z" fill="url(#paint9_linear)"/>
<path d="M82.3438 135.469H77.0312V140.781H82.3438V135.469Z" fill="url(#paint10_linear)"/>
<path d="M37.1875 23.9062H42.7685C43.111 25.5688 43.7711 27.1497 44.7125 28.5622L40.7555 32.5209C40.2574 33.019 39.9776 33.6945 39.9776 34.3989C39.9776 35.1034 40.2574 35.7789 40.7555 36.277C41.2536 36.7751 41.9292 37.0549 42.6336 37.0549C43.338 37.0549 44.0135 36.7751 44.5116 36.277L48.4685 32.3182C49.8811 33.2599 51.4622 33.9202 53.125 34.2628V39.8438C53.125 40.5482 53.4049 41.2239 53.903 41.722C54.4011 42.2201 55.0768 42.5 55.7812 42.5C56.4857 42.5 57.1614 42.2201 57.6595 41.722C58.1576 41.2239 58.4375 40.5482 58.4375 39.8438V34.2628C60.1003 33.9202 61.6814 33.2599 63.094 32.3182L67.0509 36.277C67.2975 36.5236 67.5903 36.7193 67.9125 36.8528C68.2348 36.9862 68.5801 37.0549 68.9289 37.0549C69.2777 37.0549 69.6231 36.9862 69.9453 36.8527C70.2676 36.7193 70.5604 36.5236 70.807 36.277C71.0536 36.0304 71.2492 35.7376 71.3827 35.4153C71.5162 35.0931 71.5849 34.7477 71.5849 34.3989C71.5849 34.0502 71.5162 33.7048 71.3827 33.3826C71.2492 33.0603 71.0536 32.7675 70.807 32.5209L66.85 28.5622C67.7914 27.1497 68.4515 25.5688 68.794 23.9062H74.375C75.0795 23.9062 75.7551 23.6264 76.2533 23.1283C76.7514 22.6301 77.0312 21.9545 77.0312 21.25C77.0312 20.5455 76.7514 19.8699 76.2533 19.3717C75.7551 18.8736 75.0795 18.5938 74.375 18.5938H68.794C68.4515 16.9312 67.7914 15.3503 66.85 13.9378L70.807 9.97911C71.3051 9.48102 71.5849 8.80546 71.5849 8.10105C71.5849 7.39665 71.3051 6.72109 70.807 6.223C70.3089 5.7249 69.6333 5.44508 68.9289 5.44507C68.2245 5.44507 67.549 5.72489 67.0509 6.22298L63.094 10.1818C61.6814 9.24007 60.1003 8.57982 58.4375 8.23722V2.65625C58.4375 1.95177 58.1576 1.27614 57.6595 0.777998C57.1614 0.279854 56.4857 0 55.7812 0C55.0768 0 54.4011 0.279854 53.903 0.777998C53.4049 1.27614 53.125 1.95177 53.125 2.65625V8.23722C51.4622 8.57982 49.8811 9.24007 48.4685 10.1818L44.5116 6.22298C44.265 5.97635 43.9722 5.78072 43.65 5.64724C43.3277 5.51377 42.9824 5.44507 42.6336 5.44507C42.2848 5.44507 41.9394 5.51377 41.6172 5.64725C41.2949 5.78073 41.0022 5.97637 40.7555 6.223C40.2574 6.72109 39.9776 7.39665 39.9776 8.10105C39.9776 8.44984 40.0463 8.79521 40.1798 9.11745C40.3133 9.43969 40.5089 9.73248 40.7555 9.97911L44.7127 13.9378C43.7712 15.3503 43.1111 16.9312 42.7685 18.5938H37.1875C36.483 18.5938 35.8074 18.8736 35.3092 19.3717C34.8111 19.8699 34.5312 20.5455 34.5312 21.25C34.5312 21.9545 34.8111 22.6301 35.3092 23.1283C35.8074 23.6264 36.483 23.9062 37.1875 23.9062V23.9062ZM55.7812 13.2812C57.3573 13.2812 58.898 13.7486 60.2084 14.6242C61.5189 15.4998 62.5403 16.7444 63.1434 18.2005C63.7466 19.6566 63.9044 21.2588 63.5969 22.8046C63.2894 24.3504 62.5305 25.7703 61.416 26.8848C60.3016 27.9992 58.8817 28.7582 57.3359 29.0656C55.7901 29.3731 54.1878 29.2153 52.7317 28.6122C51.2756 28.009 50.0311 26.9877 49.1555 25.6772C48.2799 24.3667 47.8125 22.8261 47.8125 21.25C47.8148 19.1373 48.6551 17.1117 50.149 15.6178C51.643 14.1239 53.6685 13.2836 55.7812 13.2812Z" fill="url(#paint11_linear)"/>
<path d="M55.7812 18.5937H50.4688V23.9062H55.7812V18.5937Z" fill="url(#paint12_linear)"/>
</g>
<defs>
<linearGradient id="paint0_linear" x1="132.811" y1="23.905" x2="132.811" y2="108.908" gradientUnits="userSpaceOnUse">
<stop stop-color="#EE87EA"/>
<stop offset="1" stop-color="#27A0D4"/>
</linearGradient>
<linearGradient id="paint1_linear" x1="115.546" y1="34.5329" x2="115.546" y2="98.2823" gradientUnits="userSpaceOnUse">
<stop stop-color="#EE87EA"/>
<stop offset="1" stop-color="#27A0D4"/>
</linearGradient>
<linearGradient id="paint2_linear" x1="143.436" y1="-0.00134277" x2="143.436" y2="132.813" gradientUnits="userSpaceOnUse">
<stop stop-color="#EE87EA"/>
<stop offset="1" stop-color="#27A0D4"/>
</linearGradient>
<linearGradient id="paint3_linear" x1="50.469" y1="47.8125" x2="50.469" y2="170" gradientUnits="userSpaceOnUse">
<stop stop-color="#EE87EA"/>
<stop offset="1" stop-color="#27A0D4"/>
</linearGradient>
<linearGradient id="paint4_linear" x1="23.9062" y1="127.5" x2="23.9062" y2="132.812" gradientUnits="userSpaceOnUse">
<stop stop-color="#EE87EA"/>
<stop offset="1" stop-color="#27A0D4"/>
</linearGradient>
<linearGradient id="paint5_linear" x1="21.25" y1="138.125" x2="21.25" y2="143.437" gradientUnits="userSpaceOnUse">
<stop stop-color="#EE87EA"/>
<stop offset="1" stop-color="#27A0D4"/>
</linearGradient>
<linearGradient id="paint6_linear" x1="18.5938" y1="148.75" x2="18.5938" y2="154.062" gradientUnits="userSpaceOnUse">
<stop stop-color="#EE87EA"/>
<stop offset="1" stop-color="#27A0D4"/>
</linearGradient>
<linearGradient id="paint7_linear" x1="23.9062" y1="98.2812" x2="23.9062" y2="103.594" gradientUnits="userSpaceOnUse">
<stop stop-color="#EE87EA"/>
<stop offset="1" stop-color="#27A0D4"/>
</linearGradient>
<linearGradient id="paint8_linear" x1="61.0938" y1="58.4375" x2="61.0938" y2="74.375" gradientUnits="userSpaceOnUse">
<stop stop-color="#EE87EA"/>
<stop offset="1" stop-color="#27A0D4"/>
</linearGradient>
<linearGradient id="paint9_linear" x1="82.3438" y1="116.875" x2="82.3438" y2="159.375" gradientUnits="userSpaceOnUse">
<stop stop-color="#EE87EA"/>
<stop offset="1" stop-color="#27A0D4"/>
</linearGradient>
<linearGradient id="paint10_linear" x1="79.6875" y1="135.469" x2="79.6875" y2="140.781" gradientUnits="userSpaceOnUse">
<stop stop-color="#EE87EA"/>
<stop offset="1" stop-color="#27A0D4"/>
</linearGradient>
<linearGradient id="paint11_linear" x1="55.7812" y1="0" x2="55.7812" y2="42.5" gradientUnits="userSpaceOnUse">
<stop stop-color="#EE87EA"/>
<stop offset="1" stop-color="#27A0D4"/>
</linearGradient>
<linearGradient id="paint12_linear" x1="53.125" y1="18.5937" x2="53.125" y2="23.9062" gradientUnits="userSpaceOnUse">
<stop stop-color="#EE87EA"/>
<stop offset="1" stop-color="#27A0D4"/>
</linearGradient>
<clipPath id="clip0">
<rect width="170" height="170" fill="white"/>
</clipPath>
</defs>
</svg>
