<svg width="170" height="170" viewBox="0 0 170 170" fill="none" xmlns="http://www.w3.org/2000/svg">
<g clip-path="url(#clip0)">
<path d="M85 0C68.1886 0 51.7547 4.98516 37.7766 14.3251C23.7984 23.665 12.9037 36.9402 6.47026 52.4719C0.0368141 68.0036 -1.64647 85.0943 1.63327 101.583C4.91302 118.071 13.0085 133.217 24.8959 145.104C36.7834 156.992 51.929 165.087 68.4174 168.367C84.9057 171.646 101.996 169.963 117.528 163.53C133.06 157.096 146.335 146.202 155.675 132.223C165.015 118.245 170 101.811 170 85C169.975 62.4644 161.011 40.8592 145.076 24.9241C129.141 8.98902 107.536 0.025497 85 0V0ZM138.833 101.269C142.548 102.244 146.452 102.244 150.167 101.269V107.667C150.167 109.17 149.57 110.611 148.507 111.674C147.444 112.736 146.003 113.333 144.5 113.333C142.997 113.333 141.556 112.736 140.493 111.674C139.43 110.611 138.833 109.17 138.833 107.667V101.269ZM155.833 98.9315C159.268 96.9326 162.122 94.0721 164.112 90.6327C163.725 96.1772 162.755 101.666 161.217 107.007C159.547 106.063 157.725 105.418 155.833 105.1V98.9315ZM164.087 79.0642C163.914 79.1413 163.735 79.2048 163.551 79.254C162.978 79.374 162.456 79.6687 162.058 80.0974C161.659 80.5261 161.403 81.0679 161.324 81.6482C160.769 85.7163 158.759 89.4456 155.666 92.1455C152.573 94.8455 148.606 96.3332 144.5 96.3332C140.394 96.3332 136.427 94.8455 133.334 92.1455C130.241 89.4456 128.231 85.7163 127.676 81.6482C127.597 81.0646 127.339 80.5199 126.937 80.0898C126.535 79.6597 126.009 79.3656 125.432 79.2483C124.299 78.8471 123.331 78.0815 122.68 77.0715C122.029 76.0615 121.731 74.864 121.833 73.6667C121.731 72.4693 122.029 71.2719 122.68 70.2618C123.331 69.2518 124.299 68.4862 125.432 68.085C126.009 67.9678 126.535 67.6736 126.937 67.2436C127.339 66.8135 127.597 66.2688 127.676 65.6852C128.231 61.617 130.241 57.8877 133.334 55.1878C136.427 52.4879 140.394 51.0002 144.5 51.0002C148.606 51.0002 152.573 52.4879 155.666 55.1878C158.759 57.8877 160.769 61.617 161.324 65.6852L161.925 65.6058C163.033 70.0211 163.756 74.524 164.087 79.0642V79.0642ZM144.5 45.3333C139.334 45.347 134.326 47.1203 130.303 50.3609C126.28 53.6014 123.48 58.116 122.366 63.1607C120.488 64.1979 118.922 65.7196 117.832 67.5674C116.742 69.4151 116.167 71.5213 116.167 73.6667C116.167 75.8121 116.742 77.9183 117.832 79.766C118.922 81.6137 120.488 83.1354 122.366 84.1727C123.044 87.2474 124.354 90.1475 126.214 92.6884C128.073 95.2292 130.441 97.3554 133.167 98.9315V105.088C129.21 105.761 125.618 107.81 123.026 110.874C120.433 113.938 119.007 117.82 119 121.833V156.664C116.236 157.974 113.398 159.124 110.5 160.106V130.333C110.493 126.32 109.067 122.438 106.474 119.374C103.882 116.31 100.29 114.261 96.3334 113.588V107.432C99.0591 105.855 101.427 103.729 103.286 101.188C105.146 98.6475 106.456 95.7474 107.134 92.6727C109.012 91.6354 110.578 90.1137 111.668 88.266C112.758 86.4183 113.333 84.3121 113.333 82.1667C113.333 80.0213 112.758 77.9151 111.668 76.0674C110.578 74.2196 109.012 72.6979 107.134 71.6607C106.862 70.412 106.483 69.1892 106.001 68.0057L143.027 30.9797C147.808 36.109 151.891 41.8469 155.17 48.0448C151.893 46.2703 148.227 45.3385 144.5 45.3333V45.3333ZM73.6667 113.586C69.7027 114.249 66.1018 116.295 63.5032 119.361C60.9046 122.427 59.4762 126.314 59.4717 130.333V160.083C57.562 159.432 55.675 158.726 53.8334 157.936V120.173L69.5952 104.411C70.8355 105.567 72.2012 106.58 73.6667 107.432V113.586ZM5.66669 85C5.6703 80.6531 6.03135 76.3139 6.74619 72.0262C8.46365 77.3984 12.1188 81.9393 17 84.7648V90.9188C12.8938 91.6256 9.18807 93.8106 6.58186 97.0615C5.9709 93.0701 5.66496 89.0379 5.66669 85V85ZM20.6295 38.7147C23.0094 37.4787 25.6517 36.8334 28.3334 36.8333C32.4371 36.8411 36.3997 38.3315 39.4914 41.0301C42.583 43.7286 44.5954 47.4535 45.1577 51.5185C45.236 52.1021 45.4942 52.6468 45.8963 53.0769C46.2985 53.507 46.8247 53.8011 47.4017 53.9183C48.5344 54.3196 49.5022 55.0851 50.1533 56.0952C50.8044 57.1052 51.1022 58.3026 51 59.5C51.1022 60.6974 50.8044 61.8948 50.1533 62.9048C49.5022 63.9149 48.5344 64.6804 47.4017 65.0817C46.8247 65.1989 46.2985 65.493 45.8963 65.9231C45.4942 66.3532 45.236 66.8979 45.1577 67.4815C44.6027 71.5497 42.5925 75.2789 39.4992 77.9789C36.406 80.6788 32.4392 82.1665 28.3334 82.1665C24.2275 82.1665 20.2607 80.6788 17.1675 77.9789C14.0742 75.2789 12.064 71.5497 11.509 67.4815C11.4309 66.8983 11.1731 66.3539 10.7715 65.9238C10.3699 65.4938 9.84437 65.1994 9.26786 65.0817C8.93046 64.9997 8.60884 64.8628 8.31586 64.6765C10.7994 55.3428 14.9729 46.5434 20.6295 38.7147V38.7147ZM22.6667 87.1023C26.3816 88.077 30.2851 88.077 34 87.1023V93.5C34 95.0029 33.403 96.4442 32.3403 97.5069C31.2776 98.5697 29.8363 99.1667 28.3334 99.1667C26.8305 99.1667 25.3891 98.5697 24.3264 97.5069C23.2637 96.4442 22.6667 95.0029 22.6667 93.5V87.1023ZM17.4817 96.5912C18.1405 98.963 19.5583 101.054 21.5181 102.543C23.4778 104.033 25.8717 104.839 28.3334 104.839C30.795 104.839 33.1889 104.033 35.1487 102.543C37.1084 101.054 38.5262 98.963 39.185 96.5912C41.724 97.1297 44.0012 98.5234 45.636 100.539C47.2708 102.555 48.1641 105.071 48.1667 107.667V117.827L26.9734 139.02C18.3219 129.747 12.0209 118.533 8.59919 106.321C8.88647 103.978 9.896 101.782 11.4877 100.038C13.0794 98.295 15.1743 97.0901 17.4817 96.5912ZM48.1667 125.84V155.233C41.9228 151.942 36.1433 147.838 30.9797 143.027L48.1667 125.84ZM68.1757 90.1397C68.0974 89.5561 67.8392 89.0114 67.4371 88.5813C67.0349 88.1512 66.5087 87.8571 65.9317 87.7398C64.8004 87.339 63.8338 86.5747 63.1828 85.5664C62.5318 84.5582 62.2331 83.3627 62.3334 82.1667C62.2312 80.9693 62.529 79.7719 63.1801 78.7618C63.8312 77.7518 64.7989 76.9862 65.9317 76.585C66.5087 76.4678 67.0349 76.1736 67.4371 75.7436C67.8392 75.3135 68.0974 74.7688 68.1757 74.1852C68.6297 70.7793 70.1098 67.5924 72.4191 65.0483C74.7285 62.5042 77.7577 60.7234 81.1038 59.9427C84.4499 59.1621 87.9543 59.4187 91.1511 60.6783C94.3478 61.9379 97.0853 64.1408 98.9995 66.9942L70.0655 95.9253C69.0878 94.1313 68.4473 92.1732 68.1757 90.1482V90.1397ZM101.824 74.1767C101.903 74.7603 102.161 75.305 102.563 75.7351C102.965 76.1651 103.491 76.4593 104.068 76.5765C105.203 76.9781 106.171 77.745 106.823 78.7567C107.474 79.7685 107.771 80.9679 107.667 82.1667C107.769 83.364 107.471 84.5615 106.82 85.5715C106.169 86.5815 105.201 87.3471 104.068 87.7483C103.491 87.8656 102.965 88.1597 102.563 88.5898C102.161 89.0199 101.903 89.5646 101.824 90.1482C101.413 93.2138 100.17 96.1081 98.2297 98.5172C96.2897 100.926 93.7271 102.758 90.8199 103.814C87.9126 104.87 84.7717 105.11 81.7379 104.507C78.704 103.905 75.8931 102.483 73.61 100.396L101.45 72.556C101.604 73.092 101.729 73.6358 101.824 74.1852V74.1767ZM79.3334 109.769C83.0483 110.744 86.9518 110.744 90.6667 109.769V116.167C90.6667 117.67 90.0697 119.111 89.007 120.174C87.9443 121.236 86.5029 121.833 85 121.833C83.4971 121.833 82.0558 121.236 80.9931 120.174C79.9304 119.111 79.3334 117.67 79.3334 116.167V109.769ZM85 5.66667C105.058 5.65512 124.371 13.2722 139.02 26.9733L103.099 62.9C100.498 59.4279 96.9527 56.7766 92.8869 55.262C88.821 53.7474 84.4056 53.4333 80.1662 54.357C75.9269 55.2807 72.0424 57.4033 68.9752 60.4721C65.9081 63.5409 63.7875 67.4265 62.866 71.6663C60.988 72.7036 59.4224 74.2253 58.3321 76.073C57.2419 77.9207 56.6668 80.0269 56.6668 82.1723C56.6668 84.3177 57.2419 86.4239 58.3321 88.2717C59.4224 90.1194 60.988 91.6411 62.866 92.6783C63.4398 95.3031 64.4811 97.8032 65.9402 100.059L53.8334 112.16V107.667C53.8259 103.653 52.4001 99.7714 49.8078 96.7073C47.2155 93.6432 43.6236 91.5939 39.6667 90.9217V84.7648C42.3924 83.1887 44.7603 81.0626 46.6197 78.5217C48.4792 75.9808 49.7895 73.0808 50.4674 70.006C52.39 69.0223 53.9936 67.5124 55.0912 65.6524C56.1887 63.7923 56.7351 61.6587 56.6667 59.5C56.7351 57.3414 56.1887 55.2077 55.0912 53.3476C53.9936 51.4876 52.39 49.9777 50.4674 48.994C49.3533 43.9494 46.5538 39.4348 42.5304 36.1942C38.5069 32.9536 33.4995 31.1803 28.3334 31.1667C27.7837 31.1667 27.2425 31.2318 26.6957 31.2715C34.1102 23.1975 43.1215 16.7523 53.1582 12.3445C63.195 7.93683 74.0381 5.6628 85 5.66667V5.66667ZM65.1384 161.815V130.333C65.1421 127.733 66.0387 125.212 67.6783 123.194C69.3179 121.175 71.6009 119.781 74.1455 119.244C74.8035 121.617 76.221 123.709 78.1812 125.199C80.1414 126.69 82.536 127.497 84.9986 127.497C87.4612 127.497 89.8559 126.69 91.816 125.199C93.7762 123.709 95.1938 121.617 95.8517 119.244C98.3931 119.783 100.672 121.179 102.307 123.197C103.942 125.216 104.834 127.735 104.833 130.333V161.823C91.8141 165.176 78.1576 165.176 65.1384 161.823V161.815ZM124.667 153.66V121.833C124.668 119.237 125.561 116.72 127.196 114.703C128.831 112.685 131.108 111.291 133.648 110.752C134.308 113.124 135.726 115.214 137.686 116.703C139.646 118.192 142.04 118.998 144.501 118.998C146.963 118.998 149.357 118.192 151.317 116.703C153.276 115.214 154.695 113.124 155.355 110.752C156.812 111.054 158.191 111.654 159.406 112.515C152.947 129.843 140.667 144.388 124.667 153.66V153.66Z" fill="url(#paint0_linear)"/>
</g>
<defs>
<linearGradient id="paint0_linear" x1="85" y1="0" x2="85" y2="170" gradientUnits="userSpaceOnUse">
<stop stop-color="#EE87EA"/>
<stop offset="1" stop-color="#27A0D4"/>
</linearGradient>
<clipPath id="clip0">
<rect width="170" height="170" fill="white"/>
</clipPath>
</defs>
</svg>
