<svg width="170" height="170" viewBox="0 0 170 170" fill="none" xmlns="http://www.w3.org/2000/svg">
<g clip-path="url(#clip0)">
<path d="M167.549 105.057C166.067 103.411 164.045 102.349 161.848 102.062C159.652 101.775 157.425 102.283 155.57 103.493L143.953 110.843C143.071 107.526 141.12 104.592 138.401 102.497C135.683 100.401 132.349 99.2605 128.917 99.2517C128.561 99.2577 128.207 99.2823 127.854 99.3254C127.387 99.3845 126.913 99.3328 126.47 99.1743C126.027 99.0157 125.628 98.7549 125.304 98.413C124.053 96.8924 122.477 95.6707 120.693 94.8374C118.908 94.004 116.96 93.58 114.991 93.5964C113.587 93.5946 112.187 93.7611 110.823 94.0922C109.281 91.8045 107.096 90.0249 104.543 88.978C101.99 87.9312 99.185 87.664 96.4807 88.2102C95.1878 86.3664 93.469 84.8619 91.4703 83.8246C89.4715 82.7872 87.2519 82.2477 85 82.2517C81.518 82.2281 78.164 83.5626 75.65 85.9719C74.0735 85.3747 72.4 85.075 70.7143 85.0879C66.6989 85.3847 62.9413 87.1786 60.1857 90.1142C59.8086 90.5348 59.2965 90.8104 58.7378 90.8934C55.7707 91.3178 52.99 92.5925 50.7318 94.5635C48.4737 96.5346 46.8348 99.1175 46.0133 102L33.6147 108.766C31.534 109.902 29.202 110.498 26.8317 110.5H8.5C6.24566 110.5 4.08365 111.396 2.48959 112.99C0.895533 114.584 0 116.746 0 119L0 141.706C0.00435348 143.947 0.891588 146.096 2.46941 147.687C4.04723 149.278 6.18851 150.183 8.42917 150.206C14.3962 150.24 23.5988 150.294 28.2625 150.294C28.3843 150.294 28.475 150.294 28.6195 150.294C30.0846 150.296 31.5405 150.527 32.9347 150.977L89.8478 169.32C92.0169 170.017 94.322 170.181 96.5677 169.797C98.8134 169.413 100.933 168.493 102.748 167.116L166.371 118.788C167.383 118.002 168.224 117.016 168.842 115.893C169.459 114.769 169.839 113.53 169.958 112.254C170.078 110.977 169.934 109.69 169.536 108.471C169.139 107.252 168.495 106.128 167.645 105.168L167.549 105.057ZM59.4717 96.5119C61.2776 96.2703 62.9475 95.4209 64.2062 94.1035C65.9424 92.2286 68.2941 91.0391 70.8333 90.7517C71.8099 90.7584 72.7773 90.9408 73.6893 91.29C74.6497 91.6354 75.6866 91.7094 76.6863 91.504C77.6859 91.2985 78.6097 90.8216 79.356 90.1255C80.2352 89.3182 81.2767 88.708 82.4109 88.3359C83.5451 87.9638 84.7457 87.8383 85.9323 87.9679C87.1188 88.0975 88.2641 88.4791 89.2912 89.0873C90.3183 89.6954 91.2036 90.516 91.8878 91.494C92.5126 92.3868 93.3851 93.0771 94.3976 93.4799C95.4101 93.8827 96.5184 93.9803 97.5857 93.7607C98.1053 93.6486 98.6351 93.5897 99.1667 93.585C100.553 93.5897 101.916 93.9332 103.139 94.5856C104.362 95.2379 105.406 96.1794 106.182 97.3279C106.86 98.2791 107.811 99.0028 108.908 99.4039C110.005 99.8049 111.198 99.8644 112.33 99.5747C113.133 99.3532 113.963 99.2444 114.795 99.2517C115.985 99.2312 117.165 99.4809 118.244 99.9819C119.324 100.483 120.276 101.222 121.029 102.145C121.957 103.179 123.121 103.975 124.422 104.463C125.723 104.952 127.123 105.12 128.503 104.952C128.65 104.938 128.786 104.918 128.905 104.918C131.407 104.926 133.814 105.881 135.641 107.591C137.467 109.301 138.579 111.639 138.751 114.135L131.144 118.952C130.95 116.619 129.974 114.421 128.374 112.713C126.774 111.005 124.644 109.888 122.329 109.542L58.1145 99.3622C56.7334 99.1675 55.3336 99.1437 53.9467 99.2914C55.4384 97.7905 57.3774 96.815 59.4717 96.5119ZM162.917 114.294L99.3225 162.605C98.2336 163.43 96.9617 163.981 95.6148 164.21C94.2678 164.44 92.8854 164.341 91.5847 163.923L34.663 145.582C32.7105 144.951 30.6714 144.629 28.6195 144.628H28.5883C24.14 144.628 14.5718 144.574 8.47167 144.54C7.72662 144.53 7.01538 144.227 6.49197 143.697C5.96855 143.167 5.6751 142.451 5.67517 141.706V119C5.67517 118.249 5.97368 117.528 6.50503 116.997C7.03638 116.465 7.75705 116.167 8.5085 116.167H26.8317C30.1508 116.164 33.4166 115.331 36.3318 113.744L50.2775 106.131C52.4151 105.009 54.855 104.599 57.2418 104.961L121.468 115.141C122.66 115.326 123.738 115.954 124.488 116.899C125.237 117.845 125.602 119.038 125.51 120.241C125.418 121.444 124.876 122.567 123.992 123.388C123.107 124.208 121.946 124.665 120.74 124.667H65.1667C64.4152 124.667 63.6945 124.965 63.1632 125.497C62.6318 126.028 62.3333 126.749 62.3333 127.5C62.3333 128.251 62.6318 128.972 63.1632 129.504C63.6945 130.035 64.4152 130.333 65.1667 130.333H78.3813L95.1377 143.064C96.2778 143.925 97.6535 144.419 99.0815 144.479C100.509 144.54 101.922 144.163 103.13 143.401L158.633 108.267C159.351 107.796 160.212 107.593 161.065 107.692C161.918 107.791 162.709 108.188 163.299 108.811C163.321 108.84 163.345 108.867 163.37 108.894C163.712 109.27 163.972 109.713 164.136 110.195C164.299 110.677 164.362 111.187 164.32 111.694C164.278 112.201 164.132 112.694 163.892 113.142C163.651 113.59 163.321 113.984 162.922 114.3L162.917 114.294ZM113.177 130.333L100.099 138.615C99.8655 138.76 99.5939 138.831 99.3195 138.82C99.0452 138.808 98.7806 138.714 98.5603 138.55L87.7483 130.333H113.177Z" fill="url(#paint0_linear)"/>
<path d="M164.333 0H90.6667C85.4086 0.00674735 80.3678 2.09849 76.6498 5.8165C72.9318 9.53451 70.8401 14.5753 70.8333 19.8333V34H68C65.7457 34 63.5837 34.8955 61.9896 36.4896C60.3955 38.0837 59.5 40.2457 59.5 42.5C59.5 44.7543 60.3955 46.9164 61.9896 48.5104C63.5837 50.1045 65.7457 51 68 51H107.667C109.921 51 112.083 50.1045 113.677 48.5104C115.271 46.9164 116.167 44.7543 116.167 42.5C116.167 40.2457 115.271 38.0837 113.677 36.4896C112.083 34.8955 109.921 34 107.667 34H104.833V25.5H164.333C165.836 25.5 167.278 24.903 168.34 23.8403C169.403 22.7776 170 21.3362 170 19.8333V5.66667C170 4.16377 169.403 2.72243 168.34 1.65973C167.278 0.597022 165.836 0 164.333 0V0ZM110.5 42.5C110.5 43.2514 110.201 43.9721 109.67 44.5035C109.139 45.0348 108.418 45.3333 107.667 45.3333H68C67.2486 45.3333 66.5279 45.0348 65.9965 44.5035C65.4652 43.9721 65.1667 43.2514 65.1667 42.5C65.1667 41.7486 65.4652 41.0279 65.9965 40.4965C66.5279 39.9652 67.2486 39.6667 68 39.6667H107.667C108.418 39.6667 109.139 39.9652 109.67 40.4965C110.201 41.0279 110.5 41.7486 110.5 42.5ZM164.333 19.8333H104.833C103.33 19.8333 101.889 20.4304 100.826 21.4931C99.7637 22.5558 99.1667 23.9971 99.1667 25.5V34H76.5V19.8333C76.5045 16.0775 77.9985 12.4767 80.6543 9.82096C83.3101 7.16517 86.9108 5.67117 90.6667 5.66667H164.333V19.8333Z" fill="url(#paint1_linear)"/>
<path d="M73.6667 62.3333V59.5C73.6667 58.7485 73.3682 58.0279 72.8368 57.4965C72.3054 56.9652 71.5848 56.6667 70.8333 56.6667C70.0819 56.6667 69.3612 56.9652 68.8299 57.4965C68.2985 58.0279 68 58.7485 68 59.5V62.3333C68 63.0848 68.2985 63.8054 68.8299 64.3368C69.3612 64.8681 70.0819 65.1667 70.8333 65.1667C71.5848 65.1667 72.3054 64.8681 72.8368 64.3368C73.3682 63.8054 73.6667 63.0848 73.6667 62.3333Z" fill="url(#paint2_linear)"/>
<path d="M107.667 62.3333V59.5C107.667 58.7485 107.368 58.0279 106.837 57.4965C106.305 56.9652 105.585 56.6667 104.833 56.6667C104.082 56.6667 103.361 56.9652 102.83 57.4965C102.299 58.0279 102 58.7485 102 59.5V62.3333C102 63.0848 102.299 63.8054 102.83 64.3368C103.361 64.8681 104.082 65.1667 104.833 65.1667C105.585 65.1667 106.305 64.8681 106.837 64.3368C107.368 63.8054 107.667 63.0848 107.667 62.3333Z" fill="url(#paint3_linear)"/>
<path d="M82.1667 73.6667V70.8333C82.1667 70.0819 81.8682 69.3612 81.3368 68.8299C80.8054 68.2985 80.0848 68 79.3333 68C78.5819 68 77.8612 68.2985 77.3299 68.8299C76.7985 69.3612 76.5 70.0819 76.5 70.8333V73.6667C76.5 74.4181 76.7985 75.1388 77.3299 75.6701C77.8612 76.2015 78.5819 76.5 79.3333 76.5C80.0848 76.5 80.8054 76.2015 81.3368 75.6701C81.8682 75.1388 82.1667 74.4181 82.1667 73.6667Z" fill="url(#paint4_linear)"/>
<path d="M99.1667 73.6667V70.8333C99.1667 70.0819 98.8682 69.3612 98.3368 68.8299C97.8054 68.2985 97.0848 68 96.3333 68C95.5819 68 94.8612 68.2985 94.3299 68.8299C93.7985 69.3612 93.5 70.0819 93.5 70.8333V73.6667C93.5 74.4181 93.7985 75.1388 94.3299 75.6701C94.8612 76.2015 95.5819 76.5 96.3333 76.5C97.0848 76.5 97.8054 76.2015 98.3368 75.6701C98.8682 75.1388 99.1667 74.4181 99.1667 73.6667Z" fill="url(#paint5_linear)"/>
<path d="M90.6667 65.1667V62.3333C90.6667 61.5819 90.3682 60.8612 89.8368 60.3299C89.3055 59.7985 88.5848 59.5 87.8333 59.5C87.0819 59.5 86.3612 59.7985 85.8299 60.3299C85.2985 60.8612 85 61.5819 85 62.3333V65.1667C85 65.9181 85.2985 66.6388 85.8299 67.1701C86.3612 67.7015 87.0819 68 87.8333 68C88.5848 68 89.3055 67.7015 89.8368 67.1701C90.3682 66.6388 90.6667 65.9181 90.6667 65.1667Z" fill="url(#paint6_linear)"/>
</g>
<defs>
<linearGradient id="paint0_linear" x1="84.9995" y1="82.2514" x2="84.9995" y2="169.999" gradientUnits="userSpaceOnUse">
<stop stop-color="#EE87EA"/>
<stop offset="1" stop-color="#27A0D4"/>
</linearGradient>
<linearGradient id="paint1_linear" x1="114.75" y1="0" x2="114.75" y2="51" gradientUnits="userSpaceOnUse">
<stop stop-color="#EE87EA"/>
<stop offset="1" stop-color="#27A0D4"/>
</linearGradient>
<linearGradient id="paint2_linear" x1="70.8333" y1="56.6667" x2="70.8333" y2="65.1667" gradientUnits="userSpaceOnUse">
<stop stop-color="#EE87EA"/>
<stop offset="1" stop-color="#27A0D4"/>
</linearGradient>
<linearGradient id="paint3_linear" x1="104.833" y1="56.6667" x2="104.833" y2="65.1667" gradientUnits="userSpaceOnUse">
<stop stop-color="#EE87EA"/>
<stop offset="1" stop-color="#27A0D4"/>
</linearGradient>
<linearGradient id="paint4_linear" x1="79.3333" y1="68" x2="79.3333" y2="76.5" gradientUnits="userSpaceOnUse">
<stop stop-color="#EE87EA"/>
<stop offset="1" stop-color="#27A0D4"/>
</linearGradient>
<linearGradient id="paint5_linear" x1="96.3333" y1="68" x2="96.3333" y2="76.5" gradientUnits="userSpaceOnUse">
<stop stop-color="#EE87EA"/>
<stop offset="1" stop-color="#27A0D4"/>
</linearGradient>
<linearGradient id="paint6_linear" x1="87.8333" y1="59.5" x2="87.8333" y2="68" gradientUnits="userSpaceOnUse">
<stop stop-color="#EE87EA"/>
<stop offset="1" stop-color="#27A0D4"/>
</linearGradient>
<clipPath id="clip0">
<rect width="170" height="170" fill="white"/>
</clipPath>
</defs>
</svg>
